<?xml version="1.0" encoding="UTF-8"?>
<svg xmlns="http://www.w3.org/2000/svg" xmlns:xlink="http://www.w3.org/1999/xlink" width="1280pt" height="720pt" viewBox="0 0 1280 720" version="1.1">
<defs>
<g>
<symbol overflow="visible" id="glyph0-0">
<path style="stroke:none;" d="M 0.203125 0 L 0.203125 -4.0625 L 1.828125 -4.0625 L 1.828125 0 Z M 0.40625 -0.203125 L 1.625 -0.203125 L 1.625 -3.859375 L 0.40625 -3.859375 Z "/>
</symbol>
<symbol overflow="visible" id="glyph0-1">
<path style="stroke:none;" d="M 5.5 0.21875 C 5.488281 0.320312 5.488281 0.425781 5.5 0.53125 C 5.3125 0.519531 5.117188 0.515625 4.921875 0.515625 L 1.3125 0.515625 C 1.125 0.515625 0.929688 0.519531 0.734375 0.53125 C 0.742188 0.425781 0.742188 0.320312 0.734375 0.21875 C 0.929688 0.226562 1.125 0.234375 1.3125 0.234375 L 2.84375 0.234375 L 2.84375 -0.546875 L 2.171875 -0.546875 C 1.984375 -0.546875 1.789062 -0.539062 1.59375 -0.53125 C 1.601562 -0.632812 1.601562 -0.738281 1.59375 -0.84375 C 1.789062 -0.832031 1.984375 -0.828125 2.171875 -0.828125 L 2.84375 -0.828125 C 2.832031 -1.078125 2.820312 -1.332031 2.8125 -1.59375 C 2.957031 -1.570312 3.109375 -1.570312 3.265625 -1.59375 C 3.253906 -1.332031 3.242188 -1.078125 3.234375 -0.828125 L 3.984375 -0.828125 C 4.179688 -0.828125 4.375 -0.832031 4.5625 -0.84375 C 4.550781 -0.738281 4.550781 -0.632812 4.5625 -0.53125 C 4.375 -0.539062 4.179688 -0.546875 3.984375 -0.546875 L 3.234375 -0.546875 L 3.234375 0.234375 L 4.921875 0.234375 C 5.117188 0.234375 5.3125 0.226562 5.5 0.21875 Z M 0.84375 -1.84375 C 0.65625 -1.84375 0.460938 -1.835938 0.265625 -1.828125 C 0.273438 -1.929688 0.273438 -2.035156 0.265625 -2.140625 C 0.460938 -2.128906 0.65625 -2.125 0.84375 -2.125 L 1.734375 -2.125 L 1.734375 -4.125 L 1.078125 -4.125 C 0.890625 -4.125 0.695312 -4.117188 0.5 -4.109375 C 0.507812 -4.210938 0.507812 -4.316406 0.5 -4.421875 C 0.695312 -4.421875 0.890625 -4.421875 1.078125 -4.421875 L 1.734375 -4.421875 C 1.734375 -4.617188 1.726562 -4.820312 1.71875 -5.03125 C 1.863281 -5.007812 2.015625 -5.007812 2.171875 -5.03125 C 2.160156 -4.820312 2.148438 -4.617188 2.140625 -4.421875 L 3.96875 -4.421875 C 3.96875 -4.609375 3.960938 -4.800781 3.953125 -5 C 4.097656 -4.976562 4.242188 -4.976562 4.390625 -5 C 4.390625 -4.800781 4.382812 -4.609375 4.375 -4.421875 L 5.046875 -4.421875 C 5.234375 -4.421875 5.425781 -4.421875 5.625 -4.421875 C 5.613281 -4.316406 5.613281 -4.210938 5.625 -4.109375 C 5.425781 -4.117188 5.234375 -4.125 5.046875 -4.125 L 4.375 -4.125 L 4.375 -2.125 L 5.203125 -2.125 C 5.390625 -2.125 5.582031 -2.128906 5.78125 -2.140625 C 5.757812 -2.035156 5.757812 -1.929688 5.78125 -1.828125 C 5.582031 -1.835938 5.390625 -1.84375 5.203125 -1.84375 L 4.171875 -1.84375 C 4.398438 -1.5625 4.632812 -1.34375 4.875 -1.1875 C 5.125 -1.03125 5.441406 -0.90625 5.828125 -0.8125 C 5.691406 -0.707031 5.609375 -0.578125 5.578125 -0.421875 C 5.222656 -0.523438 4.878906 -0.707031 4.546875 -0.96875 C 4.222656 -1.226562 3.941406 -1.519531 3.703125 -1.84375 L 2.40625 -1.84375 C 1.976562 -1.132812 1.300781 -0.597656 0.375 -0.234375 C 0.34375 -0.367188 0.273438 -0.484375 0.171875 -0.578125 C 0.515625 -0.703125 0.816406 -0.863281 1.078125 -1.0625 C 1.347656 -1.269531 1.613281 -1.53125 1.875 -1.84375 Z M 3.96875 -4.125 L 2.140625 -4.125 L 2.140625 -3.65625 L 3.5625 -3.65625 C 3.695312 -3.65625 3.832031 -3.65625 3.96875 -3.65625 Z M 3.96875 -2.890625 L 3.96875 -3.390625 C 3.832031 -3.390625 3.695312 -3.390625 3.5625 -3.390625 L 2.140625 -3.390625 L 2.140625 -2.890625 Z M 3.96875 -2.125 L 3.96875 -2.625 L 2.140625 -2.625 L 2.140625 -2.125 Z "/>
</symbol>
<symbol overflow="visible" id="glyph0-2">
<path style="stroke:none;" d="M 5.859375 0.15625 C 5.835938 0.269531 5.835938 0.382812 5.859375 0.5 C 5.648438 0.488281 5.441406 0.484375 5.234375 0.484375 L 1.875 0.484375 C 1.664062 0.484375 1.460938 0.488281 1.265625 0.5 C 1.273438 0.382812 1.273438 0.269531 1.265625 0.15625 C 1.460938 0.164062 1.664062 0.171875 1.875 0.171875 L 3.296875 0.171875 L 3.296875 -0.890625 L 2.40625 -0.890625 C 2.195312 -0.890625 1.992188 -0.882812 1.796875 -0.875 C 1.390625 -0.351562 0.9375 0.09375 0.4375 0.46875 C 0.351562 0.320312 0.234375 0.207031 0.078125 0.125 C 0.847656 -0.40625 1.46875 -1.066406 1.9375 -1.859375 L 1.078125 -1.859375 C 0.867188 -1.859375 0.660156 -1.851562 0.453125 -1.84375 C 0.460938 -1.957031 0.460938 -2.070312 0.453125 -2.1875 C 0.660156 -2.175781 0.867188 -2.171875 1.078125 -2.171875 L 2.109375 -2.171875 C 2.203125 -2.359375 2.289062 -2.546875 2.375 -2.734375 L 1.609375 -2.734375 C 1.410156 -2.734375 1.207031 -2.726562 1 -2.71875 C 1.007812 -2.832031 1.007812 -2.945312 1 -3.0625 C 1.207031 -3.039062 1.410156 -3.03125 1.609375 -3.03125 L 2.484375 -3.03125 C 2.554688 -3.226562 2.613281 -3.429688 2.65625 -3.640625 L 1.21875 -3.640625 C 1.007812 -3.640625 0.800781 -3.632812 0.59375 -3.625 C 0.601562 -3.726562 0.601562 -3.835938 0.59375 -3.953125 C 0.800781 -3.941406 1.007812 -3.9375 1.21875 -3.9375 L 2.203125 -3.9375 C 2.003906 -4.1875 1.789062 -4.425781 1.5625 -4.65625 L 1.890625 -4.96875 C 2.179688 -4.675781 2.445312 -4.363281 2.6875 -4.03125 L 2.5625 -3.9375 L 3.5 -3.9375 C 3.707031 -4.207031 3.945312 -4.550781 4.21875 -4.96875 C 4.332031 -4.875 4.457031 -4.789062 4.59375 -4.71875 C 4.476562 -4.519531 4.285156 -4.257812 4.015625 -3.9375 L 5.09375 -3.9375 C 5.289062 -3.9375 5.492188 -3.941406 5.703125 -3.953125 C 5.691406 -3.835938 5.691406 -3.726562 5.703125 -3.625 C 5.492188 -3.632812 5.289062 -3.640625 5.09375 -3.640625 L 3.78125 -3.640625 L 3.75 -3.609375 C 3.738281 -3.617188 3.726562 -3.628906 3.71875 -3.640625 L 3.125 -3.640625 C 3.070312 -3.429688 3.007812 -3.226562 2.9375 -3.03125 L 4.625 -3.03125 C 4.820312 -3.03125 5.023438 -3.039062 5.234375 -3.0625 C 5.222656 -2.945312 5.222656 -2.832031 5.234375 -2.71875 C 5.023438 -2.726562 4.820312 -2.734375 4.625 -2.734375 L 2.828125 -2.734375 C 2.742188 -2.546875 2.660156 -2.359375 2.578125 -2.171875 L 5.203125 -2.171875 C 5.410156 -2.171875 5.617188 -2.175781 5.828125 -2.1875 C 5.816406 -2.070312 5.816406 -1.957031 5.828125 -1.84375 C 5.617188 -1.851562 5.410156 -1.859375 5.203125 -1.859375 L 2.421875 -1.859375 C 2.296875 -1.628906 2.160156 -1.410156 2.015625 -1.203125 L 4.703125 -1.1875 C 4.898438 -1.1875 5.101562 -1.195312 5.3125 -1.21875 C 5.300781 -1.101562 5.300781 -0.988281 5.3125 -0.875 C 5.101562 -0.882812 4.898438 -0.890625 4.703125 -0.890625 L 3.703125 -0.890625 L 3.703125 0.171875 L 5.234375 0.171875 C 5.441406 0.171875 5.648438 0.164062 5.859375 0.15625 Z "/>
</symbol>
</g>
</defs>
<g id="surface27">
<g style="fill:rgb(96.862745%,85.098039%,43.529412%);fill-opacity:1;">
  <use xlink:href="#glyph0-1" x="30" y="25.883789"/>
  <use xlink:href="#glyph0-2" x="36" y="25.883789"/>
</g>
</g>
</svg>
