<?xml version="1.0" encoding="UTF-8"?>
<svg xmlns="http://www.w3.org/2000/svg" xmlns:xlink="http://www.w3.org/1999/xlink" width="854pt" height="480pt" viewBox="0 0 854 480" version="1.1">
<defs>
<g>
<symbol overflow="visible" id="glyph0-0">
<path style="stroke:none;" d="M 0.234375 0.828125 L 0.234375 -3.328125 L 2.59375 -3.328125 L 2.59375 0.828125 Z M 0.5 0.578125 L 2.328125 0.578125 L 2.328125 -3.0625 L 0.5 -3.0625 Z "/>
</symbol>
<symbol overflow="visible" id="glyph0-1">
<path style="stroke:none;" d="M 1.640625 -1.171875 L 1.640625 -3 L 0.46875 -1.171875 Z M 2.65625 0 L 1.09375 0 L 1.09375 -0.25 L 1.640625 -0.25 L 1.640625 -0.921875 L 0.140625 -0.921875 L 0.140625 -1.171875 L 1.65625 -3.5 L 2.109375 -3.5 L 2.109375 -1.171875 L 2.765625 -1.171875 L 2.765625 -0.921875 L 2.109375 -0.921875 L 2.109375 -0.25 L 2.65625 -0.25 Z "/>
</symbol>
<symbol overflow="visible" id="glyph0-2">
<path style="stroke:none;" d="M 0.4375 -0.234375 C 0.4375 -0.328125 0.46875 -0.398438 0.53125 -0.453125 C 0.59375 -0.515625 0.664062 -0.546875 0.75 -0.546875 C 0.832031 -0.546875 0.90625 -0.515625 0.96875 -0.453125 C 1.03125 -0.398438 1.0625 -0.328125 1.0625 -0.234375 C 1.0625 -0.148438 1.03125 -0.078125 0.96875 -0.015625 C 0.90625 0.0351562 0.832031 0.0625 0.75 0.0625 C 0.664062 0.0625 0.59375 0.0351562 0.53125 -0.015625 C 0.46875 -0.078125 0.4375 -0.148438 0.4375 -0.234375 Z "/>
</symbol>
<symbol overflow="visible" id="glyph0-3">
<path style="stroke:none;" d=""/>
</symbol>
<symbol overflow="visible" id="glyph0-4">
<path style="stroke:none;" d="M 1.171875 -0.25 L 1.71875 -0.25 L 1.71875 0 L 0.265625 0 L 0.265625 -0.25 L 0.703125 -0.25 L 0.703125 -3.1875 L 0.265625 -3.1875 L 0.265625 -3.4375 L 3.078125 -3.4375 L 3.078125 -2.671875 L 2.796875 -2.671875 L 2.796875 -3.15625 L 1.171875 -3.15625 Z "/>
</symbol>
<symbol overflow="visible" id="glyph1-0">
<path style="stroke:none;" d="M 0.15625 0 L 0.15625 -3.140625 L 1.40625 -3.140625 L 1.40625 0 Z M 0.3125 -0.15625 L 1.25 -0.15625 L 1.25 -2.984375 L 0.3125 -2.984375 Z "/>
</symbol>
<symbol overflow="visible" id="glyph1-1">
<path style="stroke:none;" d="M 0.765625 -3.6875 L 3.625 -3.6875 L 3.59375 -1.71875 C 3.59375 -1.195312 3.691406 -0.769531 3.890625 -0.4375 C 3.960938 -0.3125 4.050781 -0.195312 4.15625 -0.09375 C 4.15625 -0.382812 4.144531 -0.671875 4.125 -0.953125 C 4.25 -0.941406 4.375 -0.941406 4.5 -0.953125 C 4.488281 -0.546875 4.484375 -0.132812 4.484375 0.28125 C 4.484375 0.332031 4.46875 0.375 4.4375 0.40625 C 4.394531 0.457031 4.34375 0.472656 4.28125 0.453125 C 4.257812 0.453125 4.234375 0.445312 4.203125 0.4375 C 3.910156 0.207031 3.675781 -0.078125 3.5 -0.421875 C 3.332031 -0.773438 3.253906 -1.144531 3.265625 -1.53125 L 3.28125 -2.359375 L 3.28125 -3.390625 L 1.109375 -3.390625 L 1.125 -0.875 C 1.125 -0.707031 1.109375 -0.546875 1.078125 -0.390625 C 1.484375 -0.796875 1.796875 -1.191406 2.015625 -1.578125 L 1.21875 -2.59375 L 1.515625 -2.828125 L 2.21875 -1.953125 C 2.363281 -2.273438 2.484375 -2.585938 2.578125 -2.890625 C 2.703125 -2.828125 2.832031 -2.78125 2.96875 -2.75 C 2.8125 -2.363281 2.640625 -2 2.453125 -1.65625 L 3.1875 -0.65625 L 2.890625 -0.4375 L 2.25 -1.296875 C 1.914062 -0.753906 1.550781 -0.289062 1.15625 0.09375 C 1.101562 0.0195312 1.046875 -0.0351562 0.984375 -0.078125 C 0.867188 0.203125 0.6875 0.425781 0.4375 0.59375 C 0.375 0.46875 0.273438 0.378906 0.140625 0.328125 C 0.566406 0.140625 0.78125 -0.257812 0.78125 -0.875 Z "/>
</symbol>
<symbol overflow="visible" id="glyph1-2">
<path style="stroke:none;" d="M 4.46875 0.125 C 4.457031 0.21875 4.457031 0.304688 4.46875 0.390625 C 4.300781 0.378906 4.140625 0.375 3.984375 0.375 L 1.859375 0.375 C 1.703125 0.375 1.539062 0.378906 1.375 0.390625 C 1.382812 0.304688 1.382812 0.21875 1.375 0.125 C 1.539062 0.132812 1.703125 0.140625 1.859375 0.140625 L 2.90625 0.140625 C 3.09375 -0.117188 3.253906 -0.382812 3.390625 -0.65625 C 3.523438 -0.9375 3.660156 -1.285156 3.796875 -1.703125 C 3.910156 -1.648438 4.023438 -1.613281 4.140625 -1.59375 C 3.984375 -1.03125 3.703125 -0.453125 3.296875 0.140625 L 3.984375 0.140625 C 4.140625 0.140625 4.300781 0.132812 4.46875 0.125 Z M 2.90625 -0.34375 C 2.800781 -0.78125 2.640625 -1.191406 2.421875 -1.578125 L 2.71875 -1.75 C 2.957031 -1.332031 3.132812 -0.894531 3.25 -0.4375 Z M 2.203125 -0.15625 C 2.109375 -0.5625 1.957031 -0.945312 1.75 -1.3125 L 2.046875 -1.484375 C 2.273438 -1.097656 2.441406 -0.6875 2.546875 -0.25 Z M 3.703125 -2.078125 C 3.691406 -1.992188 3.691406 -1.90625 3.703125 -1.8125 C 3.546875 -1.820312 3.382812 -1.828125 3.21875 -1.828125 L 2.40625 -1.828125 C 2.25 -1.828125 2.085938 -1.820312 1.921875 -1.8125 C 1.929688 -1.90625 1.929688 -1.992188 1.921875 -2.078125 C 2.085938 -2.066406 2.25 -2.0625 2.40625 -2.0625 L 3.21875 -2.0625 C 3.382812 -2.0625 3.546875 -2.066406 3.703125 -2.078125 Z M 2.703125 -3.8125 C 2.804688 -3.75 2.925781 -3.703125 3.0625 -3.671875 L 2.953125 -3.46875 C 3.109375 -3.15625 3.3125 -2.890625 3.5625 -2.671875 C 3.820312 -2.460938 4.144531 -2.289062 4.53125 -2.15625 C 4.425781 -2.09375 4.351562 -2 4.3125 -1.875 C 4.03125 -1.976562 3.75 -2.144531 3.46875 -2.375 C 3.195312 -2.601562 2.972656 -2.867188 2.796875 -3.171875 C 2.453125 -2.597656 2.054688 -2.160156 1.609375 -1.859375 C 1.546875 -1.972656 1.457031 -2.0625 1.34375 -2.125 C 1.832031 -2.4375 2.175781 -2.769531 2.375 -3.125 C 2.507812 -3.34375 2.617188 -3.570312 2.703125 -3.8125 Z M 0.59375 0.625 C 0.476562 0.613281 0.363281 0.613281 0.25 0.625 C 0.257812 0.414062 0.265625 0.203125 0.265625 -0.015625 L 0.265625 -3.640625 L 1.65625 -3.640625 L 1.65625 -3.40625 C 1.601562 -3.351562 1.5625 -3.289062 1.53125 -3.21875 L 1.09375 -2.390625 C 1.4375 -1.929688 1.609375 -1.421875 1.609375 -0.859375 C 1.585938 -0.484375 1.4375 -0.238281 1.15625 -0.125 L 1.03125 -0.0625 C 0.976562 -0.164062 0.914062 -0.265625 0.84375 -0.359375 C 0.914062 -0.378906 0.988281 -0.410156 1.0625 -0.453125 C 1.21875 -0.515625 1.304688 -0.648438 1.328125 -0.859375 C 1.328125 -1.140625 1.273438 -1.414062 1.171875 -1.6875 C 1.078125 -1.96875 0.941406 -2.21875 0.765625 -2.4375 L 1.265625 -3.40625 L 0.578125 -3.40625 L 0.578125 -0.015625 C 0.578125 0.203125 0.582031 0.414062 0.59375 0.625 Z "/>
</symbol>
<symbol overflow="visible" id="glyph1-3">
<path style="stroke:none;" d="M 1.5 -1.78125 L 3.578125 -1.78125 L 3.578125 -0.90625 L 1.515625 -0.90625 L 1.515625 -0.546875 C 1.609375 -0.546875 1.703125 -0.546875 1.796875 -0.546875 L 3.75 -0.546875 L 3.75 0.5 L 3.453125 0.5 L 3.453125 0.3125 L 1.515625 0.3125 C 1.523438 0.40625 1.53125 0.492188 1.53125 0.578125 C 1.414062 0.566406 1.304688 0.566406 1.203125 0.578125 C 1.210938 0.378906 1.21875 0.175781 1.21875 -0.03125 L 1.203125 -1.78125 L 1.5 -1.796875 Z M 0.671875 -1.625 L 0.375 -1.625 L 0.375 -2.328125 L 2.3125 -2.328125 L 1.90625 -2.65625 L 2.109375 -2.90625 L 2.625 -2.515625 L 2.46875 -2.328125 L 4.40625 -2.328125 L 4.40625 -1.625 L 4.109375 -1.625 L 4.109375 -2.125 L 0.671875 -2.125 Z M 3.453125 0.125 L 3.453125 -0.359375 L 1.515625 -0.359375 L 1.515625 0.125 Z M 3.28125 -1.59375 L 1.515625 -1.59375 C 1.515625 -1.4375 1.515625 -1.269531 1.515625 -1.09375 L 3.28125 -1.09375 Z M 3.875 -2.5 C 3.644531 -2.726562 3.398438 -2.941406 3.140625 -3.140625 L 3.21875 -3.234375 L 2.890625 -3.234375 C 2.773438 -3.003906 2.640625 -2.804688 2.484375 -2.640625 C 2.421875 -2.710938 2.335938 -2.757812 2.234375 -2.78125 C 2.492188 -3.03125 2.65625 -3.363281 2.71875 -3.78125 C 2.8125 -3.75 2.914062 -3.734375 3.03125 -3.734375 C 3.019531 -3.617188 3 -3.507812 2.96875 -3.40625 L 4.0625 -3.40625 C 4.195312 -3.40625 4.328125 -3.410156 4.453125 -3.421875 C 4.441406 -3.347656 4.441406 -3.28125 4.453125 -3.21875 C 4.328125 -3.226562 4.195312 -3.234375 4.0625 -3.234375 L 3.53125 -3.234375 L 3.734375 -3.0625 C 3.859375 -2.945312 3.984375 -2.828125 4.109375 -2.703125 Z M 0.90625 -3.703125 C 1.007812 -3.671875 1.117188 -3.648438 1.234375 -3.640625 C 1.210938 -3.546875 1.1875 -3.457031 1.15625 -3.375 L 1.9375 -3.375 C 2.0625 -3.375 2.1875 -3.375 2.3125 -3.375 C 2.3125 -3.3125 2.3125 -3.25 2.3125 -3.1875 C 2.1875 -3.195312 2.0625 -3.203125 1.9375 -3.203125 L 1.59375 -3.203125 L 1.875 -2.875 L 1.609375 -2.6875 L 1.265625 -3.109375 L 1.375 -3.203125 L 1.0625 -3.203125 C 0.96875 -3.023438 0.847656 -2.875 0.703125 -2.75 C 0.566406 -2.632812 0.429688 -2.546875 0.296875 -2.484375 C 0.265625 -2.578125 0.207031 -2.648438 0.125 -2.703125 C 0.539062 -2.898438 0.800781 -3.234375 0.90625 -3.703125 Z "/>
</symbol>
<symbol overflow="visible" id="glyph1-4">
<path style="stroke:none;" d="M 4.546875 0.1875 C 4.535156 0.257812 4.535156 0.335938 4.546875 0.421875 C 4.398438 0.421875 4.25 0.421875 4.09375 0.421875 L 1.765625 0.421875 C 1.617188 0.421875 1.472656 0.421875 1.328125 0.421875 C 1.335938 0.335938 1.335938 0.257812 1.328125 0.1875 C 1.472656 0.1875 1.617188 0.1875 1.765625 0.1875 L 2.84375 0.1875 L 2.84375 -0.703125 L 2.21875 -0.703125 C 2.070312 -0.703125 1.921875 -0.695312 1.765625 -0.6875 C 1.773438 -0.769531 1.773438 -0.847656 1.765625 -0.921875 C 1.921875 -0.921875 2.070312 -0.921875 2.21875 -0.921875 L 2.84375 -0.921875 L 2.84375 -1.59375 L 2.109375 -1.59375 C 2.109375 -1.53125 2.109375 -1.46875 2.109375 -1.40625 C 1.992188 -1.414062 1.882812 -1.414062 1.78125 -1.40625 C 1.78125 -1.613281 1.78125 -1.828125 1.78125 -2.046875 L 1.78125 -3.765625 L 4.25 -3.765625 L 4.25 -1.34375 L 3.9375 -1.34375 L 3.9375 -1.59375 L 3.15625 -1.59375 L 3.15625 -0.921875 L 3.796875 -0.921875 C 3.941406 -0.921875 4.09375 -0.921875 4.25 -0.921875 C 4.238281 -0.847656 4.238281 -0.769531 4.25 -0.6875 C 4.09375 -0.695312 3.941406 -0.703125 3.796875 -0.703125 L 3.15625 -0.703125 L 3.15625 0.1875 L 4.09375 0.1875 C 4.25 0.1875 4.398438 0.1875 4.546875 0.1875 Z M 3.15625 -1.796875 L 3.9375 -1.796875 L 3.9375 -2.59375 L 3.15625 -2.59375 Z M 2.84375 -1.796875 L 2.84375 -2.59375 L 2.09375 -2.59375 L 2.109375 -1.796875 Z M 3.15625 -2.796875 L 3.9375 -2.796875 L 3.9375 -3.546875 L 3.15625 -3.546875 Z M 2.84375 -2.796875 L 2.84375 -3.546875 L 2.09375 -3.546875 L 2.09375 -2.796875 Z M 0 -0.421875 C 0.207031 -0.453125 0.410156 -0.492188 0.609375 -0.546875 L 0.609375 -1.90625 L 0.078125 -1.90625 C 0.0859375 -1.976562 0.0859375 -2.054688 0.078125 -2.140625 L 0.609375 -2.125 L 0.609375 -3.296875 L 0.375 -3.296875 C 0.257812 -3.296875 0.140625 -3.289062 0.015625 -3.28125 C 0.0234375 -3.363281 0.0234375 -3.441406 0.015625 -3.515625 C 0.140625 -3.515625 0.257812 -3.515625 0.375 -3.515625 L 1.046875 -3.515625 C 1.160156 -3.515625 1.28125 -3.515625 1.40625 -3.515625 C 1.394531 -3.441406 1.394531 -3.363281 1.40625 -3.28125 C 1.28125 -3.289062 1.160156 -3.296875 1.046875 -3.296875 L 0.859375 -3.296875 L 0.859375 -2.125 L 1.328125 -2.140625 C 1.328125 -2.054688 1.328125 -1.976562 1.328125 -1.90625 L 0.859375 -1.90625 L 0.859375 -0.640625 C 1.015625 -0.691406 1.195312 -0.757812 1.40625 -0.84375 L 1.421875 -0.65625 C 1.015625 -0.488281 0.726562 -0.363281 0.5625 -0.28125 C 0.394531 -0.207031 0.242188 -0.132812 0.109375 -0.0625 C 0.0976562 -0.207031 0.0625 -0.328125 0 -0.421875 Z "/>
</symbol>
<symbol overflow="visible" id="glyph1-5">
<path style="stroke:none;" d="M 0.953125 -0.78125 C 0.984375 -1.21875 0.984375 -1.65625 0.953125 -2.09375 L 3.578125 -2.09375 C 3.535156 -1.65625 3.535156 -1.21875 3.578125 -0.78125 Z M 4.515625 -2.609375 C 4.515625 -2.535156 4.515625 -2.457031 4.515625 -2.375 C 4.378906 -2.382812 4.238281 -2.390625 4.09375 -2.390625 L 2.78125 -2.390625 L 2.75 -2.359375 C 2.738281 -2.367188 2.726562 -2.378906 2.71875 -2.390625 L 0.5 -2.390625 C 0.363281 -2.390625 0.226562 -2.382812 0.09375 -2.375 C 0.09375 -2.457031 0.09375 -2.535156 0.09375 -2.609375 C 0.226562 -2.609375 0.363281 -2.609375 0.5 -2.609375 L 1.625 -2.609375 L 1.1875 -3.140625 L 1.390625 -3.3125 L 1.046875 -3.3125 C 0.910156 -3.3125 0.769531 -3.304688 0.625 -3.296875 C 0.632812 -3.378906 0.632812 -3.457031 0.625 -3.53125 C 0.769531 -3.519531 0.910156 -3.515625 1.046875 -3.515625 L 2.046875 -3.515625 L 1.84375 -3.65625 L 2.03125 -3.9375 L 2.453125 -3.625 L 2.375 -3.515625 L 3.515625 -3.515625 C 3.648438 -3.515625 3.789062 -3.519531 3.9375 -3.53125 C 3.925781 -3.457031 3.925781 -3.378906 3.9375 -3.296875 L 3.390625 -3.3125 C 3.316406 -3.082031 3.175781 -2.847656 2.96875 -2.609375 L 4.09375 -2.609375 C 4.238281 -2.609375 4.378906 -2.609375 4.515625 -2.609375 Z M 1.25 -1.875 L 1.25 -1.515625 L 3.265625 -1.515625 L 3.265625 -1.875 Z M 1.25 -1.328125 L 1.25 -0.984375 L 3.265625 -0.984375 L 3.265625 -1.328125 Z M 2.5625 -2.609375 C 2.726562 -2.785156 2.890625 -3.019531 3.046875 -3.3125 L 1.484375 -3.3125 L 1.96875 -2.71875 L 1.828125 -2.609375 Z M 4.28125 0.453125 C 4.09375 0.265625 3.890625 0.0859375 3.671875 -0.078125 L 3.953125 -0.234375 C 4.179688 -0.0546875 4.390625 0.132812 4.578125 0.34375 Z M 2.578125 0.0625 C 2.429688 -0.125 2.25 -0.285156 2.03125 -0.421875 L 2.296875 -0.59375 C 2.535156 -0.4375 2.738281 -0.253906 2.90625 -0.046875 Z M 3.5 -0.015625 C 3.59375 0.0234375 3.695312 0.0507812 3.8125 0.0625 L 3.6875 0.46875 C 3.675781 0.519531 3.648438 0.5625 3.609375 0.59375 C 3.566406 0.625 3.515625 0.640625 3.453125 0.640625 L 1.703125 0.640625 C 1.554688 0.640625 1.4375 0.609375 1.34375 0.546875 C 1.257812 0.492188 1.21875 0.421875 1.21875 0.328125 L 1.21875 -0.046875 C 1.21875 -0.191406 1.207031 -0.335938 1.1875 -0.484375 C 1.3125 -0.472656 1.4375 -0.472656 1.5625 -0.484375 C 1.550781 -0.335938 1.546875 -0.191406 1.546875 -0.046875 L 1.546875 0.328125 C 1.546875 0.359375 1.554688 0.382812 1.578125 0.40625 C 1.609375 0.4375 1.648438 0.453125 1.703125 0.453125 L 3.21875 0.453125 C 3.269531 0.453125 3.3125 0.4375 3.34375 0.40625 C 3.382812 0.382812 3.410156 0.351562 3.421875 0.3125 Z M -0.046875 0.4375 C 0.160156 0.207031 0.34375 -0.0351562 0.5 -0.296875 L 0.84375 -0.203125 C 0.664062 0.0546875 0.472656 0.3125 0.265625 0.5625 Z "/>
</symbol>
<symbol overflow="visible" id="glyph1-6">
<path style="stroke:none;" d="M 2.40625 -2.8125 C 2.21875 -3.132812 2.007812 -3.445312 1.78125 -3.75 L 2.09375 -3.984375 C 2.332031 -3.671875 2.550781 -3.34375 2.75 -3 Z M 4.5 0.234375 C 4.394531 0.316406 4.328125 0.425781 4.296875 0.5625 C 3.617188 0.414062 3.007812 0.0859375 2.46875 -0.421875 C 1.84375 0.191406 1.109375 0.582031 0.265625 0.75 C 0.265625 0.601562 0.21875 0.472656 0.125 0.359375 C 0.976562 0.179688 1.679688 -0.15625 2.234375 -0.65625 C 1.640625 -1.320312 1.207031 -2.125 0.9375 -3.0625 L 1.234375 -3.140625 C 1.359375 -2.734375 1.523438 -2.328125 1.734375 -1.921875 C 1.941406 -1.515625 2.179688 -1.171875 2.453125 -0.890625 C 2.585938 -1.035156 2.707031 -1.210938 2.8125 -1.421875 C 2.925781 -1.628906 3.046875 -1.9375 3.171875 -2.34375 C 3.304688 -2.75 3.390625 -3.082031 3.421875 -3.34375 C 3.566406 -3.320312 3.710938 -3.3125 3.859375 -3.3125 C 3.804688 -2.820312 3.675781 -2.347656 3.46875 -1.890625 C 3.269531 -1.441406 3.007812 -1.03125 2.6875 -0.65625 C 3.195312 -0.207031 3.800781 0.0859375 4.5 0.234375 Z "/>
</symbol>
<symbol overflow="visible" id="glyph1-7">
<path style="stroke:none;" d="M 2.625 -1.859375 L 2.09375 -1.859375 L 2.09375 -2.390625 L 2.625 -2.390625 Z M 2.625 0 L 2.09375 0 L 2.09375 -0.53125 L 2.625 -0.53125 Z "/>
</symbol>
<symbol overflow="visible" id="glyph1-8">
<path style="stroke:none;" d="M 2.546875 -0.09375 C 2.546875 0.125 2.546875 0.34375 2.546875 0.5625 C 2.429688 0.550781 2.3125 0.550781 2.1875 0.5625 C 2.195312 0.34375 2.203125 0.125 2.203125 -0.09375 L 2.203125 -1.28125 C 1.671875 -0.5 1.039062 0.0625 0.3125 0.40625 C 0.269531 0.28125 0.191406 0.175781 0.078125 0.09375 C 0.898438 -0.257812 1.53125 -0.804688 1.96875 -1.546875 L 0.71875 -1.546875 C 0.539062 -1.546875 0.367188 -1.539062 0.203125 -1.53125 C 0.210938 -1.625 0.210938 -1.71875 0.203125 -1.8125 C 0.367188 -1.800781 0.539062 -1.796875 0.71875 -1.796875 L 2.203125 -1.796875 L 2.203125 -2.875 L 1.28125 -2.875 C 1.488281 -2.613281 1.675781 -2.34375 1.84375 -2.0625 L 1.53125 -1.875 C 1.375 -2.144531 1.195312 -2.398438 1 -2.640625 L 1.28125 -2.875 L 1 -2.875 C 0.832031 -2.875 0.660156 -2.867188 0.484375 -2.859375 C 0.492188 -2.953125 0.492188 -3.046875 0.484375 -3.140625 C 0.660156 -3.128906 0.832031 -3.125 1 -3.125 L 2.203125 -3.125 L 2.203125 -3.21875 C 2.203125 -3.4375 2.195312 -3.65625 2.1875 -3.875 C 2.3125 -3.863281 2.429688 -3.863281 2.546875 -3.875 C 2.546875 -3.65625 2.546875 -3.4375 2.546875 -3.21875 L 2.546875 -3.125 L 3.71875 -3.125 C 3.894531 -3.125 4.066406 -3.128906 4.234375 -3.140625 C 4.222656 -3.046875 4.222656 -2.953125 4.234375 -2.859375 C 4.066406 -2.867188 3.894531 -2.875 3.71875 -2.875 L 2.546875 -2.875 L 2.546875 -1.796875 L 2.890625 -1.796875 C 2.828125 -1.859375 2.757812 -1.90625 2.6875 -1.9375 C 2.8125 -2.039062 2.914062 -2.15625 3 -2.28125 C 3.082031 -2.40625 3.171875 -2.570312 3.265625 -2.78125 C 3.367188 -2.726562 3.476562 -2.6875 3.59375 -2.65625 C 3.5 -2.363281 3.304688 -2.078125 3.015625 -1.796875 L 4.015625 -1.796875 C 4.179688 -1.796875 4.351562 -1.800781 4.53125 -1.8125 C 4.507812 -1.71875 4.507812 -1.625 4.53125 -1.53125 C 4.351562 -1.539062 4.179688 -1.546875 4.015625 -1.546875 L 2.78125 -1.546875 C 2.988281 -1.179688 3.222656 -0.882812 3.484375 -0.65625 C 3.742188 -0.425781 4.078125 -0.238281 4.484375 -0.09375 C 4.367188 -0.0195312 4.289062 0.0703125 4.25 0.1875 C 3.882812 0.0507812 3.554688 -0.15625 3.265625 -0.4375 C 2.984375 -0.71875 2.742188 -1.023438 2.546875 -1.359375 Z "/>
</symbol>
<symbol overflow="visible" id="glyph1-9">
<path style="stroke:none;" d="M 1 0.5625 C 0.875 0.550781 0.753906 0.550781 0.640625 0.5625 C 0.648438 0.34375 0.65625 0.125 0.65625 -0.09375 L 0.65625 -3 L 1.46875 -3 C 1.613281 -3.125 1.769531 -3.300781 1.9375 -3.53125 L 2.1875 -3.84375 C 2.269531 -3.757812 2.363281 -3.6875 2.46875 -3.625 C 2.34375 -3.425781 2.164062 -3.21875 1.9375 -3 L 3.921875 -3 L 3.921875 0.5625 L 3.59375 0.5625 L 3.59375 0.171875 L 0.984375 0.171875 C 0.984375 0.304688 0.988281 0.4375 1 0.5625 Z M 3.59375 -2.015625 L 3.59375 -2.734375 L 1.671875 -2.734375 L 1.65625 -2.71875 L 1.640625 -2.734375 L 0.984375 -2.734375 L 0.984375 -2.015625 Z M 3.59375 -1.0625 L 3.59375 -1.765625 L 0.984375 -1.765625 L 0.984375 -1.0625 Z M 3.59375 -0.796875 L 0.984375 -0.796875 L 0.984375 -0.078125 L 3.59375 -0.078125 Z "/>
</symbol>
<symbol overflow="visible" id="glyph1-10">
<path style="stroke:none;" d="M 0.671875 0.53125 C 0.554688 0.519531 0.4375 0.519531 0.3125 0.53125 C 0.320312 0.300781 0.328125 0.0703125 0.328125 -0.15625 L 0.328125 -2.03125 L 1.421875 -2.03125 L 1.421875 -3.765625 L 3.203125 -3.765625 L 3.203125 -2.03125 L 4.28125 -2.03125 L 4.28125 -0.125 C 4.28125 0.101562 4.285156 0.332031 4.296875 0.5625 C 4.171875 0.550781 4.046875 0.550781 3.921875 0.5625 C 3.929688 0.4375 3.9375 0.304688 3.9375 0.171875 L 0.65625 0.171875 C 0.664062 0.285156 0.671875 0.40625 0.671875 0.53125 Z M 1.421875 -1.75 L 0.65625 -1.75 L 0.65625 -0.109375 L 3.9375 -0.109375 L 3.9375 -1.765625 L 2.859375 -1.765625 L 2.859375 -3.484375 L 1.765625 -3.484375 L 1.765625 -2.375 C 1.765625 -2.144531 1.769531 -1.914062 1.78125 -1.6875 C 1.65625 -1.695312 1.535156 -1.695312 1.421875 -1.6875 C 1.421875 -1.707031 1.421875 -1.726562 1.421875 -1.75 Z "/>
</symbol>
<symbol overflow="visible" id="glyph1-11">
<path style="stroke:none;" d="M 4.546875 0.09375 C 4.535156 0.1875 4.535156 0.28125 4.546875 0.375 C 4.378906 0.363281 4.210938 0.359375 4.046875 0.359375 L 2.125 0.359375 C 1.957031 0.359375 1.796875 0.363281 1.640625 0.375 C 1.648438 0.28125 1.648438 0.1875 1.640625 0.09375 C 1.796875 0.101562 1.957031 0.109375 2.125 0.109375 L 2.875 0.109375 L 2.875 -1.078125 L 2.453125 -1.078125 C 2.285156 -1.078125 2.117188 -1.070312 1.953125 -1.0625 C 1.960938 -1.15625 1.960938 -1.25 1.953125 -1.34375 C 2.117188 -1.332031 2.285156 -1.328125 2.453125 -1.328125 L 2.875 -1.328125 L 2.875 -2.421875 L 2.140625 -2.421875 C 1.972656 -1.941406 1.8125 -1.550781 1.65625 -1.25 C 1.539062 -1.320312 1.414062 -1.359375 1.28125 -1.359375 C 1.53125 -1.816406 1.707031 -2.1875 1.8125 -2.46875 C 1.925781 -2.757812 2.023438 -3.09375 2.109375 -3.46875 C 2.234375 -3.425781 2.363281 -3.394531 2.5 -3.375 L 2.234375 -2.671875 L 2.875 -2.671875 L 2.875 -3.171875 C 2.875 -3.390625 2.867188 -3.609375 2.859375 -3.828125 C 2.972656 -3.816406 3.09375 -3.816406 3.21875 -3.828125 C 3.207031 -3.609375 3.203125 -3.390625 3.203125 -3.171875 L 3.203125 -2.671875 L 3.890625 -2.671875 C 4.054688 -2.671875 4.222656 -2.671875 4.390625 -2.671875 C 4.378906 -2.585938 4.378906 -2.5 4.390625 -2.40625 C 4.222656 -2.414062 4.054688 -2.421875 3.890625 -2.421875 L 3.203125 -2.421875 L 3.203125 -1.328125 L 3.75 -1.328125 C 3.914062 -1.328125 4.082031 -1.332031 4.25 -1.34375 C 4.238281 -1.25 4.238281 -1.15625 4.25 -1.0625 C 4.082031 -1.070312 3.914062 -1.078125 3.75 -1.078125 L 3.203125 -1.078125 L 3.203125 0.109375 L 4.046875 0.109375 C 4.210938 0.109375 4.378906 0.101562 4.546875 0.09375 Z M 0.9375 -0.015625 C 0.9375 0.203125 0.941406 0.414062 0.953125 0.625 C 0.835938 0.613281 0.722656 0.613281 0.609375 0.625 C 0.617188 0.414062 0.625 0.203125 0.625 -0.015625 L 0.625 -3.1875 C 0.625 -3.394531 0.617188 -3.601562 0.609375 -3.8125 C 0.722656 -3.800781 0.835938 -3.800781 0.953125 -3.8125 C 0.941406 -3.601562 0.9375 -3.394531 0.9375 -3.1875 L 0.9375 -2.796875 L 1.0625 -2.890625 L 1.5625 -2.203125 L 1.296875 -2 L 0.9375 -2.484375 Z M -0.125 -1.75 C 0 -2.0625 0.109375 -2.390625 0.203125 -2.734375 L 0.515625 -2.640625 C 0.421875 -2.285156 0.3125 -1.945312 0.1875 -1.625 Z "/>
</symbol>
</g>
</defs>
<g id="surface82">
<g style="fill:rgb(100%,100%,100%);fill-opacity:1;">
  <use xlink:href="#glyph0-1" x="30" y="24.547852"/>
  <use xlink:href="#glyph0-2" x="33" y="24.547852"/>
  <use xlink:href="#glyph0-3" x="35" y="24.547852"/>
</g>
<g style="fill:rgb(100%,100%,100%);fill-opacity:1;">
  <use xlink:href="#glyph1-1" x="37" y="24.547852"/>
  <use xlink:href="#glyph1-2" x="42" y="24.547852"/>
  <use xlink:href="#glyph1-3" x="47" y="24.547852"/>
  <use xlink:href="#glyph1-4" x="52" y="24.547852"/>
  <use xlink:href="#glyph1-5" x="57" y="24.547852"/>
  <use xlink:href="#glyph1-6" x="62" y="24.547852"/>
  <use xlink:href="#glyph1-7" x="67" y="24.547852"/>
</g>
<g style="fill:rgb(100%,100%,100%);fill-opacity:1;">
  <use xlink:href="#glyph0-4" x="72" y="24.547852"/>
</g>
<g style="fill:rgb(100%,100%,100%);fill-opacity:1;">
  <use xlink:href="#glyph1-1" x="75" y="24.547852"/>
  <use xlink:href="#glyph1-2" x="80" y="24.547852"/>
  <use xlink:href="#glyph1-8" x="85" y="24.547852"/>
  <use xlink:href="#glyph1-9" x="90" y="24.547852"/>
  <use xlink:href="#glyph1-10" x="95" y="24.547852"/>
  <use xlink:href="#glyph1-11" x="100" y="24.547852"/>
</g>
</g>
</svg>
