<?xml version="1.0" encoding="UTF-8"?>
<svg xmlns="http://www.w3.org/2000/svg" xmlns:xlink="http://www.w3.org/1999/xlink" width="1280pt" height="720pt" viewBox="0 0 1280 720" version="1.1">
<defs>
<g>
<symbol overflow="visible" id="glyph0-0">
<path style="stroke:none;" d="M 0.296875 1.078125 L 0.296875 -4.3125 L 3.359375 -4.3125 L 3.359375 1.078125 Z M 0.640625 0.734375 L 3.015625 0.734375 L 3.015625 -3.96875 L 0.640625 -3.96875 Z "/>
</symbol>
<symbol overflow="visible" id="glyph0-1">
<path style="stroke:none;" d="M 0.34375 -2.21875 L 4.1875 -2.21875 L 3.609375 -3.21875 L 3.640625 -3.21875 L 4.890625 -1.984375 L 4.890625 -1.953125 L 3.640625 -0.734375 L 3.609375 -0.734375 L 4.1875 -1.734375 L 0.34375 -1.734375 Z "/>
</symbol>
<symbol overflow="visible" id="glyph0-2">
<path style="stroke:none;" d=""/>
</symbol>
<symbol overflow="visible" id="glyph0-3">
<path style="stroke:none;" d="M 1.9375 -0.203125 C 2.238281 -0.203125 2.46875 -0.367188 2.625 -0.703125 C 2.78125 -1.046875 2.859375 -1.550781 2.859375 -2.21875 C 2.859375 -2.894531 2.78125 -3.398438 2.625 -3.734375 C 2.46875 -4.066406 2.238281 -4.234375 1.9375 -4.234375 C 1.632812 -4.234375 1.40625 -4.066406 1.25 -3.734375 C 1.101562 -3.398438 1.03125 -2.894531 1.03125 -2.21875 C 1.03125 -1.550781 1.101562 -1.046875 1.25 -0.703125 C 1.40625 -0.367188 1.632812 -0.203125 1.9375 -0.203125 Z M 1.9375 0.09375 C 1.457031 0.09375 1.082031 -0.109375 0.8125 -0.515625 C 0.539062 -0.921875 0.40625 -1.488281 0.40625 -2.21875 C 0.40625 -2.945312 0.539062 -3.515625 0.8125 -3.921875 C 1.082031 -4.328125 1.457031 -4.53125 1.9375 -4.53125 C 2.425781 -4.53125 2.804688 -4.328125 3.078125 -3.921875 C 3.347656 -3.515625 3.484375 -2.945312 3.484375 -2.21875 C 3.484375 -1.488281 3.347656 -0.921875 3.078125 -0.515625 C 2.804688 -0.109375 2.425781 0.09375 1.9375 0.09375 Z "/>
</symbol>
</g>
</defs>
<g id="surface37">
<g style="fill:rgb(41.176471%,61.176471%,32.156863%);fill-opacity:1;">
  <use xlink:href="#glyph0-1" x="30" y="25.671875"/>
  <use xlink:href="#glyph0-2" x="35" y="25.671875"/>
  <use xlink:href="#glyph0-3" x="37" y="25.671875"/>
</g>
</g>
</svg>
