<?xml version="1.0" encoding="UTF-8"?>
<svg xmlns="http://www.w3.org/2000/svg" xmlns:xlink="http://www.w3.org/1999/xlink" width="1280pt" height="720pt" viewBox="0 0 1280 720" version="1.1">
<defs>
<g>
<symbol overflow="visible" id="glyph0-0">
<path style="stroke:none;" d="M 0.359375 1.296875 L 0.359375 -5.171875 L 4.03125 -5.171875 L 4.03125 1.296875 Z M 0.78125 0.890625 L 3.625 0.890625 L 3.625 -4.75 L 0.78125 -4.75 Z "/>
</symbol>
<symbol overflow="visible" id="glyph0-1">
<path style="stroke:none;" d="M 0.40625 0 L 0.40625 -0.375 L 1.078125 -0.375 L 1.078125 -4.953125 L 0.40625 -4.953125 L 0.40625 -5.34375 L 4.78125 -5.34375 L 4.78125 -4.15625 L 4.34375 -4.15625 L 4.34375 -4.90625 L 1.8125 -4.90625 L 1.8125 -3.109375 L 3.640625 -3.109375 L 3.640625 -3.78125 L 4.078125 -3.78125 L 4.078125 -2 L 3.640625 -2 L 3.640625 -2.671875 L 1.8125 -2.671875 L 1.8125 -0.375 L 2.671875 -0.375 L 2.671875 0 Z "/>
</symbol>
<symbol overflow="visible" id="glyph0-2">
<path style="stroke:none;" d="M 2.34375 1.140625 C 1.757812 0.878906 1.316406 0.46875 1.015625 -0.09375 C 0.722656 -0.65625 0.578125 -1.363281 0.578125 -2.21875 C 0.578125 -3.0625 0.722656 -3.765625 1.015625 -4.328125 C 1.316406 -4.890625 1.757812 -5.300781 2.34375 -5.5625 L 2.34375 -5.21875 C 1.96875 -4.96875 1.703125 -4.609375 1.546875 -4.140625 C 1.390625 -3.679688 1.3125 -3.039062 1.3125 -2.21875 C 1.3125 -1.382812 1.390625 -0.738281 1.546875 -0.28125 C 1.703125 0.175781 1.96875 0.535156 2.34375 0.796875 Z "/>
</symbol>
<symbol overflow="visible" id="glyph0-3">
<path style="stroke:none;" d="M 0.796875 -3.421875 L 0.21875 -3.421875 L 0.21875 -3.796875 L 0.796875 -3.796875 L 0.796875 -4.984375 L 1.453125 -4.984375 L 1.453125 -3.796875 L 2.6875 -3.796875 L 2.6875 -3.421875 L 1.453125 -3.421875 L 1.453125 -1 C 1.453125 -0.675781 1.484375 -0.46875 1.546875 -0.375 C 1.609375 -0.289062 1.722656 -0.25 1.890625 -0.25 C 2.054688 -0.25 2.179688 -0.296875 2.265625 -0.390625 C 2.347656 -0.492188 2.390625 -0.660156 2.390625 -0.890625 L 2.890625 -0.890625 C 2.867188 -0.546875 2.769531 -0.289062 2.59375 -0.125 C 2.425781 0.03125 2.171875 0.109375 1.828125 0.109375 C 1.453125 0.109375 1.1875 0.0234375 1.03125 -0.140625 C 0.875 -0.316406 0.796875 -0.601562 0.796875 -1 Z "/>
</symbol>
<symbol overflow="visible" id="glyph0-4">
<path style="stroke:none;" d="M 0.515625 1.140625 L 0.515625 0.796875 C 0.878906 0.535156 1.140625 0.175781 1.296875 -0.28125 C 1.460938 -0.738281 1.546875 -1.382812 1.546875 -2.21875 C 1.546875 -3.039062 1.460938 -3.679688 1.296875 -4.140625 C 1.140625 -4.609375 0.878906 -4.96875 0.515625 -5.21875 L 0.515625 -5.5625 C 1.097656 -5.300781 1.535156 -4.890625 1.828125 -4.328125 C 2.128906 -3.765625 2.28125 -3.0625 2.28125 -2.21875 C 2.28125 -1.363281 2.128906 -0.65625 1.828125 -0.09375 C 1.535156 0.46875 1.097656 0.878906 0.515625 1.140625 Z "/>
</symbol>
<symbol overflow="visible" id="glyph0-5">
<path style="stroke:none;" d=""/>
</symbol>
<symbol overflow="visible" id="glyph1-0">
<path style="stroke:none;" d="M 0.25 0 L 0.25 -4.875 L 2.1875 -4.875 L 2.1875 0 Z M 0.484375 -0.25 L 1.953125 -0.25 L 1.953125 -4.640625 L 0.484375 -4.640625 Z "/>
</symbol>
<symbol overflow="visible" id="glyph1-1">
<path style="stroke:none;" d="M 6.265625 -0.109375 L 6.265625 -1.671875 L 5 -1.671875 C 4.925781 -0.554688 4.519531 0.285156 3.78125 0.859375 C 3.664062 0.679688 3.515625 0.578125 3.328125 0.546875 C 4.128906 0.0664062 4.53125 -0.796875 4.53125 -2.046875 L 4.53125 -5.515625 L 6.75 -5.515625 L 6.75 0.078125 C 6.75 0.398438 6.65625 0.625 6.46875 0.75 C 6.269531 0.863281 5.953125 0.921875 5.515625 0.921875 C 5.566406 0.703125 5.515625 0.507812 5.359375 0.34375 C 5.492188 0.351562 5.65625 0.359375 5.84375 0.359375 C 6.03125 0.359375 6.144531 0.335938 6.1875 0.296875 C 6.238281 0.265625 6.265625 0.128906 6.265625 -0.109375 Z M 3.375 0.296875 C 3.125 -0.117188 2.847656 -0.515625 2.546875 -0.890625 L 2.953125 -1.21875 C 3.273438 -0.820312 3.566406 -0.410156 3.828125 0.015625 Z M 4.1875 -1.609375 C 4.175781 -1.484375 4.175781 -1.363281 4.1875 -1.25 C 3.957031 -1.257812 3.734375 -1.265625 3.515625 -1.265625 L 1.46875 -1.265625 C 1.625 -1.179688 1.789062 -1.117188 1.96875 -1.078125 C 1.75 -0.410156 1.316406 0.207031 0.671875 0.78125 C 0.578125 0.632812 0.453125 0.53125 0.296875 0.46875 C 0.578125 0.238281 0.804688 -0.0078125 0.984375 -0.28125 C 1.160156 -0.550781 1.320312 -0.878906 1.46875 -1.265625 L 0.796875 -1.265625 C 0.578125 -1.265625 0.351562 -1.257812 0.125 -1.25 C 0.144531 -1.363281 0.144531 -1.484375 0.125 -1.609375 C 0.351562 -1.597656 0.578125 -1.59375 0.796875 -1.59375 L 1.125 -1.59375 L 1.125 -4.6875 L 0.296875 -4.671875 C 0.316406 -4.796875 0.316406 -4.914062 0.296875 -5.03125 L 1.125 -5.03125 C 1.125 -5.34375 1.117188 -5.65625 1.109375 -5.96875 C 1.273438 -5.957031 1.445312 -5.957031 1.625 -5.96875 C 1.613281 -5.65625 1.609375 -5.34375 1.609375 -5.03125 L 2.96875 -5.03125 C 2.96875 -5.34375 2.960938 -5.65625 2.953125 -5.96875 C 3.128906 -5.957031 3.300781 -5.957031 3.46875 -5.96875 C 3.457031 -5.65625 3.453125 -5.34375 3.453125 -5.03125 L 4.140625 -5.03125 C 4.117188 -4.914062 4.117188 -4.796875 4.140625 -4.671875 L 3.453125 -4.6875 L 3.453125 -1.59375 Z M 6.265625 -3.734375 L 6.265625 -5.1875 L 5.015625 -5.1875 L 5.015625 -3.734375 Z M 6.265625 -1.96875 L 6.265625 -3.4375 L 5.015625 -3.4375 L 5.015625 -1.96875 Z M 2.96875 -3.953125 L 2.96875 -4.6875 L 1.609375 -4.6875 L 1.609375 -3.96875 Z M 2.96875 -2.796875 L 2.96875 -3.625 L 1.609375 -3.609375 L 1.609375 -2.8125 Z M 2.96875 -1.59375 L 2.96875 -2.46875 L 1.609375 -2.453125 L 1.609375 -1.59375 Z "/>
</symbol>
<symbol overflow="visible" id="glyph1-2">
<path style="stroke:none;" d="M 4.34375 -4.84375 C 4.9375 -5.101562 5.484375 -5.414062 5.984375 -5.78125 C 6.078125 -5.601562 6.191406 -5.4375 6.328125 -5.28125 C 5.609375 -4.875 4.945312 -4.546875 4.34375 -4.296875 L 4.34375 -3.84375 C 4.34375 -3.757812 4.367188 -3.6875 4.421875 -3.625 C 4.472656 -3.570312 4.53125 -3.546875 4.59375 -3.546875 L 6.3125 -3.546875 C 6.425781 -3.546875 6.503906 -3.65625 6.546875 -3.875 L 6.671875 -4.640625 C 6.828125 -4.554688 6.988281 -4.507812 7.15625 -4.5 L 6.96875 -3.5 C 6.914062 -3.226562 6.8125 -3.09375 6.65625 -3.09375 L 4.59375 -3.09375 C 4.375 -3.09375 4.191406 -3.160156 4.046875 -3.296875 C 3.910156 -3.429688 3.84375 -3.613281 3.84375 -3.84375 L 3.84375 -4.09375 C 3.445312 -3.945312 3.066406 -3.835938 2.703125 -3.765625 C 2.691406 -3.972656 2.613281 -4.15625 2.46875 -4.3125 C 2.976562 -4.40625 3.4375 -4.519531 3.84375 -4.65625 L 3.84375 -4.875 C 3.84375 -5.21875 3.835938 -5.5625 3.828125 -5.90625 C 4.003906 -5.882812 4.1875 -5.882812 4.375 -5.90625 Z M 2.359375 -3.09375 C 2.171875 -3.113281 1.988281 -3.113281 1.8125 -3.09375 C 1.820312 -3.4375 1.828125 -3.773438 1.828125 -4.109375 L 1.828125 -4.375 C 1.441406 -3.988281 0.988281 -3.664062 0.46875 -3.40625 C 0.414062 -3.582031 0.316406 -3.722656 0.171875 -3.828125 C 0.734375 -4.078125 1.1875 -4.410156 1.53125 -4.828125 C 1.820312 -5.179688 2.070312 -5.570312 2.28125 -6 C 2.4375 -5.90625 2.601562 -5.828125 2.78125 -5.765625 C 2.664062 -5.492188 2.515625 -5.226562 2.328125 -4.96875 L 2.328125 -4.125 C 2.328125 -3.78125 2.335938 -3.4375 2.359375 -3.09375 Z M 6.1875 1.21875 C 5.414062 0.6875 4.535156 0.273438 3.546875 -0.015625 L 3.703125 -0.53125 C 4.753906 -0.21875 5.679688 0.21875 6.484375 0.78125 Z M 3.328125 -1.796875 C 3.523438 -1.785156 3.71875 -1.789062 3.90625 -1.8125 C 3.9375 -1.238281 3.785156 -0.71875 3.453125 -0.25 C 3.273438 0 3.054688 0.21875 2.796875 0.40625 C 2.546875 0.59375 2.242188 0.785156 1.890625 0.984375 C 1.546875 1.179688 1.273438 1.285156 1.078125 1.296875 C 0.941406 1.054688 0.722656 0.894531 0.421875 0.8125 C 1.671875 0.71875 2.539062 0.28125 3.03125 -0.5 C 3.28125 -0.90625 3.378906 -1.335938 3.328125 -1.796875 Z M 1.984375 -0.03125 C 1.796875 -0.0507812 1.613281 -0.0507812 1.4375 -0.03125 C 1.457031 -0.351562 1.460938 -0.679688 1.453125 -1.015625 L 1.453125 -2.53125 L 5.75 -2.515625 L 5.75 -0.125 L 5.265625 -0.125 L 5.265625 -2.171875 L 1.953125 -2.171875 L 1.953125 -1.015625 C 1.953125 -0.679688 1.960938 -0.351562 1.984375 -0.03125 Z "/>
</symbol>
</g>
</defs>
<g id="surface122">
<g style="fill:rgb(100%,52.54902%,18.431373%);fill-opacity:1;">
  <use xlink:href="#glyph0-1" x="30" y="27.060547"/>
  <use xlink:href="#glyph0-2" x="35" y="27.060547"/>
  <use xlink:href="#glyph0-3" x="38" y="27.060547"/>
  <use xlink:href="#glyph0-4" x="41" y="27.060547"/>
  <use xlink:href="#glyph0-5" x="44" y="27.060547"/>
</g>
<g style="fill:rgb(100%,52.54902%,18.431373%);fill-opacity:1;">
  <use xlink:href="#glyph1-1" x="46" y="27.060547"/>
  <use xlink:href="#glyph1-2" x="53" y="27.060547"/>
</g>
</g>
</svg>
