<?xml version="1.0" encoding="UTF-8"?>
<svg xmlns="http://www.w3.org/2000/svg" xmlns:xlink="http://www.w3.org/1999/xlink" width="1280pt" height="720pt" viewBox="0 0 1280 720" version="1.1">
<defs>
<g>
<symbol overflow="visible" id="glyph0-0">
<path style="stroke:none;" d="M 0.28125 0.96875 L 0.28125 -3.875 L 3.03125 -3.875 L 3.03125 0.96875 Z M 0.578125 0.671875 L 2.71875 0.671875 L 2.71875 -3.5625 L 0.578125 -3.5625 Z "/>
</symbol>
<symbol overflow="visible" id="glyph0-1">
<path style="stroke:none;" d="M 3.515625 -2.8125 C 3.453125 -3.144531 3.320312 -3.390625 3.125 -3.546875 C 2.925781 -3.710938 2.648438 -3.796875 2.296875 -3.796875 C 1.835938 -3.796875 1.492188 -3.644531 1.265625 -3.34375 C 1.035156 -3.050781 0.921875 -2.601562 0.921875 -2 C 0.921875 -1.414062 1.035156 -0.96875 1.265625 -0.65625 C 1.503906 -0.351562 1.851562 -0.203125 2.3125 -0.203125 C 2.507812 -0.203125 2.703125 -0.226562 2.890625 -0.28125 C 3.078125 -0.332031 3.253906 -0.410156 3.421875 -0.515625 L 3.421875 -1.546875 L 2.65625 -1.546875 L 2.65625 -1.828125 L 3.96875 -1.828125 L 3.96875 -0.328125 C 3.726562 -0.191406 3.46875 -0.0859375 3.1875 -0.015625 C 2.914062 0.046875 2.625 0.078125 2.3125 0.078125 C 1.707031 0.078125 1.222656 -0.109375 0.859375 -0.484375 C 0.492188 -0.867188 0.3125 -1.375 0.3125 -2 C 0.3125 -2.632812 0.492188 -3.140625 0.859375 -3.515625 C 1.222656 -3.890625 1.710938 -4.078125 2.328125 -4.078125 C 2.554688 -4.078125 2.789062 -4.050781 3.03125 -4 C 3.28125 -3.945312 3.546875 -3.867188 3.828125 -3.765625 L 3.828125 -2.8125 Z "/>
</symbol>
<symbol overflow="visible" id="glyph0-2">
<path style="stroke:none;" d="M 2.984375 -1.375 L 0.84375 -1.375 L 0.84375 -1.359375 C 0.84375 -0.972656 0.914062 -0.679688 1.0625 -0.484375 C 1.207031 -0.285156 1.421875 -0.1875 1.703125 -0.1875 C 1.921875 -0.1875 2.097656 -0.242188 2.234375 -0.359375 C 2.378906 -0.472656 2.476562 -0.640625 2.53125 -0.859375 L 2.9375 -0.859375 C 2.851562 -0.546875 2.703125 -0.3125 2.484375 -0.15625 C 2.273438 0 2 0.078125 1.65625 0.078125 C 1.238281 0.078125 0.90625 -0.0546875 0.65625 -0.328125 C 0.40625 -0.609375 0.28125 -0.972656 0.28125 -1.421875 C 0.28125 -1.878906 0.398438 -2.242188 0.640625 -2.515625 C 0.890625 -2.796875 1.21875 -2.9375 1.625 -2.9375 C 2.0625 -2.9375 2.394531 -2.800781 2.625 -2.53125 C 2.851562 -2.269531 2.972656 -1.882812 2.984375 -1.375 Z M 2.390625 -1.65625 C 2.378906 -1.988281 2.3125 -2.238281 2.1875 -2.40625 C 2.0625 -2.582031 1.875 -2.671875 1.625 -2.671875 C 1.394531 -2.671875 1.210938 -2.582031 1.078125 -2.40625 C 0.953125 -2.238281 0.875 -1.988281 0.84375 -1.65625 Z "/>
</symbol>
<symbol overflow="visible" id="glyph0-3">
<path style="stroke:none;" d="M 1.65625 -0.1875 C 1.914062 -0.1875 2.113281 -0.289062 2.25 -0.5 C 2.382812 -0.707031 2.453125 -1.015625 2.453125 -1.421875 C 2.453125 -1.835938 2.382812 -2.148438 2.25 -2.359375 C 2.113281 -2.566406 1.914062 -2.671875 1.65625 -2.671875 C 1.382812 -2.671875 1.179688 -2.566406 1.046875 -2.359375 C 0.910156 -2.148438 0.84375 -1.835938 0.84375 -1.421875 C 0.84375 -1.015625 0.910156 -0.707031 1.046875 -0.5 C 1.191406 -0.289062 1.394531 -0.1875 1.65625 -0.1875 Z M 1.65625 0.078125 C 1.238281 0.078125 0.90625 -0.0546875 0.65625 -0.328125 C 0.40625 -0.609375 0.28125 -0.972656 0.28125 -1.421875 C 0.28125 -1.878906 0.40625 -2.242188 0.65625 -2.515625 C 0.90625 -2.796875 1.238281 -2.9375 1.65625 -2.9375 C 2.070312 -2.9375 2.40625 -2.796875 2.65625 -2.515625 C 2.90625 -2.242188 3.03125 -1.878906 3.03125 -1.421875 C 3.03125 -0.972656 2.90625 -0.609375 2.65625 -0.328125 C 2.40625 -0.0546875 2.070312 0.078125 1.65625 0.078125 Z "/>
</symbol>
<symbol overflow="visible" id="glyph0-4">
<path style="stroke:none;" d="M 2.84375 -2.296875 C 2.9375 -2.503906 3.054688 -2.660156 3.203125 -2.765625 C 3.359375 -2.878906 3.535156 -2.9375 3.734375 -2.9375 C 4.023438 -2.9375 4.242188 -2.84375 4.390625 -2.65625 C 4.546875 -2.46875 4.625 -2.1875 4.625 -1.8125 L 4.625 -0.28125 L 5.0625 -0.28125 L 5.0625 0 L 3.703125 0 L 3.703125 -0.28125 L 4.125 -0.28125 L 4.125 -1.765625 C 4.125 -2.054688 4.082031 -2.257812 4 -2.375 C 3.914062 -2.5 3.769531 -2.5625 3.5625 -2.5625 C 3.34375 -2.5625 3.175781 -2.476562 3.0625 -2.3125 C 2.945312 -2.144531 2.890625 -1.90625 2.890625 -1.59375 L 2.890625 -0.28125 L 3.328125 -0.28125 L 3.328125 0 L 1.96875 0 L 1.96875 -0.28125 L 2.390625 -0.28125 L 2.390625 -1.78125 C 2.390625 -2.0625 2.347656 -2.257812 2.265625 -2.375 C 2.179688 -2.5 2.039062 -2.5625 1.84375 -2.5625 C 1.625 -2.5625 1.457031 -2.476562 1.34375 -2.3125 C 1.226562 -2.144531 1.171875 -1.90625 1.171875 -1.59375 L 1.171875 -0.28125 L 1.59375 -0.28125 L 1.59375 0 L 0.21875 0 L 0.21875 -0.28125 L 0.671875 -0.28125 L 0.671875 -2.578125 L 0.203125 -2.578125 L 0.203125 -2.859375 L 1.171875 -2.859375 L 1.171875 -2.34375 C 1.253906 -2.53125 1.367188 -2.675781 1.515625 -2.78125 C 1.660156 -2.882812 1.820312 -2.9375 2 -2.9375 C 2.21875 -2.9375 2.398438 -2.878906 2.546875 -2.765625 C 2.703125 -2.660156 2.800781 -2.503906 2.84375 -2.296875 Z "/>
</symbol>
<symbol overflow="visible" id="glyph0-5">
<path style="stroke:none;" d="M 0.59375 -2.5625 L 0.15625 -2.5625 L 0.15625 -2.859375 L 0.59375 -2.859375 L 0.59375 -3.734375 L 1.09375 -3.734375 L 1.09375 -2.859375 L 2.015625 -2.859375 L 2.015625 -2.5625 L 1.09375 -2.5625 L 1.09375 -0.75 C 1.09375 -0.507812 1.113281 -0.351562 1.15625 -0.28125 C 1.207031 -0.21875 1.296875 -0.1875 1.421875 -0.1875 C 1.546875 -0.1875 1.632812 -0.222656 1.6875 -0.296875 C 1.75 -0.378906 1.785156 -0.503906 1.796875 -0.671875 L 2.171875 -0.671875 C 2.148438 -0.410156 2.078125 -0.21875 1.953125 -0.09375 C 1.828125 0.0195312 1.632812 0.078125 1.375 0.078125 C 1.09375 0.078125 0.890625 0.015625 0.765625 -0.109375 C 0.648438 -0.234375 0.59375 -0.445312 0.59375 -0.75 Z "/>
</symbol>
<symbol overflow="visible" id="glyph0-6">
<path style="stroke:none;" d="M 2.625 -2.859375 L 2.625 -2.140625 L 2.34375 -2.140625 C 2.332031 -2.285156 2.289062 -2.390625 2.21875 -2.453125 C 2.15625 -2.523438 2.054688 -2.5625 1.921875 -2.5625 C 1.679688 -2.5625 1.492188 -2.476562 1.359375 -2.3125 C 1.234375 -2.144531 1.171875 -1.90625 1.171875 -1.59375 L 1.171875 -0.28125 L 1.734375 -0.28125 L 1.734375 0 L 0.21875 0 L 0.21875 -0.28125 L 0.671875 -0.28125 L 0.671875 -2.578125 L 0.203125 -2.578125 L 0.203125 -2.859375 L 1.171875 -2.859375 L 1.171875 -2.34375 C 1.265625 -2.539062 1.382812 -2.6875 1.53125 -2.78125 C 1.6875 -2.882812 1.875 -2.9375 2.09375 -2.9375 C 2.175781 -2.9375 2.257812 -2.925781 2.34375 -2.90625 C 2.4375 -2.894531 2.53125 -2.878906 2.625 -2.859375 Z "/>
</symbol>
<symbol overflow="visible" id="glyph0-7">
<path style="stroke:none;" d="M 0.53125 -3.734375 C 0.53125 -3.816406 0.5625 -3.890625 0.625 -3.953125 C 0.6875 -4.015625 0.757812 -4.046875 0.84375 -4.046875 C 0.925781 -4.046875 0.992188 -4.015625 1.046875 -3.953125 C 1.109375 -3.890625 1.140625 -3.816406 1.140625 -3.734375 C 1.140625 -3.648438 1.109375 -3.578125 1.046875 -3.515625 C 0.992188 -3.460938 0.925781 -3.4375 0.84375 -3.4375 C 0.757812 -3.4375 0.6875 -3.460938 0.625 -3.515625 C 0.5625 -3.578125 0.53125 -3.648438 0.53125 -3.734375 Z M 1.171875 -0.28125 L 1.640625 -0.28125 L 1.640625 0 L 0.203125 0 L 0.203125 -0.28125 L 0.671875 -0.28125 L 0.671875 -2.5625 L 0.203125 -2.5625 L 0.203125 -2.859375 L 1.171875 -2.859375 Z "/>
</symbol>
<symbol overflow="visible" id="glyph0-8">
<path style="stroke:none;" d="M 2.828125 -0.859375 C 2.753906 -0.554688 2.617188 -0.320312 2.421875 -0.15625 C 2.222656 0 1.96875 0.078125 1.65625 0.078125 C 1.238281 0.078125 0.90625 -0.0546875 0.65625 -0.328125 C 0.40625 -0.609375 0.28125 -0.972656 0.28125 -1.421875 C 0.28125 -1.878906 0.40625 -2.242188 0.65625 -2.515625 C 0.90625 -2.796875 1.238281 -2.9375 1.65625 -2.9375 C 1.832031 -2.9375 2.007812 -2.914062 2.1875 -2.875 C 2.375 -2.832031 2.554688 -2.765625 2.734375 -2.671875 L 2.734375 -1.953125 L 2.453125 -1.953125 C 2.410156 -2.203125 2.328125 -2.382812 2.203125 -2.5 C 2.078125 -2.613281 1.894531 -2.671875 1.65625 -2.671875 C 1.394531 -2.671875 1.191406 -2.566406 1.046875 -2.359375 C 0.910156 -2.148438 0.84375 -1.835938 0.84375 -1.421875 C 0.84375 -1.015625 0.910156 -0.707031 1.046875 -0.5 C 1.179688 -0.289062 1.382812 -0.1875 1.65625 -0.1875 C 1.875 -0.1875 2.046875 -0.238281 2.171875 -0.34375 C 2.296875 -0.457031 2.382812 -0.628906 2.4375 -0.859375 Z "/>
</symbol>
<symbol overflow="visible" id="glyph0-9">
<path style="stroke:none;" d=""/>
</symbol>
<symbol overflow="visible" id="glyph0-10">
<path style="stroke:none;" d="M 0.296875 0 L 0.296875 -0.28125 L 0.8125 -0.28125 L 0.8125 -3.71875 L 0.28125 -3.71875 L 0.28125 -4.015625 L 1.4375 -4.015625 L 2.84375 -1.15625 L 4.25 -4.015625 L 5.359375 -4.015625 L 5.359375 -3.71875 L 4.8125 -3.71875 L 4.8125 -0.28125 L 5.328125 -0.28125 L 5.328125 0 L 3.765625 0 L 3.765625 -0.28125 L 4.265625 -0.28125 L 4.265625 -3.390625 L 2.890625 -0.59375 L 2.515625 -0.59375 L 1.140625 -3.390625 L 1.140625 -0.28125 L 1.65625 -0.28125 L 1.65625 0 Z "/>
</symbol>
<symbol overflow="visible" id="glyph0-11">
<path style="stroke:none;" d="M 2.1875 -0.890625 L 2.1875 -1.5 L 1.546875 -1.5 C 1.304688 -1.5 1.125 -1.445312 1 -1.34375 C 0.882812 -1.238281 0.828125 -1.078125 0.828125 -0.859375 C 0.828125 -0.660156 0.882812 -0.5 1 -0.375 C 1.125 -0.257812 1.289062 -0.203125 1.5 -0.203125 C 1.707031 -0.203125 1.875 -0.265625 2 -0.390625 C 2.125 -0.523438 2.1875 -0.691406 2.1875 -0.890625 Z M 2.6875 -1.78125 L 2.6875 -0.28125 L 3.125 -0.28125 L 3.125 0 L 2.1875 0 L 2.1875 -0.3125 C 2.082031 -0.175781 1.957031 -0.078125 1.8125 -0.015625 C 1.664062 0.046875 1.5 0.078125 1.3125 0.078125 C 0.988281 0.078125 0.734375 -0.00390625 0.546875 -0.171875 C 0.367188 -0.335938 0.28125 -0.566406 0.28125 -0.859375 C 0.28125 -1.148438 0.382812 -1.375 0.59375 -1.53125 C 0.800781 -1.695312 1.101562 -1.78125 1.5 -1.78125 L 2.1875 -1.78125 L 2.1875 -1.984375 C 2.1875 -2.203125 2.117188 -2.367188 1.984375 -2.484375 C 1.859375 -2.609375 1.675781 -2.671875 1.4375 -2.671875 C 1.238281 -2.671875 1.082031 -2.625 0.96875 -2.53125 C 0.851562 -2.4375 0.78125 -2.304688 0.75 -2.140625 L 0.5 -2.140625 L 0.5 -2.71875 C 0.664062 -2.789062 0.828125 -2.84375 0.984375 -2.875 C 1.148438 -2.914062 1.3125 -2.9375 1.46875 -2.9375 C 1.863281 -2.9375 2.164062 -2.835938 2.375 -2.640625 C 2.582031 -2.441406 2.6875 -2.15625 2.6875 -1.78125 Z "/>
</symbol>
<symbol overflow="visible" id="glyph0-12">
<path style="stroke:none;" d="M 0.21875 0 L 0.21875 -0.28125 L 0.671875 -0.28125 L 0.671875 -2.5625 L 0.203125 -2.5625 L 0.203125 -2.859375 L 1.171875 -2.859375 L 1.171875 -2.34375 C 1.253906 -2.539062 1.367188 -2.6875 1.515625 -2.78125 C 1.660156 -2.882812 1.832031 -2.9375 2.03125 -2.9375 C 2.34375 -2.9375 2.570312 -2.84375 2.71875 -2.65625 C 2.875 -2.476562 2.953125 -2.195312 2.953125 -1.8125 L 2.953125 -0.28125 L 3.390625 -0.28125 L 3.390625 0 L 2.03125 0 L 2.03125 -0.28125 L 2.453125 -0.28125 L 2.453125 -1.65625 C 2.453125 -2.007812 2.40625 -2.25 2.3125 -2.375 C 2.226562 -2.507812 2.082031 -2.578125 1.875 -2.578125 C 1.644531 -2.578125 1.46875 -2.492188 1.34375 -2.328125 C 1.226562 -2.160156 1.171875 -1.914062 1.171875 -1.59375 L 1.171875 -0.28125 L 1.59375 -0.28125 L 1.59375 0 Z "/>
</symbol>
<symbol overflow="visible" id="glyph0-13">
<path style="stroke:none;" d="M 1.75 0.859375 C 1.3125 0.660156 0.984375 0.351562 0.765625 -0.0625 C 0.546875 -0.488281 0.4375 -1.019531 0.4375 -1.65625 C 0.4375 -2.289062 0.546875 -2.820312 0.765625 -3.25 C 0.984375 -3.675781 1.3125 -3.984375 1.75 -4.171875 L 1.75 -3.921875 C 1.476562 -3.722656 1.28125 -3.453125 1.15625 -3.109375 C 1.039062 -2.765625 0.984375 -2.28125 0.984375 -1.65625 C 0.984375 -1.03125 1.039062 -0.546875 1.15625 -0.203125 C 1.28125 0.140625 1.476562 0.40625 1.75 0.59375 Z "/>
</symbol>
<symbol overflow="visible" id="glyph0-14">
<path style="stroke:none;" d="M 0.390625 0.859375 L 0.390625 0.59375 C 0.660156 0.40625 0.859375 0.140625 0.984375 -0.203125 C 1.109375 -0.546875 1.171875 -1.03125 1.171875 -1.65625 C 1.171875 -2.28125 1.109375 -2.765625 0.984375 -3.109375 C 0.859375 -3.453125 0.660156 -3.722656 0.390625 -3.921875 L 0.390625 -4.171875 C 0.828125 -3.984375 1.15625 -3.675781 1.375 -3.25 C 1.59375 -2.820312 1.703125 -2.289062 1.703125 -1.65625 C 1.703125 -1.019531 1.59375 -0.488281 1.375 -0.0625 C 1.15625 0.351562 0.828125 0.660156 0.390625 0.859375 Z "/>
</symbol>
</g>
</defs>
<g id="surface22">
<g style="fill:rgb(51.372549%,75.686275%,40.392157%);fill-opacity:1;">
  <use xlink:href="#glyph0-1" x="30" y="25.105469"/>
  <use xlink:href="#glyph0-2" x="34" y="25.105469"/>
  <use xlink:href="#glyph0-3" x="37" y="25.105469"/>
  <use xlink:href="#glyph0-4" x="40" y="25.105469"/>
  <use xlink:href="#glyph0-2" x="45" y="25.105469"/>
  <use xlink:href="#glyph0-5" x="48" y="25.105469"/>
  <use xlink:href="#glyph0-6" x="50" y="25.105469"/>
  <use xlink:href="#glyph0-7" x="53" y="25.105469"/>
  <use xlink:href="#glyph0-8" x="55" y="25.105469"/>
  <use xlink:href="#glyph0-9" x="58" y="25.105469"/>
  <use xlink:href="#glyph0-10" x="60" y="25.105469"/>
  <use xlink:href="#glyph0-2" x="66" y="25.105469"/>
  <use xlink:href="#glyph0-11" x="69" y="25.105469"/>
  <use xlink:href="#glyph0-12" x="72" y="25.105469"/>
  <use xlink:href="#glyph0-9" x="76" y="25.105469"/>
  <use xlink:href="#glyph0-13" x="78" y="25.105469"/>
  <use xlink:href="#glyph0-1" x="80" y="25.105469"/>
  <use xlink:href="#glyph0-14" x="84" y="25.105469"/>
</g>
</g>
</svg>
