<?xml version="1.0" encoding="UTF-8"?>
<svg xmlns="http://www.w3.org/2000/svg" xmlns:xlink="http://www.w3.org/1999/xlink" width="1280pt" height="720pt" viewBox="0 0 1280 720" version="1.1">
<defs>
<g>
<symbol overflow="visible" id="glyph0-0">
<path style="stroke:none;" d="M 0.25 0 L 0.25 -4.875 L 2.1875 -4.875 L 2.1875 0 Z M 0.484375 -0.25 L 1.953125 -0.25 L 1.953125 -4.640625 L 0.484375 -4.640625 Z "/>
</symbol>
<symbol overflow="visible" id="glyph0-1">
<path style="stroke:none;" d="M 4.296875 -1.578125 C 4.128906 -2.054688 3.90625 -2.5 3.625 -2.90625 L 4.09375 -3.234375 C 4.414062 -2.785156 4.664062 -2.296875 4.84375 -1.765625 Z M 5.375 -0.171875 L 5.375 -3.765625 L 4.390625 -3.765625 C 4.097656 -3.765625 3.804688 -3.757812 3.515625 -3.75 C 3.535156 -3.90625 3.535156 -4.0625 3.515625 -4.21875 C 3.804688 -4.195312 4.097656 -4.1875 4.390625 -4.1875 L 5.375 -4.1875 L 5.375 -4.953125 C 5.375 -5.304688 5.363281 -5.660156 5.34375 -6.015625 C 5.53125 -5.992188 5.722656 -5.992188 5.921875 -6.015625 C 5.898438 -5.660156 5.890625 -5.304688 5.890625 -4.953125 L 5.890625 -4.1875 L 6.15625 -4.1875 C 6.445312 -4.1875 6.738281 -4.195312 7.03125 -4.21875 C 7.007812 -4.0625 7.007812 -3.90625 7.03125 -3.75 C 6.738281 -3.757812 6.445312 -3.765625 6.15625 -3.765625 L 5.890625 -3.765625 L 5.890625 0.03125 C 5.890625 0.363281 5.796875 0.601562 5.609375 0.75 C 5.398438 0.882812 5.054688 0.953125 4.578125 0.953125 C 4.628906 0.710938 4.570312 0.5 4.40625 0.3125 C 4.550781 0.332031 4.71875 0.34375 4.90625 0.34375 C 5.101562 0.34375 5.226562 0.316406 5.28125 0.265625 C 5.332031 0.222656 5.363281 0.078125 5.375 -0.171875 Z M 1.4375 -4.609375 C 1.144531 -4.609375 0.851562 -4.601562 0.5625 -4.59375 C 0.582031 -4.75 0.582031 -4.90625 0.5625 -5.0625 C 0.851562 -5.039062 1.144531 -5.03125 1.4375 -5.03125 L 3.296875 -5.03125 C 3.210938 -4.007812 2.941406 -3.046875 2.484375 -2.140625 L 3.453125 -0.5 L 2.9375 -0.203125 L 2.171875 -1.546875 C 1.742188 -0.859375 1.234375 -0.25 0.640625 0.28125 C 0.460938 0.164062 0.269531 0.0820312 0.0625 0.03125 C 0.789062 -0.5625 1.390625 -1.265625 1.859375 -2.078125 L 0.5625 -4.21875 L 1.046875 -4.53125 L 2.171875 -2.6875 C 2.453125 -3.300781 2.644531 -3.941406 2.75 -4.609375 Z "/>
</symbol>
<symbol overflow="visible" id="glyph0-2">
<path style="stroke:none;" d="M 5.078125 0.875 C 4.890625 0.863281 4.703125 0.863281 4.515625 0.875 C 4.523438 0.519531 4.53125 0.171875 4.53125 -0.171875 L 4.53125 -1.953125 L 3.15625 -1.953125 C 3.15625 -1.703125 3.164062 -1.453125 3.1875 -1.203125 C 2.988281 -1.222656 2.800781 -1.222656 2.625 -1.203125 C 2.632812 -1.554688 2.640625 -1.90625 2.640625 -2.25 L 2.640625 -4.453125 L 4.53125 -4.453125 L 4.53125 -4.96875 C 4.53125 -5.320312 4.523438 -5.671875 4.515625 -6.015625 C 4.703125 -5.992188 4.890625 -5.992188 5.078125 -6.015625 C 5.066406 -5.671875 5.0625 -5.320312 5.0625 -4.96875 L 5.0625 -4.453125 L 6.796875 -4.453125 L 6.796875 -1.40625 L 6.28125 -1.40625 L 6.28125 -1.953125 L 5.0625 -1.953125 L 5.0625 -0.171875 C 5.0625 0.171875 5.066406 0.519531 5.078125 0.875 Z M 5.0625 -2.375 L 6.28125 -2.375 L 6.28125 -4.03125 L 5.0625 -4.03125 Z M 4.53125 -2.375 L 4.53125 -4.03125 L 3.15625 -4.03125 L 3.15625 -2.375 Z M 0.9375 0.515625 C 0.769531 0.390625 0.554688 0.316406 0.296875 0.296875 C 0.472656 -0.0546875 0.648438 -0.46875 0.828125 -0.9375 C 1.015625 -1.40625 1.269531 -2.222656 1.59375 -3.390625 L 1.890625 -3.203125 C 1.585938 -2.066406 1.363281 -1.21875 1.21875 -0.65625 Z M 1.296875 -3.859375 C 0.972656 -4.265625 0.625 -4.640625 0.25 -4.984375 L 0.609375 -5.40625 C 1.003906 -5.039062 1.375 -4.648438 1.71875 -4.234375 Z "/>
</symbol>
<symbol overflow="visible" id="glyph0-3">
<path style="stroke:none;" d="M 5.28125 -0.046875 L 5.28125 -0.953125 L 2.59375 -0.953125 L 2.609375 -0.1875 C 2.617188 0.15625 2.632812 0.503906 2.65625 0.859375 C 2.46875 0.835938 2.273438 0.835938 2.078125 0.859375 C 2.097656 0.515625 2.101562 0.164062 2.09375 -0.1875 L 2.046875 -2.734375 C 1.585938 -2.171875 1.078125 -1.695312 0.515625 -1.3125 C 0.421875 -1.507812 0.28125 -1.660156 0.09375 -1.765625 C 0.90625 -2.296875 1.554688 -2.890625 2.046875 -3.546875 L 2.046875 -3.71875 L 2.15625 -3.71875 C 2.351562 -4.007812 2.5 -4.285156 2.59375 -4.546875 L 1.234375 -4.546875 C 0.953125 -4.546875 0.675781 -4.539062 0.40625 -4.53125 C 0.414062 -4.6875 0.414062 -4.835938 0.40625 -4.984375 C 0.675781 -4.960938 0.953125 -4.953125 1.234375 -4.953125 L 2.75 -4.953125 C 2.894531 -5.328125 3 -5.632812 3.0625 -5.875 C 3.25 -5.800781 3.453125 -5.75 3.671875 -5.71875 C 3.578125 -5.46875 3.476562 -5.210938 3.375 -4.953125 L 6.1875 -4.953125 C 6.46875 -4.953125 6.75 -4.960938 7.03125 -4.984375 C 7.007812 -4.835938 7.007812 -4.6875 7.03125 -4.53125 C 6.75 -4.539062 6.46875 -4.546875 6.1875 -4.546875 L 3.203125 -4.546875 C 3.054688 -4.253906 2.90625 -3.976562 2.75 -3.71875 L 5.8125 -3.71875 L 5.8125 0.140625 C 5.8125 0.359375 5.738281 0.535156 5.59375 0.671875 C 5.394531 0.847656 5.035156 0.9375 4.515625 0.9375 C 4.566406 0.695312 4.507812 0.484375 4.34375 0.296875 C 4.488281 0.316406 4.660156 0.328125 4.859375 0.328125 C 5.054688 0.335938 5.175781 0.320312 5.21875 0.28125 C 5.257812 0.25 5.28125 0.140625 5.28125 -0.046875 Z M 5.28125 -2.5 L 5.28125 -3.3125 L 2.5625 -3.3125 L 2.578125 -2.5 Z M 5.28125 -1.359375 L 5.28125 -2.09375 L 2.578125 -2.09375 L 2.59375 -1.359375 Z "/>
</symbol>
<symbol overflow="visible" id="glyph0-4">
<path style="stroke:none;" d="M 3.25 -0.25 L 2.890625 0.140625 L 2.171875 -0.515625 C 1.972656 -0.0859375 1.734375 0.253906 1.453125 0.515625 C 1.179688 0.785156 0.835938 0.972656 0.421875 1.078125 C 0.390625 0.878906 0.304688 0.707031 0.171875 0.5625 C 0.941406 0.375 1.488281 -0.0976562 1.8125 -0.859375 L 0.640625 -1.875 L 0.984375 -2.28125 L 2 -1.40625 C 2.144531 -1.925781 2.25 -2.421875 2.3125 -2.890625 C 2.488281 -2.828125 2.664062 -2.773438 2.84375 -2.734375 C 2.664062 -3.035156 2.472656 -3.332031 2.265625 -3.625 L 2.703125 -3.9375 C 3.046875 -3.46875 3.351562 -2.984375 3.625 -2.484375 L 3.15625 -2.21875 C 3.0625 -2.382812 2.96875 -2.539062 2.875 -2.6875 C 2.75 -2.125 2.585938 -1.578125 2.390625 -1.046875 Z M 1.109375 -3.875 C 1.273438 -3.800781 1.445312 -3.75 1.625 -3.71875 C 1.457031 -3.082031 1.0625 -2.515625 0.4375 -2.015625 C 0.351562 -2.171875 0.234375 -2.285156 0.078125 -2.359375 C 0.316406 -2.535156 0.515625 -2.738281 0.671875 -2.96875 C 0.828125 -3.207031 0.972656 -3.507812 1.109375 -3.875 Z M 3.625 -4.40625 C 3.601562 -4.28125 3.601562 -4.148438 3.625 -4.015625 C 3.382812 -4.023438 3.144531 -4.03125 2.90625 -4.03125 L 0.9375 -4.03125 C 0.695312 -4.03125 0.457031 -4.023438 0.21875 -4.015625 C 0.238281 -4.148438 0.238281 -4.28125 0.21875 -4.40625 C 0.457031 -4.394531 0.695312 -4.390625 0.9375 -4.390625 L 2.90625 -4.390625 C 3.144531 -4.390625 3.382812 -4.394531 3.625 -4.40625 Z M 2.375 -4.71875 L 1.890625 -4.46875 L 1.34375 -5.484375 L 1.828125 -5.734375 Z M 4.234375 -5.765625 C 4.410156 -5.710938 4.59375 -5.675781 4.78125 -5.65625 C 4.695312 -5.238281 4.597656 -4.832031 4.484375 -4.4375 L 4.453125 -4.328125 L 6.109375 -4.328125 C 6.347656 -4.328125 6.59375 -4.332031 6.84375 -4.34375 C 6.820312 -4.195312 6.820312 -4.050781 6.84375 -3.90625 L 6.078125 -3.921875 C 6.035156 -2.773438 5.800781 -1.804688 5.375 -1.015625 C 5.8125 -0.421875 6.382812 0.03125 7.09375 0.34375 C 6.945312 0.445312 6.835938 0.597656 6.765625 0.796875 C 6.097656 0.484375 5.554688 0.0195312 5.140625 -0.59375 C 4.671875 0.15625 4.039062 0.695312 3.25 1.03125 C 3.207031 0.8125 3.117188 0.632812 2.984375 0.5 C 3.796875 0.195312 4.421875 -0.316406 4.859375 -1.046875 C 4.472656 -1.722656 4.234375 -2.503906 4.140625 -3.390625 C 3.984375 -2.953125 3.765625 -2.507812 3.484375 -2.0625 C 3.359375 -2.195312 3.191406 -2.28125 2.984375 -2.3125 C 3.179688 -2.601562 3.382812 -2.953125 3.59375 -3.359375 C 3.800781 -3.765625 3.945312 -4.164062 4.03125 -4.5625 C 4.125 -4.96875 4.191406 -5.367188 4.234375 -5.765625 Z M 4.53125 -3.921875 C 4.539062 -3.441406 4.597656 -2.988281 4.703125 -2.5625 C 4.804688 -2.144531 4.9375 -1.785156 5.09375 -1.484375 C 5.394531 -2.160156 5.554688 -2.972656 5.578125 -3.921875 Z "/>
</symbol>
<symbol overflow="visible" id="glyph0-5">
<path style="stroke:none;" d="M 7.0625 0.15625 C 7.050781 0.289062 7.050781 0.429688 7.0625 0.578125 C 6.800781 0.554688 6.546875 0.546875 6.296875 0.546875 L 3.3125 0.546875 C 3.050781 0.546875 2.796875 0.554688 2.546875 0.578125 C 2.554688 0.429688 2.554688 0.289062 2.546875 0.15625 C 2.796875 0.164062 3.050781 0.171875 3.3125 0.171875 L 4.46875 0.171875 L 4.46875 -1.6875 L 3.8125 -1.6875 C 3.550781 -1.6875 3.296875 -1.675781 3.046875 -1.65625 C 3.054688 -1.800781 3.054688 -1.941406 3.046875 -2.078125 C 3.296875 -2.066406 3.550781 -2.0625 3.8125 -2.0625 L 4.46875 -2.0625 L 4.46875 -3.765625 L 3.328125 -3.765625 C 3.066406 -3.023438 2.8125 -2.414062 2.5625 -1.9375 C 2.382812 -2.0625 2.191406 -2.125 1.984375 -2.125 C 2.367188 -2.820312 2.648438 -3.394531 2.828125 -3.84375 C 3.003906 -4.289062 3.15625 -4.804688 3.28125 -5.390625 C 3.46875 -5.316406 3.664062 -5.265625 3.875 -5.234375 L 3.46875 -4.140625 L 4.46875 -4.140625 L 4.46875 -4.921875 C 4.46875 -5.253906 4.457031 -5.59375 4.4375 -5.9375 C 4.625 -5.914062 4.8125 -5.914062 5 -5.9375 C 4.976562 -5.59375 4.96875 -5.253906 4.96875 -4.921875 L 4.96875 -4.140625 L 6.046875 -4.140625 C 6.296875 -4.140625 6.550781 -4.144531 6.8125 -4.15625 C 6.800781 -4.019531 6.800781 -3.882812 6.8125 -3.75 C 6.550781 -3.757812 6.296875 -3.765625 6.046875 -3.765625 L 4.96875 -3.765625 L 4.96875 -2.0625 L 5.828125 -2.0625 C 6.085938 -2.0625 6.34375 -2.066406 6.59375 -2.078125 C 6.582031 -1.941406 6.582031 -1.800781 6.59375 -1.65625 C 6.34375 -1.675781 6.085938 -1.6875 5.828125 -1.6875 L 4.96875 -1.6875 L 4.96875 0.171875 L 6.296875 0.171875 C 6.546875 0.171875 6.800781 0.164062 7.0625 0.15625 Z M 1.453125 -0.015625 C 1.453125 0.316406 1.457031 0.644531 1.46875 0.96875 C 1.300781 0.945312 1.128906 0.945312 0.953125 0.96875 C 0.972656 0.644531 0.984375 0.316406 0.984375 -0.015625 L 0.984375 -4.9375 C 0.984375 -5.269531 0.972656 -5.597656 0.953125 -5.921875 C 1.128906 -5.898438 1.300781 -5.898438 1.46875 -5.921875 C 1.457031 -5.597656 1.453125 -5.269531 1.453125 -4.9375 L 1.453125 -4.34375 L 1.640625 -4.5 L 2.421875 -3.421875 L 2.015625 -3.09375 L 1.453125 -3.859375 Z M -0.1875 -2.734375 C 0 -3.203125 0.164062 -3.703125 0.3125 -4.234375 L 0.8125 -4.09375 C 0.664062 -3.539062 0.488281 -3.015625 0.28125 -2.515625 Z "/>
</symbol>
<symbol overflow="visible" id="glyph1-0">
<path style="stroke:none;" d="M 0.359375 1.296875 L 0.359375 -5.171875 L 4.03125 -5.171875 L 4.03125 1.296875 Z M 0.78125 0.890625 L 3.625 0.890625 L 3.625 -4.75 L 0.78125 -4.75 Z "/>
</symbol>
<symbol overflow="visible" id="glyph1-1">
<path style="stroke:none;" d=""/>
</symbol>
<symbol overflow="visible" id="glyph1-2">
<path style="stroke:none;" d="M 0.78125 -3.3125 L 5.359375 -3.3125 L 5.359375 -2.734375 L 0.78125 -2.734375 Z M 0.78125 -1.859375 L 5.359375 -1.859375 L 5.359375 -1.28125 L 0.78125 -1.28125 Z "/>
</symbol>
<symbol overflow="visible" id="glyph1-3">
<path style="stroke:none;" d="M 1.125 -2.09375 L 1.125 -1.71875 C 1.125 -1.257812 1.207031 -0.910156 1.375 -0.671875 C 1.550781 -0.429688 1.804688 -0.3125 2.140625 -0.3125 C 2.484375 -0.3125 2.738281 -0.441406 2.90625 -0.703125 C 3.082031 -0.972656 3.171875 -1.375 3.171875 -1.90625 C 3.171875 -2.445312 3.082031 -2.84375 2.90625 -3.09375 C 2.695312 -3.382812 2.441406 -3.53125 2.140625 -3.53125 C 1.828125 -3.53125 1.570312 -3.398438 1.375 -3.140625 C 1.207031 -2.890625 1.125 -2.539062 1.125 -2.09375 Z M 1.125 1.53125 L 0.46875 1.53125 L 0.46875 -1.875 C 0.46875 -2.46875 0.566406 -2.910156 0.765625 -3.203125 C 1.003906 -3.484375 1.203125 -3.664062 1.359375 -3.75 C 1.566406 -3.851562 1.828125 -3.90625 2.140625 -3.90625 C 2.742188 -3.90625 3.191406 -3.71875 3.484375 -3.34375 C 3.785156 -2.976562 3.9375 -2.5 3.9375 -1.90625 C 3.9375 -1.3125 3.785156 -0.828125 3.484375 -0.453125 C 3.191406 -0.078125 2.8125 0.109375 2.34375 0.109375 C 2.050781 0.109375 1.804688 0.0507812 1.609375 -0.0625 C 1.410156 -0.175781 1.25 -0.351562 1.125 -0.59375 Z "/>
</symbol>
<symbol overflow="visible" id="glyph1-4">
<path style="stroke:none;" d="M 0.609375 -4.640625 L 0.359375 -4.640625 L 0.359375 -5.203125 C 0.515625 -5.273438 0.675781 -5.332031 0.84375 -5.375 C 1.007812 -5.414062 1.175781 -5.4375 1.34375 -5.4375 C 1.664062 -5.4375 1.929688 -5.359375 2.140625 -5.203125 C 2.347656 -5.046875 2.453125 -4.84375 2.453125 -4.59375 C 2.453125 -4.300781 2.21875 -3.945312 1.75 -3.53125 L 1.6875 -3.46875 L 0.828125 -2.703125 L 2.21875 -2.703125 L 2.21875 -3.09375 L 2.46875 -3.09375 L 2.46875 -2.390625 L 0.328125 -2.390625 L 0.328125 -2.65625 L 1.34375 -3.5625 C 1.550781 -3.75 1.695312 -3.914062 1.78125 -4.0625 C 1.875 -4.207031 1.921875 -4.359375 1.921875 -4.515625 C 1.921875 -4.710938 1.859375 -4.867188 1.734375 -4.984375 C 1.617188 -5.109375 1.460938 -5.171875 1.265625 -5.171875 C 1.078125 -5.171875 0.925781 -5.125 0.8125 -5.03125 C 0.707031 -4.945312 0.640625 -4.816406 0.609375 -4.640625 Z "/>
</symbol>
</g>
</defs>
<g id="surface167">
<g style="fill:rgb(96.862745%,85.098039%,43.529412%);fill-opacity:1;">
  <use xlink:href="#glyph0-1" x="30" y="27.060547"/>
  <use xlink:href="#glyph0-2" x="37" y="27.060547"/>
  <use xlink:href="#glyph0-3" x="44" y="27.060547"/>
  <use xlink:href="#glyph0-4" x="51" y="27.060547"/>
  <use xlink:href="#glyph0-5" x="58" y="27.060547"/>
</g>
<g style="fill:rgb(96.862745%,85.098039%,43.529412%);fill-opacity:1;">
  <use xlink:href="#glyph1-1" x="65" y="27.060547"/>
  <use xlink:href="#glyph1-2" x="67" y="27.060547"/>
  <use xlink:href="#glyph1-1" x="73" y="27.060547"/>
</g>
<g style="fill:rgb(96.862745%,85.098039%,43.529412%);fill-opacity:1;">
  <use xlink:href="#glyph1-3" x="75" y="27.060547"/>
  <use xlink:href="#glyph1-4" x="79" y="27.060547"/>
</g>
</g>
</svg>
