<?xml version="1.0" encoding="UTF-8"?>
<svg xmlns="http://www.w3.org/2000/svg" xmlns:xlink="http://www.w3.org/1999/xlink" width="1280pt" height="720pt" viewBox="0 0 1280 720" version="1.1">
<defs>
<g>
<symbol overflow="visible" id="glyph0-0">
<path style="stroke:none;" d="M 0.296875 1.078125 L 0.296875 -4.3125 L 3.359375 -4.3125 L 3.359375 1.078125 Z M 0.640625 0.734375 L 3.015625 0.734375 L 3.015625 -3.96875 L 0.640625 -3.96875 Z "/>
</symbol>
<symbol overflow="visible" id="glyph0-1">
<path style="stroke:none;" d="M 0.34375 0 L 0.34375 -0.3125 L 0.90625 -0.3125 L 0.90625 -4.140625 L 0.34375 -4.140625 L 0.34375 -4.453125 L 3.984375 -4.453125 L 3.984375 -3.46875 L 3.609375 -3.46875 L 3.609375 -4.09375 L 1.515625 -4.09375 L 1.515625 -2.59375 L 3.03125 -2.59375 L 3.03125 -3.15625 L 3.390625 -3.15625 L 3.390625 -1.671875 L 3.03125 -1.671875 L 3.03125 -2.234375 L 1.515625 -2.234375 L 1.515625 -0.3125 L 2.21875 -0.3125 L 2.21875 0 Z "/>
</symbol>
<symbol overflow="visible" id="glyph0-2">
<path style="stroke:none;" d="M 1.953125 0.953125 C 1.460938 0.734375 1.09375 0.390625 0.84375 -0.078125 C 0.601562 -0.546875 0.484375 -1.132812 0.484375 -1.84375 C 0.484375 -2.550781 0.601562 -3.140625 0.84375 -3.609375 C 1.09375 -4.078125 1.460938 -4.421875 1.953125 -4.640625 L 1.953125 -4.34375 C 1.640625 -4.132812 1.414062 -3.835938 1.28125 -3.453125 C 1.15625 -3.078125 1.09375 -2.539062 1.09375 -1.84375 C 1.09375 -1.15625 1.15625 -0.617188 1.28125 -0.234375 C 1.414062 0.148438 1.640625 0.445312 1.953125 0.65625 Z "/>
</symbol>
<symbol overflow="visible" id="glyph0-3">
<path style="stroke:none;" d="M 0.65625 -2.859375 L 0.171875 -2.859375 L 0.171875 -3.171875 L 0.65625 -3.171875 L 0.65625 -4.15625 L 1.21875 -4.15625 L 1.21875 -3.171875 L 2.25 -3.171875 L 2.25 -2.859375 L 1.21875 -2.859375 L 1.21875 -0.84375 C 1.21875 -0.570312 1.238281 -0.394531 1.28125 -0.3125 C 1.332031 -0.238281 1.429688 -0.203125 1.578125 -0.203125 C 1.722656 -0.203125 1.828125 -0.242188 1.890625 -0.328125 C 1.953125 -0.421875 1.988281 -0.5625 2 -0.75 L 2.40625 -0.75 C 2.394531 -0.457031 2.316406 -0.242188 2.171875 -0.109375 C 2.023438 0.0234375 1.8125 0.09375 1.53125 0.09375 C 1.207031 0.09375 0.976562 0.0234375 0.84375 -0.109375 C 0.71875 -0.253906 0.65625 -0.5 0.65625 -0.84375 Z "/>
</symbol>
<symbol overflow="visible" id="glyph0-4">
<path style="stroke:none;" d="M 0.4375 0.953125 L 0.4375 0.65625 C 0.738281 0.445312 0.957031 0.148438 1.09375 -0.234375 C 1.226562 -0.617188 1.296875 -1.15625 1.296875 -1.84375 C 1.296875 -2.539062 1.226562 -3.078125 1.09375 -3.453125 C 0.957031 -3.835938 0.738281 -4.132812 0.4375 -4.34375 L 0.4375 -4.640625 C 0.914062 -4.421875 1.28125 -4.078125 1.53125 -3.609375 C 1.78125 -3.140625 1.90625 -2.550781 1.90625 -1.84375 C 1.90625 -1.132812 1.78125 -0.546875 1.53125 -0.078125 C 1.28125 0.390625 0.914062 0.734375 0.4375 0.953125 Z "/>
</symbol>
<symbol overflow="visible" id="glyph0-5">
<path style="stroke:none;" d=""/>
</symbol>
<symbol overflow="visible" id="glyph1-0">
<path style="stroke:none;" d="M 0.203125 0 L 0.203125 -4.0625 L 1.828125 -4.0625 L 1.828125 0 Z M 0.40625 -0.203125 L 1.625 -0.203125 L 1.625 -3.859375 L 0.40625 -3.859375 Z "/>
</symbol>
<symbol overflow="visible" id="glyph1-1">
<path style="stroke:none;" d="M 5.21875 -0.09375 L 5.21875 -1.390625 L 4.171875 -1.390625 C 4.109375 -0.460938 3.769531 0.238281 3.15625 0.71875 C 3.0625 0.570312 2.929688 0.484375 2.765625 0.453125 C 3.441406 0.0546875 3.78125 -0.660156 3.78125 -1.703125 L 3.78125 -4.59375 L 5.625 -4.59375 L 5.625 0.078125 C 5.625 0.335938 5.546875 0.519531 5.390625 0.625 C 5.234375 0.71875 4.96875 0.765625 4.59375 0.765625 C 4.632812 0.578125 4.59375 0.414062 4.46875 0.28125 C 4.582031 0.289062 4.710938 0.296875 4.859375 0.296875 C 5.015625 0.296875 5.113281 0.28125 5.15625 0.25 C 5.195312 0.21875 5.21875 0.101562 5.21875 -0.09375 Z M 2.8125 0.25 C 2.601562 -0.09375 2.375 -0.421875 2.125 -0.734375 L 2.46875 -1.015625 C 2.726562 -0.691406 2.96875 -0.347656 3.1875 0.015625 Z M 3.484375 -1.34375 C 3.472656 -1.238281 3.472656 -1.132812 3.484375 -1.03125 C 3.296875 -1.039062 3.109375 -1.046875 2.921875 -1.046875 L 1.234375 -1.046875 C 1.359375 -0.984375 1.492188 -0.9375 1.640625 -0.90625 C 1.453125 -0.34375 1.09375 0.175781 0.5625 0.65625 C 0.476562 0.53125 0.375 0.441406 0.25 0.390625 C 0.488281 0.191406 0.675781 -0.015625 0.8125 -0.234375 C 0.957031 -0.460938 1.097656 -0.734375 1.234375 -1.046875 L 0.671875 -1.046875 C 0.484375 -1.046875 0.296875 -1.039062 0.109375 -1.03125 C 0.117188 -1.132812 0.117188 -1.238281 0.109375 -1.34375 C 0.296875 -1.332031 0.484375 -1.328125 0.671875 -1.328125 L 0.9375 -1.328125 L 0.9375 -3.90625 L 0.25 -3.890625 C 0.257812 -3.992188 0.257812 -4.097656 0.25 -4.203125 L 0.9375 -4.1875 C 0.9375 -4.445312 0.929688 -4.710938 0.921875 -4.984375 C 1.066406 -4.960938 1.210938 -4.960938 1.359375 -4.984375 C 1.347656 -4.710938 1.34375 -4.445312 1.34375 -4.1875 L 2.46875 -4.1875 C 2.46875 -4.445312 2.460938 -4.710938 2.453125 -4.984375 C 2.597656 -4.960938 2.742188 -4.960938 2.890625 -4.984375 C 2.878906 -4.710938 2.875 -4.445312 2.875 -4.1875 L 3.453125 -4.203125 C 3.441406 -4.097656 3.441406 -3.992188 3.453125 -3.890625 L 2.875 -3.90625 L 2.875 -1.328125 Z M 5.21875 -3.109375 L 5.21875 -4.3125 L 4.171875 -4.3125 L 4.171875 -3.109375 Z M 5.21875 -1.640625 L 5.21875 -2.859375 L 4.171875 -2.859375 L 4.171875 -1.640625 Z M 2.46875 -3.296875 L 2.46875 -3.90625 L 1.34375 -3.90625 L 1.34375 -3.3125 Z M 2.46875 -2.328125 L 2.46875 -3.015625 L 1.34375 -3.015625 L 1.34375 -2.34375 Z M 2.46875 -1.328125 L 2.46875 -2.0625 L 1.34375 -2.046875 L 1.34375 -1.328125 Z "/>
</symbol>
<symbol overflow="visible" id="glyph1-2">
<path style="stroke:none;" d="M 3.625 -4.03125 C 4.125 -4.257812 4.582031 -4.523438 5 -4.828125 C 5.070312 -4.671875 5.164062 -4.53125 5.28125 -4.40625 C 4.675781 -4.0625 4.125 -3.785156 3.625 -3.578125 L 3.625 -3.203125 C 3.625 -3.140625 3.644531 -3.082031 3.6875 -3.03125 C 3.726562 -2.976562 3.78125 -2.953125 3.84375 -2.953125 L 5.25 -2.953125 C 5.351562 -2.953125 5.421875 -3.046875 5.453125 -3.234375 L 5.5625 -3.875 C 5.6875 -3.800781 5.820312 -3.757812 5.96875 -3.75 L 5.8125 -2.921875 C 5.769531 -2.691406 5.679688 -2.578125 5.546875 -2.578125 L 3.828125 -2.578125 C 3.648438 -2.578125 3.5 -2.632812 3.375 -2.75 C 3.257812 -2.863281 3.203125 -3.015625 3.203125 -3.203125 L 3.203125 -3.40625 C 2.878906 -3.289062 2.5625 -3.203125 2.25 -3.140625 C 2.238281 -3.316406 2.175781 -3.46875 2.0625 -3.59375 C 2.488281 -3.675781 2.867188 -3.769531 3.203125 -3.875 L 3.203125 -4.0625 C 3.203125 -4.351562 3.195312 -4.640625 3.1875 -4.921875 C 3.34375 -4.898438 3.5 -4.898438 3.65625 -4.921875 Z M 1.96875 -2.578125 C 1.8125 -2.597656 1.660156 -2.597656 1.515625 -2.578125 C 1.523438 -2.859375 1.53125 -3.144531 1.53125 -3.4375 L 1.53125 -3.65625 C 1.195312 -3.320312 0.816406 -3.050781 0.390625 -2.84375 C 0.347656 -2.988281 0.269531 -3.101562 0.15625 -3.1875 C 0.613281 -3.394531 0.988281 -3.675781 1.28125 -4.03125 C 1.519531 -4.320312 1.722656 -4.644531 1.890625 -5 C 2.023438 -4.914062 2.171875 -4.851562 2.328125 -4.8125 C 2.222656 -4.582031 2.09375 -4.359375 1.9375 -4.140625 L 1.9375 -3.4375 C 1.9375 -3.15625 1.945312 -2.867188 1.96875 -2.578125 Z M 5.15625 1.015625 C 4.507812 0.566406 3.773438 0.222656 2.953125 -0.015625 L 3.09375 -0.4375 C 3.957031 -0.175781 4.726562 0.1875 5.40625 0.65625 Z M 2.78125 -1.5 C 2.9375 -1.488281 3.09375 -1.492188 3.25 -1.515625 C 3.28125 -1.035156 3.15625 -0.597656 2.875 -0.203125 C 2.726562 -0.00390625 2.546875 0.171875 2.328125 0.328125 C 2.117188 0.492188 1.867188 0.65625 1.578125 0.8125 C 1.296875 0.976562 1.066406 1.066406 0.890625 1.078125 C 0.785156 0.878906 0.601562 0.742188 0.34375 0.671875 C 1.394531 0.597656 2.125 0.234375 2.53125 -0.421875 C 2.726562 -0.753906 2.8125 -1.113281 2.78125 -1.5 Z M 1.65625 -0.03125 C 1.5 -0.0390625 1.347656 -0.0390625 1.203125 -0.03125 C 1.210938 -0.300781 1.21875 -0.570312 1.21875 -0.84375 L 1.21875 -2.109375 L 4.796875 -2.09375 L 4.796875 -0.09375 L 4.390625 -0.09375 L 4.390625 -1.8125 L 1.625 -1.8125 L 1.625 -0.84375 C 1.625 -0.570312 1.632812 -0.300781 1.65625 -0.03125 Z "/>
</symbol>
</g>
</defs>
<g id="surface17">
<g style="fill:rgb(100%,52.54902%,18.431373%);fill-opacity:1;">
  <use xlink:href="#glyph0-1" x="30" y="25.883789"/>
  <use xlink:href="#glyph0-2" x="34" y="25.883789"/>
  <use xlink:href="#glyph0-3" x="36" y="25.883789"/>
  <use xlink:href="#glyph0-4" x="38" y="25.883789"/>
  <use xlink:href="#glyph0-5" x="40" y="25.883789"/>
</g>
<g style="fill:rgb(100%,52.54902%,18.431373%);fill-opacity:1;">
  <use xlink:href="#glyph1-1" x="42" y="25.883789"/>
  <use xlink:href="#glyph1-2" x="48" y="25.883789"/>
</g>
</g>
</svg>
