<?xml version="1.0" encoding="UTF-8"?>
<svg xmlns="http://www.w3.org/2000/svg" xmlns:xlink="http://www.w3.org/1999/xlink" width="854pt" height="480pt" viewBox="0 0 854 480" version="1.1">
<defs>
<g>
<symbol overflow="visible" id="glyph0-0">
<path style="stroke:none;" d="M 0.1875 0 L 0.1875 -3.78125 L 1.6875 -3.78125 L 1.6875 0 Z M 0.375 -0.1875 L 1.5 -0.1875 L 1.5 -3.59375 L 0.375 -3.59375 Z "/>
</symbol>
<symbol overflow="visible" id="glyph0-1">
<path style="stroke:none;" d="M 0.875 -2.046875 L 2.765625 -2.046875 L 2.765625 -2.625 L 1.484375 -2.625 C 1.304688 -2.625 1.125 -2.617188 0.9375 -2.609375 C 0.945312 -2.703125 0.945312 -2.796875 0.9375 -2.890625 C 1.125 -2.890625 1.304688 -2.890625 1.484375 -2.890625 L 4.796875 -2.890625 L 4.796875 -1.78125 L 3.140625 -1.78125 L 3.140625 -1.234375 L 5.140625 -1.234375 L 5.140625 -0.078125 C 5.140625 0.0234375 5.085938 0.125 4.984375 0.21875 C 4.828125 0.34375 4.554688 0.40625 4.171875 0.40625 C 4.210938 0.226562 4.171875 0.078125 4.046875 -0.046875 C 4.160156 -0.0351562 4.300781 -0.03125 4.46875 -0.03125 C 4.632812 -0.03125 4.722656 -0.0351562 4.734375 -0.046875 C 4.753906 -0.0664062 4.765625 -0.0976562 4.765625 -0.140625 L 4.765625 -0.984375 L 3.140625 -0.984375 L 3.140625 -0.046875 C 3.140625 0.203125 3.144531 0.457031 3.15625 0.71875 C 3.019531 0.695312 2.878906 0.695312 2.734375 0.71875 C 2.753906 0.457031 2.765625 0.203125 2.765625 -0.046875 L 2.765625 -0.90625 C 2.453125 -0.53125 2.085938 -0.203125 1.671875 0.078125 C 1.253906 0.359375 0.804688 0.554688 0.328125 0.671875 C 0.304688 0.515625 0.242188 0.375 0.140625 0.25 C 0.453125 0.195312 0.753906 0.109375 1.046875 -0.015625 C 1.347656 -0.148438 1.582031 -0.289062 1.75 -0.4375 C 1.925781 -0.59375 2.101562 -0.773438 2.28125 -0.984375 L 0.875 -0.984375 Z M 2.765625 -1.234375 L 2.765625 -1.78125 L 1.25 -1.78125 L 1.25 -1.234375 Z M 3.140625 -2.046875 L 4.421875 -2.046875 L 4.421875 -2.625 L 3.140625 -2.625 Z M 3.515625 -4.578125 C 3.640625 -4.535156 3.773438 -4.503906 3.921875 -4.484375 C 3.878906 -4.328125 3.820312 -4.175781 3.75 -4.03125 L 4.90625 -4.03125 C 5.082031 -4.03125 5.253906 -4.03125 5.421875 -4.03125 C 5.410156 -3.957031 5.410156 -3.878906 5.421875 -3.796875 C 5.253906 -3.804688 5.082031 -3.8125 4.90625 -3.8125 L 4.140625 -3.8125 L 4.46875 -3.1875 L 4.09375 -3.046875 L 3.75 -3.703125 L 4.015625 -3.8125 L 3.625 -3.8125 C 3.425781 -3.488281 3.195312 -3.203125 2.9375 -2.953125 C 2.851562 -3.035156 2.75 -3.09375 2.625 -3.125 C 3.039062 -3.507812 3.335938 -3.992188 3.515625 -4.578125 Z M 1.265625 -4.59375 C 1.378906 -4.539062 1.503906 -4.5 1.640625 -4.46875 C 1.566406 -4.300781 1.488281 -4.144531 1.40625 -4 L 2.546875 -4 C 2.710938 -4 2.882812 -4.003906 3.0625 -4.015625 C 3.050781 -3.929688 3.050781 -3.847656 3.0625 -3.765625 C 2.882812 -3.773438 2.710938 -3.78125 2.546875 -3.78125 L 1.828125 -3.78125 L 2.09375 -3.0625 L 1.703125 -2.953125 L 1.40625 -3.765625 L 1.484375 -3.78125 L 1.265625 -3.78125 C 1.023438 -3.414062 0.765625 -3.078125 0.484375 -2.765625 C 0.398438 -2.835938 0.289062 -2.882812 0.15625 -2.90625 C 0.476562 -3.25 0.765625 -3.648438 1.015625 -4.109375 Z "/>
</symbol>
<symbol overflow="visible" id="glyph0-2">
<path style="stroke:none;" d="M 4.765625 -1.75 C 4.890625 -1.664062 5.019531 -1.59375 5.15625 -1.53125 C 4.695312 -0.695312 4 -0.09375 3.0625 0.28125 C 2.726562 0.40625 2.332031 0.53125 1.875 0.65625 C 1.425781 0.789062 1.078125 0.867188 0.828125 0.890625 C 0.671875 0.660156 0.453125 0.507812 0.171875 0.4375 L 1.109375 0.375 C 2.890625 0.226562 4.109375 -0.476562 4.765625 -1.75 Z M 1.578125 -1.796875 C 1.703125 -1.710938 1.828125 -1.644531 1.953125 -1.59375 C 1.640625 -0.988281 1.140625 -0.476562 0.453125 -0.0625 C 0.398438 -0.1875 0.316406 -0.285156 0.203125 -0.359375 C 0.515625 -0.535156 0.769531 -0.734375 0.96875 -0.953125 C 1.175781 -1.179688 1.378906 -1.460938 1.578125 -1.796875 Z M 3.1875 -0.46875 C 3.039062 -0.488281 2.898438 -0.488281 2.765625 -0.46875 C 2.773438 -0.738281 2.78125 -1.007812 2.78125 -1.28125 L 2.78125 -2.09375 L 0.9375 -2.09375 C 0.726562 -2.09375 0.519531 -2.085938 0.3125 -2.078125 C 0.320312 -2.191406 0.320312 -2.304688 0.3125 -2.421875 C 0.519531 -2.398438 0.726562 -2.390625 0.9375 -2.390625 L 1.328125 -2.390625 L 1.328125 -3.28125 C 1.328125 -3.539062 1.320312 -3.804688 1.3125 -4.078125 C 1.445312 -4.054688 1.585938 -4.054688 1.734375 -4.078125 C 1.722656 -3.804688 1.71875 -3.539062 1.71875 -3.28125 L 1.71875 -2.390625 L 2.78125 -2.390625 L 2.78125 -3.859375 C 2.78125 -4.117188 2.773438 -4.382812 2.765625 -4.65625 C 2.910156 -4.644531 3.054688 -4.644531 3.203125 -4.65625 C 3.179688 -4.382812 3.171875 -4.117188 3.171875 -3.859375 L 3.171875 -3.6875 L 4.234375 -3.6875 C 4.441406 -3.6875 4.648438 -3.691406 4.859375 -3.703125 C 4.835938 -3.597656 4.835938 -3.488281 4.859375 -3.375 C 4.648438 -3.382812 4.441406 -3.390625 4.234375 -3.390625 L 3.171875 -3.390625 L 3.171875 -2.390625 L 4.8125 -2.390625 C 5.019531 -2.390625 5.226562 -2.398438 5.4375 -2.421875 C 5.425781 -2.304688 5.425781 -2.191406 5.4375 -2.078125 C 5.226562 -2.085938 5.019531 -2.09375 4.8125 -2.09375 L 3.171875 -2.09375 L 3.171875 -1.28125 C 3.171875 -1.007812 3.175781 -0.738281 3.1875 -0.46875 Z "/>
</symbol>
<symbol overflow="visible" id="glyph0-3">
<path style="stroke:none;" d="M 3.15625 -2.234375 L 2.515625 -2.234375 L 2.515625 -2.875 L 3.15625 -2.875 Z M 3.15625 0 L 2.515625 0 L 2.515625 -0.640625 L 3.15625 -0.640625 Z "/>
</symbol>
<symbol overflow="visible" id="glyph0-4">
<path style="stroke:none;" d="M 3.1875 -0.984375 C 2.976562 -1.429688 2.75 -1.859375 2.5 -2.265625 L 2.875 -2.5 C 3.132812 -2.070312 3.367188 -1.632812 3.578125 -1.1875 Z M 4.203125 -0.125 L 4.203125 -3.015625 L 2.984375 -3.015625 C 2.773438 -3.015625 2.566406 -3.007812 2.359375 -3 C 2.367188 -3.101562 2.367188 -3.210938 2.359375 -3.328125 C 2.566406 -3.316406 2.773438 -3.3125 2.984375 -3.3125 L 4.203125 -3.3125 L 4.203125 -3.859375 C 4.203125 -4.128906 4.195312 -4.394531 4.1875 -4.65625 C 4.332031 -4.644531 4.476562 -4.644531 4.625 -4.65625 C 4.601562 -4.394531 4.59375 -4.128906 4.59375 -3.859375 L 4.59375 -3.3125 L 4.859375 -3.3125 C 5.066406 -3.3125 5.273438 -3.316406 5.484375 -3.328125 C 5.472656 -3.210938 5.472656 -3.101562 5.484375 -3 C 5.273438 -3.007812 5.066406 -3.015625 4.859375 -3.015625 L 4.59375 -3.015625 L 4.59375 0.03125 C 4.59375 0.289062 4.519531 0.472656 4.375 0.578125 C 4.21875 0.679688 3.957031 0.726562 3.59375 0.71875 C 3.632812 0.539062 3.59375 0.382812 3.46875 0.25 C 3.582031 0.257812 3.710938 0.265625 3.859375 0.265625 C 4.003906 0.265625 4.097656 0.25 4.140625 0.21875 C 4.179688 0.1875 4.203125 0.0703125 4.203125 -0.125 Z M 0.859375 -0.1875 L 0.375 -0.1875 L 0.375 -4.171875 L 2.125 -4.171875 L 2.125 -0.1875 L 1.65625 -0.1875 L 1.65625 -0.515625 L 0.859375 -0.515625 Z M 1.65625 -2.484375 L 1.65625 -3.875 L 0.859375 -3.875 L 0.859375 -2.484375 Z M 1.65625 -2.203125 L 0.859375 -2.203125 L 0.859375 -0.796875 L 1.65625 -0.796875 Z "/>
</symbol>
<symbol overflow="visible" id="glyph0-5">
<path style="stroke:none;" d="M 2.046875 -0.328125 L 1.65625 -0.328125 L 1.65625 -3.21875 L 3.828125 -3.21875 L 3.828125 -0.328125 L 3.4375 -0.328125 L 3.4375 -0.609375 L 2.046875 -0.609375 Z M 3.4375 -2.078125 L 3.4375 -2.90625 L 2.046875 -2.90625 L 2.046875 -2.078125 Z M 3.4375 -1.765625 L 2.046875 -1.765625 L 2.046875 -0.90625 L 3.4375 -0.90625 Z M 4.109375 0.703125 C 4.140625 0.503906 4.097656 0.347656 3.984375 0.234375 C 4.097656 0.242188 4.226562 0.25 4.375 0.25 C 4.53125 0.25 4.628906 0.234375 4.671875 0.203125 C 4.710938 0.171875 4.734375 0.0664062 4.734375 -0.109375 L 4.734375 -3.890625 L 2.640625 -3.890625 C 2.441406 -3.890625 2.25 -3.882812 2.0625 -3.875 C 2.070312 -3.976562 2.070312 -4.085938 2.0625 -4.203125 C 2.25 -4.191406 2.441406 -4.1875 2.640625 -4.1875 L 5.125 -4.1875 L 5.125 0.03125 C 5.125 0.34375 5.003906 0.539062 4.765625 0.625 C 4.554688 0.6875 4.335938 0.710938 4.109375 0.703125 Z M 0.84375 0.75 C 0.695312 0.726562 0.554688 0.726562 0.421875 0.75 C 0.429688 0.488281 0.4375 0.226562 0.4375 -0.03125 L 0.4375 -3.03125 C 0.4375 -3.289062 0.429688 -3.550781 0.421875 -3.8125 C 0.554688 -3.800781 0.695312 -3.800781 0.84375 -3.8125 C 0.832031 -3.550781 0.828125 -3.289062 0.828125 -3.03125 L 0.828125 -0.03125 C 0.828125 0.226562 0.832031 0.488281 0.84375 0.75 Z M 1.515625 -3.46875 C 1.304688 -3.78125 1.082031 -4.070312 0.84375 -4.34375 L 1.15625 -4.640625 C 1.414062 -4.347656 1.65625 -4.035156 1.875 -3.703125 Z "/>
</symbol>
<symbol overflow="visible" id="glyph0-6">
<path style="stroke:none;" d="M 1.765625 0.1875 L 1.765625 -0.59375 C 1.316406 -0.226562 0.847656 0.0507812 0.359375 0.25 C 0.316406 0.09375 0.234375 -0.03125 0.109375 -0.125 C 0.398438 -0.226562 0.707031 -0.367188 1.03125 -0.546875 C 1.351562 -0.734375 1.632812 -0.953125 1.875 -1.203125 C 1.976562 -1.304688 2.101562 -1.445312 2.25 -1.625 L 1.828125 -1.625 L 1.828125 -1.375 L 1.4375 -1.375 L 1.4375 -2.375 L 0.84375 -2.375 C 0.664062 -2.375 0.484375 -2.367188 0.296875 -2.359375 C 0.304688 -2.460938 0.304688 -2.5625 0.296875 -2.65625 C 0.484375 -2.644531 0.664062 -2.640625 0.84375 -2.640625 L 1.4375 -2.640625 L 1.4375 -3.4375 L 4.25 -3.4375 L 4.25 -2.640625 L 4.828125 -2.640625 C 5.015625 -2.640625 5.203125 -2.644531 5.390625 -2.65625 C 5.378906 -2.5625 5.378906 -2.460938 5.390625 -2.359375 C 5.203125 -2.367188 5.015625 -2.375 4.828125 -2.375 L 4.25 -2.375 L 4.25 -1.390625 L 4.453125 -1.546875 C 4.523438 -1.421875 4.609375 -1.3125 4.703125 -1.21875 C 4.492188 -1.039062 4.191406 -0.832031 3.796875 -0.59375 C 4.203125 -0.175781 4.738281 0.109375 5.40625 0.265625 C 5.289062 0.359375 5.210938 0.476562 5.171875 0.625 C 4.566406 0.46875 4.066406 0.1875 3.671875 -0.21875 C 3.296875 -0.601562 2.984375 -1.050781 2.734375 -1.5625 C 2.546875 -1.332031 2.351562 -1.125 2.15625 -0.9375 L 2.15625 0.15625 L 3.4375 -0.21875 L 3.46875 0.0625 C 3.3125 0.09375 3.066406 0.171875 2.734375 0.296875 C 2.410156 0.421875 2.109375 0.546875 1.828125 0.671875 L 1.71875 0.296875 C 1.75 0.265625 1.765625 0.226562 1.765625 0.1875 Z M 5.203125 -4.125 C 5.191406 -4.019531 5.191406 -3.921875 5.203125 -3.828125 C 5.015625 -3.828125 4.832031 -3.828125 4.65625 -3.828125 L 1.015625 -3.828125 C 0.828125 -3.828125 0.640625 -3.828125 0.453125 -3.828125 C 0.460938 -3.921875 0.460938 -4.019531 0.453125 -4.125 C 0.640625 -4.113281 0.828125 -4.109375 1.015625 -4.109375 L 2.609375 -4.109375 L 2.15625 -4.484375 L 2.421875 -4.8125 L 3.078125 -4.265625 L 2.953125 -4.109375 L 4.65625 -4.109375 C 4.832031 -4.109375 5.015625 -4.113281 5.203125 -4.125 Z M 3.875 -1.375 L 3.875 -1.625 L 3.078125 -1.625 C 3.222656 -1.34375 3.378906 -1.09375 3.546875 -0.875 C 3.703125 -0.976562 3.925781 -1.144531 4.21875 -1.375 Z M 3.875 -2.640625 L 3.875 -3.15625 L 1.828125 -3.15625 C 1.828125 -2.988281 1.828125 -2.816406 1.828125 -2.640625 Z M 3.875 -2.375 L 1.828125 -2.375 L 1.828125 -1.890625 L 3.875 -1.890625 Z "/>
</symbol>
<symbol overflow="visible" id="glyph0-7">
<path style="stroke:none;" d="M 4.890625 -3.953125 L 4.59375 -3.6875 L 4.03125 -4.28125 L 4.328125 -4.5625 Z M 4.90625 -2.546875 C 4.757812 -1.898438 4.570312 -1.296875 4.34375 -0.734375 C 4.507812 -0.410156 4.726562 -0.132812 5 0.09375 C 5 -0.144531 4.988281 -0.382812 4.96875 -0.625 C 5.09375 -0.539062 5.234375 -0.503906 5.390625 -0.515625 C 5.421875 -0.191406 5.421875 0.132812 5.390625 0.46875 C 5.390625 0.539062 5.363281 0.59375 5.3125 0.625 C 5.238281 0.6875 5.160156 0.691406 5.078125 0.640625 C 4.703125 0.378906 4.390625 0.0507812 4.140625 -0.34375 C 3.765625 0.300781 3.25 0.691406 2.59375 0.828125 C 2.582031 0.671875 2.523438 0.535156 2.421875 0.421875 C 2.835938 0.347656 3.1875 0.171875 3.46875 -0.109375 C 3.65625 -0.273438 3.8125 -0.484375 3.9375 -0.734375 C 3.695312 -1.234375 3.570312 -1.84375 3.5625 -2.5625 C 3.5625 -2.84375 3.5625 -3.085938 3.5625 -3.296875 L 1.90625 -3.296875 L 1.90625 -1.1875 C 1.894531 -0.664062 1.785156 -0.242188 1.578125 0.078125 C 1.410156 0.316406 1.21875 0.503906 1 0.640625 C 0.925781 0.503906 0.816406 0.410156 0.671875 0.359375 C 1.222656 0.117188 1.503906 -0.394531 1.515625 -1.1875 L 1.515625 -3.5625 L 3.5625 -3.5625 L 3.546875 -4.65625 C 3.679688 -4.644531 3.816406 -4.644531 3.953125 -4.65625 L 3.9375 -3.5625 L 4.859375 -3.5625 C 5.035156 -3.5625 5.210938 -3.566406 5.390625 -3.578125 C 5.378906 -3.484375 5.378906 -3.390625 5.390625 -3.296875 C 5.210938 -3.296875 5.035156 -3.296875 4.859375 -3.296875 L 3.9375 -3.296875 C 3.9375 -3.097656 3.9375 -2.898438 3.9375 -2.703125 C 3.9375 -2.171875 4.003906 -1.675781 4.140625 -1.21875 C 4.285156 -1.6875 4.394531 -2.171875 4.46875 -2.671875 C 4.613281 -2.617188 4.757812 -2.578125 4.90625 -2.546875 Z M 2.09375 -0.984375 L 2.09375 -2.078125 L 3.375 -2.078125 L 3.375 -0.46875 L 2.46875 -0.46875 C 2.476562 -0.382812 2.484375 -0.300781 2.484375 -0.21875 C 2.347656 -0.226562 2.210938 -0.226562 2.078125 -0.21875 C 2.085938 -0.46875 2.09375 -0.722656 2.09375 -0.984375 Z M 3.390625 -2.8125 C 3.378906 -2.71875 3.378906 -2.625 3.390625 -2.53125 L 2.71875 -2.53125 C 2.539062 -2.53125 2.363281 -2.53125 2.1875 -2.53125 C 2.1875 -2.625 2.1875 -2.71875 2.1875 -2.8125 L 2.859375 -2.796875 C 3.035156 -2.796875 3.210938 -2.800781 3.390625 -2.8125 Z M 2.46875 -1.8125 L 2.46875 -0.75 L 3 -0.75 L 3 -1.8125 Z M 0.546875 0.40625 C 0.453125 0.300781 0.328125 0.242188 0.171875 0.234375 C 0.273438 -0.046875 0.378906 -0.367188 0.484375 -0.734375 C 0.585938 -1.097656 0.738281 -1.726562 0.9375 -2.625 L 1.109375 -2.46875 C 0.929688 -1.59375 0.800781 -0.9375 0.71875 -0.5 Z M 0.765625 -2.984375 C 0.578125 -3.296875 0.375 -3.585938 0.15625 -3.859375 L 0.359375 -4.1875 C 0.585938 -3.90625 0.804688 -3.601562 1.015625 -3.28125 Z "/>
</symbol>
<symbol overflow="visible" id="glyph1-0">
<path style="stroke:none;" d="M 0.28125 1 L 0.28125 -4 L 3.125 -4 L 3.125 1 Z M 0.59375 0.6875 L 2.796875 0.6875 L 2.796875 -3.6875 L 0.59375 -3.6875 Z "/>
</symbol>
<symbol overflow="visible" id="glyph1-1">
<path style="stroke:none;" d="M 0.546875 -3.953125 C 0.765625 -4.035156 0.972656 -4.097656 1.171875 -4.140625 C 1.367188 -4.179688 1.554688 -4.203125 1.734375 -4.203125 C 2.140625 -4.203125 2.453125 -4.113281 2.671875 -3.9375 C 2.898438 -3.769531 3.015625 -3.53125 3.015625 -3.21875 C 3.015625 -2.96875 2.9375 -2.757812 2.78125 -2.59375 C 2.625 -2.425781 2.398438 -2.3125 2.109375 -2.25 C 2.453125 -2.207031 2.71875 -2.085938 2.90625 -1.890625 C 3.09375 -1.691406 3.1875 -1.429688 3.1875 -1.109375 C 3.1875 -0.722656 3.054688 -0.425781 2.796875 -0.21875 C 2.535156 -0.0195312 2.160156 0.078125 1.671875 0.078125 C 1.460938 0.078125 1.253906 0.0507812 1.046875 0 C 0.835938 -0.0390625 0.632812 -0.109375 0.4375 -0.203125 L 0.4375 -1 L 0.75 -1 C 0.757812 -0.738281 0.84375 -0.535156 1 -0.390625 C 1.164062 -0.253906 1.394531 -0.1875 1.6875 -0.1875 C 1.96875 -0.1875 2.191406 -0.269531 2.359375 -0.4375 C 2.523438 -0.601562 2.609375 -0.828125 2.609375 -1.109375 C 2.609375 -1.429688 2.519531 -1.675781 2.34375 -1.84375 C 2.175781 -2.007812 1.929688 -2.09375 1.609375 -2.09375 L 1.34375 -2.09375 L 1.34375 -2.375 L 1.484375 -2.375 C 1.804688 -2.375 2.046875 -2.441406 2.203125 -2.578125 C 2.367188 -2.710938 2.453125 -2.914062 2.453125 -3.1875 C 2.453125 -3.425781 2.382812 -3.609375 2.25 -3.734375 C 2.125 -3.867188 1.9375 -3.9375 1.6875 -3.9375 C 1.4375 -3.9375 1.238281 -3.875 1.09375 -3.75 C 0.957031 -3.632812 0.878906 -3.460938 0.859375 -3.234375 L 0.546875 -3.234375 Z "/>
</symbol>
</g>
</defs>
<g id="surface47">
<g style="fill:rgb(100%,100%,100%);fill-opacity:1;">
  <use xlink:href="#glyph0-1" x="30" y="25.457031"/>
</g>
<g style="fill:rgb(100%,100%,100%);fill-opacity:1;">
  <use xlink:href="#glyph1-1" x="36" y="25.457031"/>
</g>
<g style="fill:rgb(100%,100%,100%);fill-opacity:1;">
  <use xlink:href="#glyph0-2" x="40" y="25.457031"/>
  <use xlink:href="#glyph0-3" x="46" y="25.457031"/>
  <use xlink:href="#glyph0-4" x="52" y="25.457031"/>
  <use xlink:href="#glyph0-5" x="58" y="25.457031"/>
  <use xlink:href="#glyph0-6" x="64" y="25.457031"/>
  <use xlink:href="#glyph0-7" x="70" y="25.457031"/>
</g>
</g>
</svg>
