<?xml version="1.0" encoding="UTF-8"?>
<svg xmlns="http://www.w3.org/2000/svg" xmlns:xlink="http://www.w3.org/1999/xlink" width="1280pt" height="720pt" viewBox="0 0 1280 720" version="1.1">
<defs>
<g>
<symbol overflow="visible" id="glyph0-0">
<path style="stroke:none;" d="M 0.328125 1.1875 L 0.328125 -4.734375 L 3.6875 -4.734375 L 3.6875 1.1875 Z M 0.71875 0.8125 L 3.3125 0.8125 L 3.3125 -4.359375 L 0.71875 -4.359375 Z "/>
</symbol>
<symbol overflow="visible" id="glyph0-1">
<path style="stroke:none;" d="M 0.375 0 L 0.375 -0.34375 L 1 -0.34375 L 1 -4.546875 L 0.375 -4.546875 L 0.375 -4.890625 L 2.28125 -4.890625 L 2.28125 -4.546875 L 1.65625 -4.546875 L 1.65625 -0.40625 L 3.890625 -0.40625 L 3.890625 -1.21875 L 4.296875 -1.21875 L 4.296875 0 Z "/>
</symbol>
<symbol overflow="visible" id="glyph0-2">
<path style="stroke:none;" d="M 2.015625 -0.234375 C 2.335938 -0.234375 2.582031 -0.359375 2.75 -0.609375 C 2.914062 -0.867188 3 -1.25 3 -1.75 C 3 -2.25 2.914062 -2.625 2.75 -2.875 C 2.582031 -3.125 2.335938 -3.25 2.015625 -3.25 C 1.691406 -3.25 1.445312 -3.125 1.28125 -2.875 C 1.125 -2.625 1.046875 -2.25 1.046875 -1.75 C 1.046875 -1.25 1.125 -0.867188 1.28125 -0.609375 C 1.445312 -0.359375 1.691406 -0.234375 2.015625 -0.234375 Z M 2.015625 0.09375 C 1.515625 0.09375 1.109375 -0.0703125 0.796875 -0.40625 C 0.484375 -0.738281 0.328125 -1.1875 0.328125 -1.75 C 0.328125 -2.300781 0.476562 -2.742188 0.78125 -3.078125 C 1.09375 -3.410156 1.503906 -3.578125 2.015625 -3.578125 C 2.523438 -3.578125 2.929688 -3.410156 3.234375 -3.078125 C 3.546875 -2.742188 3.703125 -2.300781 3.703125 -1.75 C 3.703125 -1.1875 3.546875 -0.738281 3.234375 -0.40625 C 2.929688 -0.0703125 2.523438 0.09375 2.015625 0.09375 Z "/>
</symbol>
<symbol overflow="visible" id="glyph0-3">
<path style="stroke:none;" d="M 3.21875 -3.484375 L 4.125 -0.765625 L 4.90625 -3.140625 L 4.40625 -3.140625 L 4.40625 -3.484375 L 5.65625 -3.484375 L 5.65625 -3.140625 L 5.28125 -3.140625 L 4.234375 0 L 3.734375 0 L 2.875 -2.609375 L 2.015625 0 L 1.53125 0 L 0.5 -3.140625 L 0.109375 -3.140625 L 0.109375 -3.484375 L 1.6875 -3.484375 L 1.6875 -3.140625 L 1.125 -3.140625 L 1.90625 -0.765625 L 2.796875 -3.484375 Z "/>
</symbol>
<symbol overflow="visible" id="glyph0-4">
<path style="stroke:none;" d=""/>
</symbol>
<symbol overflow="visible" id="glyph0-5">
<path style="stroke:none;" d="M 2.015625 -0.234375 C 2.335938 -0.234375 2.582031 -0.359375 2.75 -0.609375 C 2.914062 -0.867188 3 -1.25 3 -1.75 C 3 -2.195312 2.914062 -2.5625 2.75 -2.84375 C 2.601562 -3.082031 2.359375 -3.203125 2.015625 -3.203125 C 1.679688 -3.203125 1.4375 -3.082031 1.28125 -2.84375 C 1.125 -2.582031 1.046875 -2.21875 1.046875 -1.75 C 1.046875 -1.25 1.125 -0.867188 1.28125 -0.609375 C 1.445312 -0.359375 1.691406 -0.234375 2.015625 -0.234375 Z M 2.03125 -3.484375 C 2.914062 -3.484375 3.703125 -3.484375 4.390625 -3.484375 L 4.390625 -3.140625 L 3.1875 -3.140625 C 3.53125 -2.804688 3.703125 -2.34375 3.703125 -1.75 C 3.703125 -1.1875 3.546875 -0.738281 3.234375 -0.40625 C 2.929688 -0.0703125 2.523438 0.09375 2.015625 0.09375 C 1.515625 0.09375 1.109375 -0.0703125 0.796875 -0.40625 C 0.484375 -0.738281 0.328125 -1.179688 0.328125 -1.734375 C 0.328125 -2.296875 0.484375 -2.742188 0.796875 -3.078125 C 1.046875 -3.347656 1.457031 -3.484375 2.03125 -3.484375 Z "/>
</symbol>
<symbol overflow="visible" id="glyph0-6">
<path style="stroke:none;" d="M 0.71875 -3.03125 L 4.921875 -3.03125 L 4.921875 -2.515625 L 0.71875 -2.515625 Z M 0.71875 -1.703125 L 4.921875 -1.703125 L 4.921875 -1.171875 L 0.71875 -1.171875 Z "/>
</symbol>
<symbol overflow="visible" id="glyph0-7">
<path style="stroke:none;" d="M 0.953125 0 L 0.953125 -0.34375 L 1.8125 -0.34375 L 1.8125 -4.421875 L 0.8125 -3.78125 L 0.8125 -4.21875 L 2.015625 -4.984375 L 2.46875 -4.984375 L 2.46875 -0.34375 L 3.3125 -0.34375 L 3.3125 0 Z "/>
</symbol>
<symbol overflow="visible" id="glyph0-8">
<path style="stroke:none;" d="M 2.140625 -0.234375 C 2.472656 -0.234375 2.722656 -0.414062 2.890625 -0.78125 C 3.054688 -1.144531 3.140625 -1.695312 3.140625 -2.4375 C 3.140625 -3.1875 3.054688 -3.742188 2.890625 -4.109375 C 2.722656 -4.472656 2.472656 -4.65625 2.140625 -4.65625 C 1.804688 -4.65625 1.554688 -4.472656 1.390625 -4.109375 C 1.222656 -3.742188 1.140625 -3.1875 1.140625 -2.4375 C 1.140625 -1.695312 1.222656 -1.144531 1.390625 -0.78125 C 1.554688 -0.414062 1.804688 -0.234375 2.140625 -0.234375 Z M 2.140625 0.09375 C 1.609375 0.09375 1.191406 -0.128906 0.890625 -0.578125 C 0.585938 -1.023438 0.4375 -1.644531 0.4375 -2.4375 C 0.4375 -3.238281 0.585938 -3.863281 0.890625 -4.3125 C 1.191406 -4.757812 1.609375 -4.984375 2.140625 -4.984375 C 2.671875 -4.984375 3.082031 -4.757812 3.375 -4.3125 C 3.675781 -3.863281 3.828125 -3.238281 3.828125 -2.4375 C 3.828125 -1.644531 3.675781 -1.023438 3.375 -0.578125 C 3.082031 -0.128906 2.671875 0.09375 2.140625 0.09375 Z "/>
</symbol>
<symbol overflow="visible" id="glyph0-9">
<path style="stroke:none;" d="M 1.5 -4.6875 C 1.3125 -4.6875 1.160156 -4.59375 1.046875 -4.40625 C 0.941406 -4.226562 0.890625 -3.972656 0.890625 -3.640625 C 0.890625 -3.328125 0.941406 -3.078125 1.046875 -2.890625 C 1.160156 -2.703125 1.3125 -2.609375 1.5 -2.609375 C 1.6875 -2.609375 1.832031 -2.695312 1.9375 -2.875 C 2.050781 -3.0625 2.109375 -3.316406 2.109375 -3.640625 C 2.109375 -3.972656 2.050781 -4.226562 1.9375 -4.40625 C 1.832031 -4.59375 1.6875 -4.6875 1.5 -4.6875 Z M 4.890625 -2.28125 C 4.691406 -2.28125 4.539062 -2.1875 4.4375 -2 C 4.332031 -1.8125 4.28125 -1.554688 4.28125 -1.234375 C 4.28125 -0.910156 4.332031 -0.65625 4.4375 -0.46875 C 4.550781 -0.289062 4.703125 -0.203125 4.890625 -0.203125 C 5.078125 -0.203125 5.222656 -0.289062 5.328125 -0.46875 C 5.429688 -0.65625 5.484375 -0.910156 5.484375 -1.234375 C 5.484375 -1.554688 5.425781 -1.8125 5.3125 -2 C 5.207031 -2.1875 5.066406 -2.28125 4.890625 -2.28125 Z M 4.890625 -2.578125 C 5.234375 -2.578125 5.503906 -2.453125 5.703125 -2.203125 C 5.910156 -1.960938 6.015625 -1.640625 6.015625 -1.234375 C 6.015625 -0.828125 5.910156 -0.503906 5.703125 -0.265625 C 5.503906 -0.0234375 5.234375 0.09375 4.890625 0.09375 C 4.535156 0.09375 4.253906 -0.0234375 4.046875 -0.265625 C 3.847656 -0.503906 3.75 -0.828125 3.75 -1.234375 C 3.75 -1.648438 3.847656 -1.976562 4.046875 -2.21875 C 4.253906 -2.457031 4.535156 -2.578125 4.890625 -2.578125 Z M 4.46875 -4.984375 L 4.96875 -4.984375 L 1.90625 0.09375 L 1.40625 0.09375 Z M 1.5 -4.984375 C 1.84375 -4.984375 2.117188 -4.863281 2.328125 -4.625 C 2.535156 -4.382812 2.640625 -4.0625 2.640625 -3.65625 C 2.640625 -3.238281 2.535156 -2.910156 2.328125 -2.671875 C 2.117188 -2.429688 1.84375 -2.3125 1.5 -2.3125 C 1.15625 -2.3125 0.878906 -2.429688 0.671875 -2.671875 C 0.472656 -2.910156 0.375 -3.238281 0.375 -3.65625 C 0.375 -4.0625 0.472656 -4.382812 0.671875 -4.625 C 0.878906 -4.863281 1.15625 -4.984375 1.5 -4.984375 Z "/>
</symbol>
</g>
</defs>
<g id="surface2">
<g style="fill:rgb(61.176471%,86.27451%,92.156863%);fill-opacity:1;">
  <use xlink:href="#glyph0-1" x="30" y="26.240234"/>
  <use xlink:href="#glyph0-2" x="34" y="26.240234"/>
  <use xlink:href="#glyph0-3" x="38" y="26.240234"/>
  <use xlink:href="#glyph0-4" x="44" y="26.240234"/>
</g>
<g style="fill:rgb(61.176471%,86.27451%,92.156863%);fill-opacity:1;">
  <use xlink:href="#glyph0-5" x="46" y="26.240234"/>
  <use xlink:href="#glyph0-4" x="51" y="26.240234"/>
  <use xlink:href="#glyph0-6" x="53" y="26.240234"/>
  <use xlink:href="#glyph0-4" x="59" y="26.240234"/>
  <use xlink:href="#glyph0-7" x="61" y="26.240234"/>
  <use xlink:href="#glyph0-8" x="65" y="26.240234"/>
  <use xlink:href="#glyph0-9" x="69" y="26.240234"/>
</g>
</g>
</svg>
