<?xml version="1.0" encoding="UTF-8"?>
<svg xmlns="http://www.w3.org/2000/svg" xmlns:xlink="http://www.w3.org/1999/xlink" width="1280pt" height="720pt" viewBox="0 0 1280 720" version="1.1">
<defs>
<g>
<symbol overflow="visible" id="glyph0-0">
<path style="stroke:none;" d="M 0.1875 0 L 0.1875 -3.65625 L 1.640625 -3.65625 L 1.640625 0 Z M 0.359375 -0.1875 L 1.46875 -0.1875 L 1.46875 -3.484375 L 0.359375 -3.484375 Z "/>
</symbol>
<symbol overflow="visible" id="glyph0-1">
<path style="stroke:none;" d="M 1.875 -1.671875 L 2.453125 -1.859375 C 2.453125 -2.078125 2.445312 -2.300781 2.4375 -2.53125 C 2.570312 -2.507812 2.710938 -2.507812 2.859375 -2.53125 C 2.847656 -2.34375 2.84375 -2.160156 2.84375 -1.984375 L 3.46875 -2.203125 L 3.46875 -2.28125 C 3.46875 -2.539062 3.460938 -2.800781 3.453125 -3.0625 C 3.585938 -3.039062 3.726562 -3.039062 3.875 -3.0625 C 3.851562 -2.8125 3.84375 -2.566406 3.84375 -2.328125 L 4.890625 -2.6875 L 4.890625 -1.03125 C 4.890625 -0.914062 4.847656 -0.820312 4.765625 -0.75 C 4.617188 -0.59375 4.40625 -0.515625 4.125 -0.515625 C 4.15625 -0.703125 4.117188 -0.867188 4.015625 -1.015625 C 4.179688 -0.960938 4.335938 -0.953125 4.484375 -0.984375 C 4.503906 -0.992188 4.515625 -1.035156 4.515625 -1.109375 L 4.515625 -2.25 L 3.84375 -2.03125 L 3.84375 -1.109375 C 3.84375 -0.847656 3.851562 -0.59375 3.875 -0.34375 C 3.726562 -0.351562 3.585938 -0.351562 3.453125 -0.34375 C 3.460938 -0.59375 3.46875 -0.847656 3.46875 -1.109375 L 3.46875 -1.890625 L 2.84375 -1.6875 L 2.84375 0.015625 C 2.84375 0.078125 2.859375 0.128906 2.890625 0.171875 C 2.921875 0.222656 2.96875 0.25 3.03125 0.25 L 4.71875 0.25 C 4.78125 0.25 4.832031 0.222656 4.875 0.171875 C 4.914062 0.117188 4.941406 0.0507812 4.953125 -0.03125 L 5.046875 -0.671875 C 5.160156 -0.597656 5.285156 -0.5625 5.421875 -0.5625 L 5.265625 0.25 C 5.253906 0.34375 5.222656 0.421875 5.171875 0.484375 C 5.128906 0.546875 5.066406 0.578125 4.984375 0.578125 L 3.015625 0.578125 C 2.847656 0.578125 2.710938 0.523438 2.609375 0.421875 C 2.503906 0.316406 2.453125 0.179688 2.453125 0.015625 L 2.453125 -1.5625 C 2.296875 -1.507812 2.132812 -1.445312 1.96875 -1.375 C 1.945312 -1.476562 1.914062 -1.578125 1.875 -1.671875 Z M 5.140625 -3.5625 C 5.128906 -3.457031 5.128906 -3.351562 5.140625 -3.25 C 4.953125 -3.257812 4.757812 -3.265625 4.5625 -3.265625 L 2.765625 -3.265625 C 2.703125 -3.148438 2.628906 -3.019531 2.546875 -2.875 L 2.28125 -2.453125 C 2.1875 -2.546875 2.070312 -2.597656 1.9375 -2.609375 C 2.113281 -2.867188 2.265625 -3.128906 2.390625 -3.390625 C 2.515625 -3.660156 2.65625 -4.003906 2.8125 -4.421875 C 2.9375 -4.359375 3.066406 -4.316406 3.203125 -4.296875 C 3.117188 -4.035156 3.019531 -3.785156 2.90625 -3.546875 L 4.5625 -3.546875 C 4.757812 -3.546875 4.953125 -3.550781 5.140625 -3.5625 Z M -0.015625 -1.796875 C 0.316406 -1.859375 0.632812 -1.945312 0.9375 -2.0625 L 0.9375 -3.0625 L 0.609375 -3.0625 C 0.421875 -3.0625 0.226562 -3.054688 0.03125 -3.046875 C 0.0390625 -3.171875 0.0390625 -3.289062 0.03125 -3.40625 C 0.226562 -3.394531 0.421875 -3.390625 0.609375 -3.390625 L 0.9375 -3.390625 L 0.9375 -3.640625 C 0.9375 -3.910156 0.929688 -4.179688 0.921875 -4.453125 C 1.046875 -4.429688 1.171875 -4.429688 1.296875 -4.453125 C 1.285156 -4.179688 1.28125 -3.910156 1.28125 -3.640625 L 1.28125 -3.390625 L 1.5 -3.390625 C 1.6875 -3.390625 1.875 -3.394531 2.0625 -3.40625 C 2.050781 -3.289062 2.050781 -3.171875 2.0625 -3.046875 C 1.875 -3.054688 1.6875 -3.0625 1.5 -3.0625 L 1.28125 -3.0625 L 1.28125 -2.203125 C 1.5 -2.304688 1.753906 -2.425781 2.046875 -2.5625 L 2.078125 -2.265625 L 1.28125 -1.90625 L 1.28125 0.078125 C 1.269531 0.429688 1.148438 0.644531 0.921875 0.71875 C 0.753906 0.757812 0.59375 0.773438 0.4375 0.765625 C 0.457031 0.566406 0.421875 0.410156 0.328125 0.296875 C 0.421875 0.304688 0.523438 0.3125 0.640625 0.3125 C 0.765625 0.3125 0.84375 0.296875 0.875 0.265625 C 0.914062 0.234375 0.9375 0.125 0.9375 -0.0625 L 0.9375 -1.75 L 0.734375 -1.65625 C 0.535156 -1.550781 0.335938 -1.441406 0.140625 -1.328125 C 0.117188 -1.515625 0.0664062 -1.671875 -0.015625 -1.796875 Z "/>
</symbol>
<symbol overflow="visible" id="glyph0-2">
<path style="stroke:none;" d="M 5.125 0.578125 C 4.78125 0.234375 4.421875 -0.0859375 4.046875 -0.390625 L 4.296875 -0.703125 C 4.679688 -0.390625 5.050781 -0.0546875 5.40625 0.296875 Z M 1.671875 -0.640625 C 1.753906 -0.535156 1.847656 -0.441406 1.953125 -0.359375 C 1.554688 0.0859375 1.015625 0.410156 0.328125 0.609375 C 0.304688 0.472656 0.253906 0.363281 0.171875 0.28125 C 0.472656 0.195312 0.738281 0.0820312 0.96875 -0.0625 C 1.195312 -0.207031 1.429688 -0.398438 1.671875 -0.640625 Z M 2.78125 0.140625 L 2.78125 -0.90625 L 0.75 -0.75 L 0.734375 -1.015625 C 1.066406 -1.097656 1.671875 -1.328125 2.546875 -1.703125 L 0.96875 -1.65625 L 0.953125 -1.921875 C 1.085938 -1.929688 1.300781 -2.003906 1.59375 -2.140625 C 1.894531 -2.273438 2.164062 -2.414062 2.40625 -2.5625 L 0.9375 -2.5625 C 0.976562 -3.144531 0.976562 -3.726562 0.9375 -4.3125 L 4.734375 -4.3125 C 4.679688 -3.726562 4.679688 -3.144531 4.734375 -2.5625 L 2.953125 -2.5625 C 2.972656 -2.53125 3 -2.5 3.03125 -2.46875 C 2.644531 -2.25 2.285156 -2.070312 1.953125 -1.9375 L 2.90625 -1.953125 L 3.140625 -1.96875 C 3.535156 -2.144531 3.820312 -2.289062 4 -2.40625 C 4.050781 -2.269531 4.113281 -2.140625 4.1875 -2.015625 C 4.050781 -1.941406 3.796875 -1.832031 3.421875 -1.6875 L 1.953125 -1.09375 L 3.8125 -1.21875 L 4.140625 -1.265625 L 4.015625 -1.359375 L 4.28125 -1.671875 C 4.5625 -1.421875 4.8125 -1.140625 5.03125 -0.828125 L 4.703125 -0.59375 C 4.609375 -0.738281 4.492188 -0.878906 4.359375 -1.015625 L 3.828125 -1 L 3.15625 -0.953125 L 3.15625 0.21875 C 3.15625 0.320312 3.101562 0.421875 3 0.515625 C 2.84375 0.640625 2.578125 0.703125 2.203125 0.703125 C 2.242188 0.523438 2.207031 0.375 2.09375 0.25 C 2.195312 0.269531 2.328125 0.28125 2.484375 0.28125 C 2.648438 0.28125 2.738281 0.269531 2.75 0.25 C 2.769531 0.226562 2.78125 0.191406 2.78125 0.140625 Z M 3.015625 -3.546875 L 4.359375 -3.546875 L 4.359375 -4.0625 L 3.015625 -4.0625 Z M 2.65625 -3.546875 L 2.65625 -4.0625 L 1.3125 -4.0625 L 1.3125 -3.546875 Z M 3.015625 -3.3125 L 3.015625 -2.828125 L 4.359375 -2.828125 L 4.359375 -3.3125 Z M 2.65625 -3.3125 L 1.3125 -3.3125 L 1.3125 -2.828125 L 2.65625 -2.828125 Z "/>
</symbol>
<symbol overflow="visible" id="glyph1-0">
<path style="stroke:none;" d="M 0.28125 0.96875 L 0.28125 -3.875 L 3.03125 -3.875 L 3.03125 0.96875 Z M 0.578125 0.671875 L 2.71875 0.671875 L 2.71875 -3.5625 L 0.578125 -3.5625 Z "/>
</symbol>
<symbol overflow="visible" id="glyph1-1">
<path style="stroke:none;" d=""/>
</symbol>
<symbol overflow="visible" id="glyph1-2">
<path style="stroke:none;" d="M 4.03125 -1.640625 L 4.03125 -1.25 C 3.851562 -1.082031 3.679688 -0.960938 3.515625 -0.890625 C 3.359375 -0.816406 3.195312 -0.78125 3.03125 -0.78125 C 2.863281 -0.78125 2.628906 -0.835938 2.328125 -0.953125 C 2.304688 -0.960938 2.285156 -0.96875 2.265625 -0.96875 C 2.253906 -0.976562 2.226562 -0.988281 2.1875 -1 C 1.914062 -1.101562 1.695312 -1.15625 1.53125 -1.15625 C 1.363281 -1.15625 1.203125 -1.125 1.046875 -1.0625 C 0.898438 -1 0.742188 -0.898438 0.578125 -0.765625 L 0.578125 -1.15625 C 0.765625 -1.3125 0.9375 -1.425781 1.09375 -1.5 C 1.25 -1.570312 1.410156 -1.609375 1.578125 -1.609375 C 1.753906 -1.609375 2 -1.550781 2.3125 -1.4375 L 2.34375 -1.421875 C 2.351562 -1.421875 2.378906 -1.410156 2.421875 -1.390625 C 2.679688 -1.296875 2.894531 -1.25 3.0625 -1.25 C 3.226562 -1.25 3.390625 -1.28125 3.546875 -1.34375 C 3.710938 -1.40625 3.875 -1.503906 4.03125 -1.640625 Z M 4.03125 -2.6875 L 4.03125 -2.296875 C 3.851562 -2.128906 3.679688 -2.007812 3.515625 -1.9375 C 3.359375 -1.863281 3.195312 -1.828125 3.03125 -1.828125 C 2.851562 -1.828125 2.609375 -1.890625 2.296875 -2.015625 L 2.265625 -2.015625 C 2.253906 -2.023438 2.226562 -2.035156 2.1875 -2.046875 C 1.914062 -2.148438 1.695312 -2.203125 1.53125 -2.203125 C 1.363281 -2.203125 1.203125 -2.171875 1.046875 -2.109375 C 0.898438 -2.046875 0.742188 -1.945312 0.578125 -1.8125 L 0.578125 -2.203125 C 0.765625 -2.359375 0.9375 -2.472656 1.09375 -2.546875 C 1.25 -2.617188 1.410156 -2.65625 1.578125 -2.65625 C 1.753906 -2.65625 2 -2.597656 2.3125 -2.484375 L 2.34375 -2.46875 C 2.351562 -2.46875 2.378906 -2.457031 2.421875 -2.4375 C 2.679688 -2.332031 2.894531 -2.28125 3.0625 -2.28125 C 3.226562 -2.28125 3.390625 -2.3125 3.546875 -2.375 C 3.710938 -2.445312 3.875 -2.550781 4.03125 -2.6875 Z "/>
</symbol>
<symbol overflow="visible" id="glyph1-3">
<path style="stroke:none;" d="M 0.78125 0 L 0.78125 -0.28125 L 1.484375 -0.28125 L 1.484375 -3.625 L 0.671875 -3.09375 L 0.671875 -3.453125 L 1.65625 -4.078125 L 2.015625 -4.078125 L 2.015625 -0.28125 L 2.71875 -0.28125 L 2.71875 0 Z "/>
</symbol>
<symbol overflow="visible" id="glyph1-4">
<path style="stroke:none;" d="M 0.53125 -3.84375 C 0.738281 -3.914062 0.9375 -3.972656 1.125 -4.015625 C 1.320312 -4.054688 1.503906 -4.078125 1.671875 -4.078125 C 2.066406 -4.078125 2.375 -3.992188 2.59375 -3.828125 C 2.8125 -3.660156 2.921875 -3.425781 2.921875 -3.125 C 2.921875 -2.882812 2.84375 -2.679688 2.6875 -2.515625 C 2.539062 -2.359375 2.328125 -2.25 2.046875 -2.1875 C 2.378906 -2.144531 2.632812 -2.023438 2.8125 -1.828125 C 3 -1.640625 3.09375 -1.390625 3.09375 -1.078125 C 3.09375 -0.703125 2.96875 -0.414062 2.71875 -0.21875 C 2.46875 -0.0195312 2.101562 0.078125 1.625 0.078125 C 1.414062 0.078125 1.210938 0.0507812 1.015625 0 C 0.816406 -0.0390625 0.617188 -0.101562 0.421875 -0.1875 L 0.421875 -0.96875 L 0.71875 -0.96875 C 0.738281 -0.707031 0.828125 -0.507812 0.984375 -0.375 C 1.140625 -0.25 1.359375 -0.1875 1.640625 -0.1875 C 1.910156 -0.1875 2.125 -0.265625 2.28125 -0.421875 C 2.445312 -0.578125 2.53125 -0.796875 2.53125 -1.078125 C 2.53125 -1.390625 2.445312 -1.625 2.28125 -1.78125 C 2.113281 -1.945312 1.875 -2.03125 1.5625 -2.03125 L 1.3125 -2.03125 L 1.3125 -2.3125 L 1.4375 -2.3125 C 1.75 -2.3125 1.984375 -2.375 2.140625 -2.5 C 2.296875 -2.632812 2.375 -2.832031 2.375 -3.09375 C 2.375 -3.320312 2.3125 -3.5 2.1875 -3.625 C 2.0625 -3.75 1.878906 -3.8125 1.640625 -3.8125 C 1.390625 -3.8125 1.195312 -3.753906 1.0625 -3.640625 C 0.9375 -3.523438 0.859375 -3.359375 0.828125 -3.140625 L 0.53125 -3.140625 Z "/>
</symbol>
<symbol overflow="visible" id="glyph1-5">
<path style="stroke:none;" d="M 0.515625 -0.28125 C 0.515625 -0.382812 0.546875 -0.46875 0.609375 -0.53125 C 0.679688 -0.601562 0.769531 -0.640625 0.875 -0.640625 C 0.96875 -0.640625 1.050781 -0.601562 1.125 -0.53125 C 1.195312 -0.46875 1.234375 -0.382812 1.234375 -0.28125 C 1.234375 -0.175781 1.195312 -0.0859375 1.125 -0.015625 C 1.050781 0.046875 0.96875 0.078125 0.875 0.078125 C 0.769531 0.078125 0.679688 0.046875 0.609375 -0.015625 C 0.546875 -0.0859375 0.515625 -0.175781 0.515625 -0.28125 Z "/>
</symbol>
<symbol overflow="visible" id="glyph1-6">
<path style="stroke:none;" d="M 1.921875 -1.359375 L 1.921875 -3.484375 L 0.546875 -1.359375 Z M 3.109375 0 L 1.28125 0 L 1.28125 -0.28125 L 1.921875 -0.28125 L 1.921875 -1.078125 L 0.171875 -1.078125 L 0.171875 -1.359375 L 1.921875 -4.078125 L 2.453125 -4.078125 L 2.453125 -1.359375 L 3.21875 -1.359375 L 3.21875 -1.078125 L 2.453125 -1.078125 L 2.453125 -0.28125 L 3.109375 -0.28125 Z "/>
</symbol>
<symbol overflow="visible" id="glyph1-7">
<path style="stroke:none;" d="M 1.234375 -3.828125 C 1.078125 -3.828125 0.953125 -3.753906 0.859375 -3.609375 C 0.773438 -3.460938 0.734375 -3.253906 0.734375 -2.984375 C 0.734375 -2.722656 0.773438 -2.515625 0.859375 -2.359375 C 0.953125 -2.210938 1.078125 -2.140625 1.234375 -2.140625 C 1.390625 -2.140625 1.507812 -2.210938 1.59375 -2.359375 C 1.6875 -2.515625 1.734375 -2.722656 1.734375 -2.984375 C 1.734375 -3.253906 1.6875 -3.460938 1.59375 -3.609375 C 1.507812 -3.753906 1.390625 -3.828125 1.234375 -3.828125 Z M 4 -1.859375 C 3.84375 -1.859375 3.71875 -1.78125 3.625 -1.625 C 3.539062 -1.476562 3.5 -1.273438 3.5 -1.015625 C 3.5 -0.753906 3.539062 -0.546875 3.625 -0.390625 C 3.71875 -0.242188 3.84375 -0.171875 4 -0.171875 C 4.15625 -0.171875 4.273438 -0.242188 4.359375 -0.390625 C 4.453125 -0.546875 4.5 -0.753906 4.5 -1.015625 C 4.5 -1.273438 4.453125 -1.476562 4.359375 -1.625 C 4.273438 -1.78125 4.15625 -1.859375 4 -1.859375 Z M 4 -2.109375 C 4.28125 -2.109375 4.503906 -2.007812 4.671875 -1.8125 C 4.835938 -1.613281 4.921875 -1.347656 4.921875 -1.015625 C 4.921875 -0.679688 4.835938 -0.414062 4.671875 -0.21875 C 4.503906 -0.0195312 4.28125 0.078125 4 0.078125 C 3.707031 0.078125 3.476562 -0.0195312 3.3125 -0.21875 C 3.144531 -0.414062 3.0625 -0.679688 3.0625 -1.015625 C 3.0625 -1.347656 3.144531 -1.613281 3.3125 -1.8125 C 3.488281 -2.007812 3.71875 -2.109375 4 -2.109375 Z M 3.65625 -4.078125 L 4.078125 -4.078125 L 1.5625 0.078125 L 1.15625 0.078125 Z M 1.234375 -4.078125 C 1.515625 -4.078125 1.738281 -3.976562 1.90625 -3.78125 C 2.070312 -3.59375 2.15625 -3.328125 2.15625 -2.984375 C 2.15625 -2.648438 2.070312 -2.382812 1.90625 -2.1875 C 1.738281 -2 1.515625 -1.90625 1.234375 -1.90625 C 0.941406 -1.90625 0.710938 -2 0.546875 -2.1875 C 0.378906 -2.382812 0.296875 -2.648438 0.296875 -2.984375 C 0.296875 -3.316406 0.378906 -3.582031 0.546875 -3.78125 C 0.710938 -3.976562 0.941406 -4.078125 1.234375 -4.078125 Z "/>
</symbol>
</g>
</defs>
<g id="surface33">
<g style="fill:rgb(81.176471%,31.372549%,26.666667%);fill-opacity:1;">
  <use xlink:href="#glyph0-1" x="30" y="25.295898"/>
  <use xlink:href="#glyph0-2" x="36" y="25.295898"/>
</g>
<g style="fill:rgb(81.176471%,31.372549%,26.666667%);fill-opacity:1;">
  <use xlink:href="#glyph1-1" x="42" y="25.295898"/>
  <use xlink:href="#glyph1-2" x="44" y="25.295898"/>
  <use xlink:href="#glyph1-1" x="49" y="25.295898"/>
  <use xlink:href="#glyph1-3" x="51" y="25.295898"/>
  <use xlink:href="#glyph1-4" x="54" y="25.295898"/>
  <use xlink:href="#glyph1-5" x="57" y="25.295898"/>
  <use xlink:href="#glyph1-6" x="59" y="25.295898"/>
  <use xlink:href="#glyph1-7" x="62" y="25.295898"/>
</g>
</g>
</svg>
