<?xml version="1.0" encoding="UTF-8"?>
<svg xmlns="http://www.w3.org/2000/svg" xmlns:xlink="http://www.w3.org/1999/xlink" width="854pt" height="480pt" viewBox="0 0 854 480" version="1.1">
<defs>
<g>
<symbol overflow="visible" id="glyph0-0">
<path style="stroke:none;" d="M 0.21875 0 L 0.21875 -4.4375 L 2 -4.4375 L 2 0 Z M 0.4375 -0.21875 L 1.765625 -0.21875 L 1.765625 -4.21875 L 0.4375 -4.21875 Z "/>
</symbol>
<symbol overflow="visible" id="glyph0-1">
<path style="stroke:none;" d="M 6.015625 0.234375 C 6.003906 0.347656 6.003906 0.460938 6.015625 0.578125 C 5.804688 0.566406 5.59375 0.5625 5.375 0.5625 L 1.4375 0.5625 C 1.226562 0.5625 1.019531 0.566406 0.8125 0.578125 C 0.820312 0.460938 0.820312 0.347656 0.8125 0.234375 C 1.019531 0.242188 1.226562 0.25 1.4375 0.25 L 3.09375 0.25 L 3.09375 -0.59375 L 2.375 -0.59375 C 2.164062 -0.59375 1.957031 -0.585938 1.75 -0.578125 C 1.757812 -0.691406 1.757812 -0.804688 1.75 -0.921875 C 1.957031 -0.910156 2.164062 -0.90625 2.375 -0.90625 L 3.09375 -0.90625 C 3.09375 -1.175781 3.085938 -1.453125 3.078125 -1.734375 C 3.234375 -1.710938 3.394531 -1.710938 3.5625 -1.734375 C 3.550781 -1.453125 3.539062 -1.175781 3.53125 -0.90625 L 4.359375 -0.90625 C 4.566406 -0.90625 4.773438 -0.910156 4.984375 -0.921875 C 4.972656 -0.804688 4.972656 -0.691406 4.984375 -0.578125 C 4.773438 -0.585938 4.566406 -0.59375 4.359375 -0.59375 L 3.53125 -0.59375 L 3.53125 0.25 L 5.375 0.25 C 5.59375 0.25 5.804688 0.242188 6.015625 0.234375 Z M 0.921875 -2 C 0.710938 -2 0.5 -2 0.28125 -2 C 0.300781 -2.101562 0.300781 -2.210938 0.28125 -2.328125 C 0.5 -2.316406 0.710938 -2.3125 0.921875 -2.3125 L 1.90625 -2.3125 L 1.90625 -4.515625 L 1.171875 -4.515625 C 0.960938 -4.515625 0.753906 -4.507812 0.546875 -4.5 C 0.554688 -4.613281 0.554688 -4.722656 0.546875 -4.828125 C 0.753906 -4.828125 0.960938 -4.828125 1.171875 -4.828125 L 1.90625 -4.828125 C 1.894531 -5.046875 1.890625 -5.265625 1.890625 -5.484375 C 2.046875 -5.460938 2.203125 -5.460938 2.359375 -5.484375 C 2.359375 -5.265625 2.351562 -5.046875 2.34375 -4.828125 L 4.34375 -4.828125 C 4.332031 -5.035156 4.320312 -5.242188 4.3125 -5.453125 C 4.476562 -5.429688 4.640625 -5.429688 4.796875 -5.453125 C 4.785156 -5.242188 4.78125 -5.035156 4.78125 -4.828125 L 5.5 -4.828125 C 5.707031 -4.828125 5.921875 -4.828125 6.140625 -4.828125 C 6.128906 -4.722656 6.128906 -4.613281 6.140625 -4.5 C 5.921875 -4.507812 5.707031 -4.515625 5.5 -4.515625 L 4.78125 -4.515625 L 4.78125 -2.3125 L 5.671875 -2.3125 C 5.878906 -2.3125 6.09375 -2.316406 6.3125 -2.328125 C 6.289062 -2.210938 6.289062 -2.101562 6.3125 -2 C 6.09375 -2 5.878906 -2 5.671875 -2 L 4.546875 -2 C 4.796875 -1.695312 5.054688 -1.460938 5.328125 -1.296875 C 5.597656 -1.128906 5.941406 -0.988281 6.359375 -0.875 C 6.222656 -0.769531 6.132812 -0.632812 6.09375 -0.46875 C 5.707031 -0.570312 5.332031 -0.765625 4.96875 -1.046875 C 4.613281 -1.335938 4.304688 -1.65625 4.046875 -2 L 2.625 -2 C 2.15625 -1.226562 1.414062 -0.644531 0.40625 -0.25 C 0.375 -0.394531 0.300781 -0.519531 0.1875 -0.625 C 0.5625 -0.769531 0.894531 -0.953125 1.1875 -1.171875 C 1.476562 -1.390625 1.765625 -1.664062 2.046875 -2 Z M 4.34375 -4.515625 L 2.34375 -4.515625 L 2.34375 -3.984375 L 3.890625 -3.984375 C 4.035156 -3.984375 4.1875 -3.988281 4.34375 -4 Z M 4.34375 -3.15625 L 4.34375 -3.6875 C 4.1875 -3.695312 4.035156 -3.703125 3.890625 -3.703125 L 2.34375 -3.703125 L 2.34375 -3.15625 Z M 4.34375 -2.3125 L 4.34375 -2.859375 L 2.34375 -2.859375 L 2.34375 -2.3125 Z "/>
</symbol>
<symbol overflow="visible" id="glyph0-2">
<path style="stroke:none;" d="M 6.390625 0.171875 C 6.378906 0.296875 6.378906 0.421875 6.390625 0.546875 C 6.171875 0.535156 5.945312 0.53125 5.71875 0.53125 L 2.046875 0.53125 C 1.828125 0.53125 1.601562 0.535156 1.375 0.546875 C 1.382812 0.421875 1.382812 0.296875 1.375 0.171875 C 1.601562 0.191406 1.828125 0.203125 2.046875 0.203125 L 3.59375 0.203125 L 3.59375 -0.96875 L 2.625 -0.96875 C 2.394531 -0.96875 2.171875 -0.960938 1.953125 -0.953125 C 1.515625 -0.390625 1.019531 0.0976562 0.46875 0.515625 C 0.382812 0.347656 0.253906 0.222656 0.078125 0.140625 C 0.921875 -0.441406 1.601562 -1.164062 2.125 -2.03125 L 1.171875 -2.03125 C 0.941406 -2.03125 0.71875 -2.023438 0.5 -2.015625 C 0.507812 -2.140625 0.507812 -2.265625 0.5 -2.390625 C 0.71875 -2.367188 0.941406 -2.359375 1.171875 -2.359375 L 2.3125 -2.359375 C 2.414062 -2.566406 2.507812 -2.773438 2.59375 -2.984375 L 1.765625 -2.984375 C 1.535156 -2.984375 1.3125 -2.976562 1.09375 -2.96875 C 1.101562 -3.09375 1.101562 -3.21875 1.09375 -3.34375 C 1.3125 -3.320312 1.535156 -3.3125 1.765625 -3.3125 L 2.71875 -3.3125 C 2.789062 -3.53125 2.851562 -3.75 2.90625 -3.96875 L 1.328125 -3.96875 C 1.097656 -3.96875 0.867188 -3.960938 0.640625 -3.953125 C 0.660156 -4.078125 0.660156 -4.195312 0.640625 -4.3125 C 0.867188 -4.300781 1.097656 -4.296875 1.328125 -4.296875 L 2.390625 -4.296875 C 2.179688 -4.578125 1.957031 -4.84375 1.71875 -5.09375 L 2.078125 -5.4375 C 2.390625 -5.113281 2.675781 -4.769531 2.9375 -4.40625 L 2.796875 -4.296875 L 3.8125 -4.296875 C 4.039062 -4.597656 4.300781 -4.972656 4.59375 -5.421875 C 4.726562 -5.316406 4.867188 -5.226562 5.015625 -5.15625 C 4.890625 -4.9375 4.679688 -4.648438 4.390625 -4.296875 L 5.5625 -4.296875 C 5.78125 -4.296875 6.003906 -4.300781 6.234375 -4.3125 C 6.210938 -4.195312 6.210938 -4.078125 6.234375 -3.953125 C 6.003906 -3.960938 5.78125 -3.96875 5.5625 -3.96875 L 4.125 -3.96875 L 4.09375 -3.9375 C 4.082031 -3.945312 4.070312 -3.957031 4.0625 -3.96875 L 3.421875 -3.96875 C 3.359375 -3.75 3.285156 -3.53125 3.203125 -3.3125 L 5.046875 -3.3125 C 5.265625 -3.3125 5.488281 -3.320312 5.71875 -3.34375 C 5.707031 -3.21875 5.707031 -3.09375 5.71875 -2.96875 C 5.488281 -2.976562 5.265625 -2.984375 5.046875 -2.984375 L 3.078125 -2.984375 C 2.992188 -2.773438 2.90625 -2.566406 2.8125 -2.359375 L 5.6875 -2.359375 C 5.914062 -2.359375 6.140625 -2.367188 6.359375 -2.390625 C 6.347656 -2.265625 6.347656 -2.140625 6.359375 -2.015625 C 6.140625 -2.023438 5.914062 -2.03125 5.6875 -2.03125 L 2.640625 -2.03125 C 2.503906 -1.78125 2.359375 -1.539062 2.203125 -1.3125 L 5.125 -1.296875 C 5.34375 -1.296875 5.566406 -1.304688 5.796875 -1.328125 C 5.785156 -1.203125 5.785156 -1.078125 5.796875 -0.953125 C 5.566406 -0.960938 5.34375 -0.96875 5.125 -0.96875 L 4.046875 -0.96875 L 4.046875 0.203125 L 5.71875 0.203125 C 5.945312 0.203125 6.171875 0.191406 6.390625 0.171875 Z "/>
</symbol>
</g>
</defs>
<g id="surface82">
<g style="fill:rgb(100%,100%,100%);fill-opacity:1;">
  <use xlink:href="#glyph0-1" x="30" y="26.419922"/>
  <use xlink:href="#glyph0-2" x="37" y="26.419922"/>
</g>
</g>
</svg>
