<?xml version="1.0" encoding="UTF-8"?>
<svg xmlns="http://www.w3.org/2000/svg" xmlns:xlink="http://www.w3.org/1999/xlink" width="1280pt" height="720pt" viewBox="0 0 1280 720" version="1.1">
<defs>
<g>
<symbol overflow="visible" id="glyph0-0">
<path style="stroke:none;" d="M 0.359375 1.296875 L 0.359375 -5.171875 L 4.03125 -5.171875 L 4.03125 1.296875 Z M 0.78125 0.890625 L 3.625 0.890625 L 3.625 -4.75 L 0.78125 -4.75 Z "/>
</symbol>
<symbol overflow="visible" id="glyph0-1">
<path style="stroke:none;" d="M 4.984375 0 L 0.28125 0 L 2.328125 -5.34375 L 2.9375 -5.34375 Z M 4.015625 -0.375 L 2.453125 -4.46875 L 0.875 -0.375 Z "/>
</symbol>
<symbol overflow="visible" id="glyph0-2">
<path style="stroke:none;" d="M 0.40625 0 L 0.40625 -0.375 L 1.078125 -0.375 L 1.078125 -4.953125 L 0.40625 -4.953125 L 0.40625 -5.34375 L 4.78125 -5.34375 L 4.78125 -4.15625 L 4.34375 -4.15625 L 4.34375 -4.90625 L 1.8125 -4.90625 L 1.8125 -3.109375 L 3.640625 -3.109375 L 3.640625 -3.78125 L 4.078125 -3.78125 L 4.078125 -2 L 3.640625 -2 L 3.640625 -2.671875 L 1.8125 -2.671875 L 1.8125 -0.375 L 2.671875 -0.375 L 2.671875 0 Z "/>
</symbol>
</g>
</defs>
<g id="surface42">
<g style="fill:rgb(100%,52.54902%,18.431373%);fill-opacity:1;">
  <use xlink:href="#glyph0-1" x="30" y="26.806641"/>
</g>
<g style="fill:rgb(100%,52.54902%,18.431373%);fill-opacity:1;">
  <use xlink:href="#glyph0-2" x="35" y="26.806641"/>
</g>
</g>
</svg>
