<?xml version="1.0" encoding="UTF-8"?>
<svg xmlns="http://www.w3.org/2000/svg" xmlns:xlink="http://www.w3.org/1999/xlink" width="854pt" height="480pt" viewBox="0 0 854 480" version="1.1">
<defs>
<g>
<symbol overflow="visible" id="glyph0-0">
<path style="stroke:none;" d="M 0.28125 0.984375 L 0.28125 -3.921875 L 3.0625 -3.921875 L 3.0625 0.984375 Z M 0.59375 0.671875 L 2.75 0.671875 L 2.75 -3.609375 L 0.59375 -3.609375 Z "/>
</symbol>
<symbol overflow="visible" id="glyph0-1">
<path style="stroke:none;" d="M 0.96875 -3.765625 L 2.171875 -0.65625 L 3.359375 -3.765625 L 2.90625 -3.765625 L 2.90625 -4.0625 L 4.09375 -4.0625 L 4.09375 -3.765625 L 3.703125 -3.765625 L 2.25 0 L 1.796875 0 L 0.34375 -3.765625 L -0.046875 -3.765625 L -0.046875 -4.0625 L 1.421875 -4.0625 L 1.421875 -3.765625 Z "/>
</symbol>
<symbol overflow="visible" id="glyph0-2">
<path style="stroke:none;" d=""/>
</symbol>
<symbol overflow="visible" id="glyph0-3">
<path style="stroke:none;" d="M 1.78125 0.859375 C 1.332031 0.671875 0.992188 0.363281 0.765625 -0.0625 C 0.546875 -0.5 0.4375 -1.035156 0.4375 -1.671875 C 0.4375 -2.316406 0.546875 -2.851562 0.765625 -3.28125 C 0.992188 -3.71875 1.332031 -4.03125 1.78125 -4.21875 L 1.78125 -3.953125 C 1.5 -3.765625 1.296875 -3.492188 1.171875 -3.140625 C 1.046875 -2.796875 0.984375 -2.304688 0.984375 -1.671875 C 0.984375 -1.046875 1.046875 -0.554688 1.171875 -0.203125 C 1.296875 0.140625 1.5 0.40625 1.78125 0.59375 Z "/>
</symbol>
<symbol overflow="visible" id="glyph0-4">
<path style="stroke:none;" d="M 0.390625 0.859375 L 0.390625 0.59375 C 0.671875 0.40625 0.867188 0.140625 0.984375 -0.203125 C 1.109375 -0.554688 1.171875 -1.046875 1.171875 -1.671875 C 1.171875 -2.304688 1.109375 -2.796875 0.984375 -3.140625 C 0.867188 -3.492188 0.671875 -3.765625 0.390625 -3.953125 L 0.390625 -4.21875 C 0.835938 -4.03125 1.171875 -3.71875 1.390625 -3.28125 C 1.617188 -2.851562 1.734375 -2.316406 1.734375 -1.671875 C 1.734375 -1.035156 1.617188 -0.5 1.390625 -0.0625 C 1.171875 0.363281 0.835938 0.671875 0.390625 0.859375 Z "/>
</symbol>
<symbol overflow="visible" id="glyph1-0">
<path style="stroke:none;" d="M 0.1875 0 L 0.1875 -3.703125 L 1.65625 -3.703125 L 1.65625 0 Z M 0.375 -0.1875 L 1.484375 -0.1875 L 1.484375 -3.515625 L 0.375 -3.515625 Z "/>
</symbol>
<symbol overflow="visible" id="glyph1-1">
<path style="stroke:none;" d="M 4.765625 -0.078125 L 4.765625 -1.265625 L 3.796875 -1.265625 C 3.742188 -0.421875 3.4375 0.21875 2.875 0.65625 C 2.789062 0.519531 2.671875 0.4375 2.515625 0.40625 C 3.128906 0.0507812 3.4375 -0.597656 3.4375 -1.546875 L 3.4375 -4.1875 L 5.125 -4.1875 L 5.125 0.0625 C 5.125 0.300781 5.050781 0.46875 4.90625 0.5625 C 4.757812 0.65625 4.519531 0.703125 4.1875 0.703125 C 4.226562 0.535156 4.1875 0.382812 4.0625 0.25 C 4.164062 0.257812 4.285156 0.265625 4.421875 0.265625 C 4.566406 0.273438 4.660156 0.265625 4.703125 0.234375 C 4.742188 0.203125 4.765625 0.0976562 4.765625 -0.078125 Z M 2.5625 0.21875 C 2.375 -0.09375 2.164062 -0.390625 1.9375 -0.671875 L 2.25 -0.921875 C 2.488281 -0.628906 2.707031 -0.316406 2.90625 0.015625 Z M 3.171875 -1.21875 C 3.160156 -1.125 3.160156 -1.03125 3.171875 -0.9375 C 3.003906 -0.945312 2.835938 -0.953125 2.671875 -0.953125 L 1.125 -0.953125 C 1.238281 -0.898438 1.363281 -0.851562 1.5 -0.8125 C 1.332031 -0.3125 1 0.15625 0.5 0.59375 C 0.4375 0.476562 0.34375 0.398438 0.21875 0.359375 C 0.4375 0.179688 0.609375 -0.00390625 0.734375 -0.203125 C 0.867188 -0.410156 1 -0.660156 1.125 -0.953125 L 0.609375 -0.953125 C 0.441406 -0.953125 0.269531 -0.945312 0.09375 -0.9375 C 0.101562 -1.03125 0.101562 -1.125 0.09375 -1.21875 C 0.269531 -1.207031 0.441406 -1.203125 0.609375 -1.203125 L 0.859375 -1.203125 L 0.859375 -3.5625 L 0.234375 -3.546875 C 0.242188 -3.640625 0.242188 -3.734375 0.234375 -3.828125 L 0.859375 -3.8125 C 0.859375 -4.050781 0.851562 -4.289062 0.84375 -4.53125 C 0.96875 -4.519531 1.097656 -4.519531 1.234375 -4.53125 C 1.222656 -4.289062 1.21875 -4.050781 1.21875 -3.8125 L 2.25 -3.8125 C 2.25 -4.050781 2.242188 -4.289062 2.234375 -4.53125 C 2.367188 -4.519531 2.503906 -4.519531 2.640625 -4.53125 C 2.628906 -4.289062 2.625 -4.050781 2.625 -3.8125 L 3.140625 -3.828125 C 3.128906 -3.734375 3.128906 -3.640625 3.140625 -3.546875 L 2.625 -3.5625 L 2.625 -1.203125 Z M 4.765625 -2.828125 L 4.765625 -3.9375 L 3.796875 -3.9375 L 3.796875 -2.828125 Z M 4.765625 -1.5 L 4.765625 -2.609375 L 3.796875 -2.609375 L 3.796875 -1.5 Z M 2.25 -3 L 2.25 -3.5625 L 1.21875 -3.5625 L 1.21875 -3.015625 Z M 2.25 -2.125 L 2.25 -2.75 L 1.21875 -2.75 L 1.21875 -2.125 Z M 2.25 -1.203125 L 2.25 -1.875 L 1.21875 -1.859375 L 1.21875 -1.203125 Z "/>
</symbol>
<symbol overflow="visible" id="glyph1-2">
<path style="stroke:none;" d="M 4.953125 -4.078125 C 4.867188 -2.847656 4.570312 -1.816406 4.0625 -0.984375 C 4.425781 -0.484375 4.867188 -0.0664062 5.390625 0.265625 C 5.242188 0.316406 5.128906 0.410156 5.046875 0.546875 C 4.566406 0.234375 4.160156 -0.164062 3.828125 -0.65625 C 3.410156 -0.113281 2.882812 0.300781 2.25 0.59375 C 2.15625 0.476562 2.035156 0.378906 1.890625 0.296875 C 2.585938 0.015625 3.160156 -0.421875 3.609375 -1.015625 C 3.148438 -1.796875 2.875 -2.710938 2.78125 -3.765625 C 2.6875 -3.765625 2.597656 -3.757812 2.515625 -3.75 C 2.523438 -3.863281 2.523438 -3.976562 2.515625 -4.09375 C 2.722656 -4.082031 2.929688 -4.078125 3.140625 -4.078125 Z M 3.140625 -3.765625 C 3.234375 -2.804688 3.460938 -2 3.828125 -1.34375 C 4.242188 -2.007812 4.492188 -2.816406 4.578125 -3.765625 Z M 0.40625 -0.234375 C 0.289062 -0.328125 0.144531 -0.382812 -0.03125 -0.40625 C 0.113281 -0.613281 0.273438 -0.863281 0.453125 -1.15625 C 0.640625 -1.457031 0.796875 -1.769531 0.921875 -2.09375 C 1.046875 -2.414062 1.15625 -2.738281 1.25 -3.0625 L 0.8125 -3.0625 C 0.601562 -3.0625 0.390625 -3.054688 0.171875 -3.046875 C 0.191406 -3.160156 0.191406 -3.273438 0.171875 -3.390625 C 0.390625 -3.378906 0.601562 -3.375 0.8125 -3.375 L 1.359375 -3.375 L 1.359375 -3.703125 C 1.359375 -3.960938 1.347656 -4.226562 1.328125 -4.5 C 1.472656 -4.476562 1.617188 -4.476562 1.765625 -4.5 C 1.753906 -4.226562 1.75 -3.960938 1.75 -3.703125 L 1.75 -3.375 L 2.515625 -3.390625 C 2.503906 -3.273438 2.503906 -3.160156 2.515625 -3.046875 L 1.75 -3.0625 L 1.75 -2.375 L 1.921875 -2.5 C 2.171875 -2.164062 2.398438 -1.8125 2.609375 -1.4375 L 2.21875 -1.234375 C 2.125 -1.410156 2.019531 -1.582031 1.90625 -1.75 L 1.75 -2 L 1.75 -0.0625 C 1.75 0.207031 1.753906 0.472656 1.765625 0.734375 C 1.617188 0.722656 1.472656 0.722656 1.328125 0.734375 C 1.347656 0.472656 1.359375 0.207031 1.359375 -0.0625 L 1.359375 -2.125 C 1.054688 -1.375 0.738281 -0.742188 0.40625 -0.234375 Z "/>
</symbol>
<symbol overflow="visible" id="glyph1-3">
<path style="stroke:none;" d="M 4.28125 0.671875 C 4.132812 0.648438 3.988281 0.648438 3.84375 0.671875 C 3.863281 0.398438 3.875 0.132812 3.875 -0.125 L 3.875 -1.640625 C 3.875 -1.898438 3.863281 -2.164062 3.84375 -2.4375 C 3.988281 -2.425781 4.132812 -2.425781 4.28125 -2.4375 C 4.269531 -2.164062 4.265625 -1.898438 4.265625 -1.640625 L 4.265625 -0.125 C 4.265625 0.132812 4.269531 0.398438 4.28125 0.671875 Z M 2.625 -0.828125 L 2.625 -1.625 C 2.625 -1.894531 2.617188 -2.160156 2.609375 -2.421875 C 2.753906 -2.410156 2.894531 -2.410156 3.03125 -2.421875 C 3.019531 -2.160156 3.015625 -1.894531 3.015625 -1.625 L 3.015625 -0.828125 C 3.015625 -0.472656 2.894531 -0.15625 2.65625 0.125 C 2.414062 0.414062 2.128906 0.613281 1.796875 0.71875 C 1.765625 0.5625 1.675781 0.441406 1.53125 0.359375 C 1.832031 0.304688 2.085938 0.171875 2.296875 -0.046875 C 2.515625 -0.273438 2.625 -0.535156 2.625 -0.828125 Z M 5.34375 -2.421875 C 5.21875 -2.347656 5.128906 -2.238281 5.078125 -2.09375 C 4.742188 -2.207031 4.421875 -2.40625 4.109375 -2.6875 C 3.804688 -2.96875 3.570312 -3.296875 3.40625 -3.671875 C 2.894531 -2.734375 2.234375 -2.054688 1.421875 -1.640625 C 1.367188 -1.785156 1.273438 -1.90625 1.140625 -2 C 1.640625 -2.238281 2.078125 -2.566406 2.453125 -2.984375 C 2.835938 -3.410156 3.101562 -3.898438 3.25 -4.453125 C 3.382812 -4.390625 3.53125 -4.335938 3.6875 -4.296875 C 3.664062 -4.234375 3.640625 -4.164062 3.609375 -4.09375 C 3.796875 -3.539062 4.109375 -3.117188 4.546875 -2.828125 C 4.785156 -2.660156 5.050781 -2.523438 5.34375 -2.421875 Z M 1.921875 -4.28125 C 1.765625 -3.75 1.554688 -3.253906 1.296875 -2.796875 L 1.296875 -0.078125 C 1.296875 0.191406 1.300781 0.460938 1.3125 0.734375 C 1.175781 0.722656 1.039062 0.722656 0.90625 0.734375 C 0.914062 0.460938 0.921875 0.191406 0.921875 -0.078125 L 0.921875 -2.21875 C 0.742188 -1.988281 0.546875 -1.773438 0.328125 -1.578125 C 0.242188 -1.722656 0.128906 -1.828125 -0.015625 -1.890625 C 0.171875 -2.046875 0.34375 -2.207031 0.5 -2.375 C 0.789062 -2.6875 1 -2.992188 1.125 -3.296875 C 1.269531 -3.640625 1.390625 -4.003906 1.484375 -4.390625 C 1.617188 -4.335938 1.765625 -4.300781 1.921875 -4.28125 Z "/>
</symbol>
<symbol overflow="visible" id="glyph1-4">
<path style="stroke:none;" d="M 5.359375 0.1875 C 5.347656 0.289062 5.347656 0.390625 5.359375 0.484375 C 5.179688 0.472656 5 0.46875 4.8125 0.46875 L 2 0.46875 C 1.820312 0.46875 1.644531 0.472656 1.46875 0.484375 C 1.476562 0.390625 1.476562 0.289062 1.46875 0.1875 L 2.171875 0.203125 L 2.171875 -3.015625 L 3.15625 -3.015625 L 3.15625 -3.578125 L 2.28125 -3.578125 C 2.101562 -3.578125 1.925781 -3.570312 1.75 -3.5625 C 1.757812 -3.65625 1.757812 -3.753906 1.75 -3.859375 C 1.925781 -3.847656 2.101562 -3.84375 2.28125 -3.84375 L 3.15625 -3.84375 C 3.15625 -4.007812 3.148438 -4.179688 3.140625 -4.359375 C 3.273438 -4.335938 3.410156 -4.335938 3.546875 -4.359375 C 3.535156 -4.179688 3.53125 -4.007812 3.53125 -3.84375 L 4.640625 -3.84375 C 4.816406 -3.84375 4.992188 -3.847656 5.171875 -3.859375 C 5.171875 -3.753906 5.171875 -3.65625 5.171875 -3.5625 C 4.992188 -3.570312 4.816406 -3.578125 4.640625 -3.578125 L 3.53125 -3.578125 L 3.53125 -3.015625 L 4.59375 -3.015625 L 4.59375 0.203125 L 4.8125 0.203125 C 5 0.203125 5.179688 0.195312 5.359375 0.1875 Z M 4.21875 -2.21875 L 4.21875 -2.75 L 2.546875 -2.75 C 2.546875 -2.570312 2.546875 -2.394531 2.546875 -2.21875 Z M 4.21875 -1.453125 L 4.21875 -1.953125 L 2.546875 -1.953125 L 2.546875 -1.453125 Z M 4.21875 -0.640625 L 4.21875 -1.1875 L 2.546875 -1.1875 L 2.546875 -0.640625 Z M 4.21875 0.203125 L 4.21875 -0.375 L 2.546875 -0.375 L 2.546875 0.203125 Z M 1.828125 -4.28125 C 1.679688 -3.789062 1.492188 -3.332031 1.265625 -2.90625 L 1.265625 -0.03125 C 1.265625 0.226562 1.269531 0.484375 1.28125 0.734375 C 1.15625 0.722656 1.023438 0.722656 0.890625 0.734375 C 0.898438 0.484375 0.90625 0.226562 0.90625 -0.03125 L 0.90625 -2.328125 C 0.726562 -2.085938 0.535156 -1.867188 0.328125 -1.671875 C 0.242188 -1.804688 0.132812 -1.90625 0 -1.96875 C 0.1875 -2.125 0.363281 -2.300781 0.53125 -2.5 C 0.800781 -2.820312 1 -3.132812 1.125 -3.4375 C 1.238281 -3.738281 1.332031 -4.054688 1.40625 -4.390625 C 1.539062 -4.335938 1.679688 -4.300781 1.828125 -4.28125 Z "/>
</symbol>
</g>
</defs>
<g id="surface27">
<g style="fill:rgb(100%,100%,100%);fill-opacity:1;">
  <use xlink:href="#glyph0-1" x="30" y="25.349609"/>
  <use xlink:href="#glyph0-2" x="34" y="25.349609"/>
  <use xlink:href="#glyph0-3" x="36" y="25.349609"/>
</g>
<g style="fill:rgb(100%,100%,100%);fill-opacity:1;">
  <use xlink:href="#glyph1-1" x="38" y="25.349609"/>
  <use xlink:href="#glyph1-2" x="44" y="25.349609"/>
  <use xlink:href="#glyph1-3" x="50" y="25.349609"/>
  <use xlink:href="#glyph1-4" x="56" y="25.349609"/>
</g>
<g style="fill:rgb(100%,100%,100%);fill-opacity:1;">
  <use xlink:href="#glyph0-4" x="62" y="25.349609"/>
</g>
</g>
</svg>
