<?xml version="1.0" encoding="UTF-8"?>
<svg xmlns="http://www.w3.org/2000/svg" xmlns:xlink="http://www.w3.org/1999/xlink" width="1280pt" height="720pt" viewBox="0 0 1280 720" version="1.1">
<defs>
<g>
<symbol overflow="visible" id="glyph0-0">
<path style="stroke:none;" d="M 0.296875 1.078125 L 0.296875 -4.3125 L 3.359375 -4.3125 L 3.359375 1.078125 Z M 0.640625 0.734375 L 3.015625 0.734375 L 3.015625 -3.96875 L 0.640625 -3.96875 Z "/>
</symbol>
<symbol overflow="visible" id="glyph0-1">
<path style="stroke:none;" d="M 1.515625 -0.3125 L 2.0625 -0.3125 C 2.644531 -0.3125 3.085938 -0.476562 3.390625 -0.8125 C 3.703125 -1.144531 3.859375 -1.617188 3.859375 -2.234375 C 3.859375 -2.847656 3.703125 -3.316406 3.390625 -3.640625 C 3.085938 -3.972656 2.644531 -4.140625 2.0625 -4.140625 L 1.515625 -4.140625 Z M 0.34375 0 L 0.34375 -0.3125 L 0.90625 -0.3125 L 0.90625 -4.140625 L 0.34375 -4.140625 L 0.34375 -4.453125 L 2.109375 -4.453125 C 2.878906 -4.453125 3.476562 -4.253906 3.90625 -3.859375 C 4.332031 -3.472656 4.546875 -2.929688 4.546875 -2.234375 C 4.546875 -1.535156 4.328125 -0.988281 3.890625 -0.59375 C 3.460938 -0.195312 2.867188 0 2.109375 0 Z "/>
</symbol>
<symbol overflow="visible" id="glyph0-2">
<path style="stroke:none;" d="M 3.3125 -1.53125 L 0.953125 -1.53125 L 0.953125 -1.5 C 0.953125 -1.070312 1.03125 -0.75 1.1875 -0.53125 C 1.34375 -0.3125 1.582031 -0.203125 1.90625 -0.203125 C 2.144531 -0.203125 2.335938 -0.265625 2.484375 -0.390625 C 2.640625 -0.523438 2.75 -0.710938 2.8125 -0.953125 L 3.25 -0.953125 C 3.164062 -0.609375 3.003906 -0.347656 2.765625 -0.171875 C 2.535156 0.00390625 2.226562 0.09375 1.84375 0.09375 C 1.382812 0.09375 1.007812 -0.0546875 0.71875 -0.359375 C 0.4375 -0.671875 0.296875 -1.082031 0.296875 -1.59375 C 0.296875 -2.09375 0.4375 -2.492188 0.71875 -2.796875 C 1 -3.097656 1.363281 -3.25 1.8125 -3.25 C 2.289062 -3.25 2.65625 -3.101562 2.90625 -2.8125 C 3.164062 -2.519531 3.300781 -2.09375 3.3125 -1.53125 Z M 2.65625 -1.84375 C 2.644531 -2.207031 2.566406 -2.484375 2.421875 -2.671875 C 2.285156 -2.867188 2.082031 -2.96875 1.8125 -2.96875 C 1.550781 -2.96875 1.347656 -2.867188 1.203125 -2.671875 C 1.066406 -2.484375 0.984375 -2.207031 0.953125 -1.84375 Z "/>
</symbol>
<symbol overflow="visible" id="glyph0-3">
<path style="stroke:none;" d="M 1.25 -0.3125 L 1.765625 -0.3125 L 1.765625 0 L 0.171875 0 L 0.171875 -0.3125 L 0.703125 -0.3125 L 0.703125 -4.328125 L 0.171875 -4.328125 L 0.171875 -4.640625 L 1.25 -4.640625 Z "/>
</symbol>
<symbol overflow="visible" id="glyph0-4">
<path style="stroke:none;" d="M 0.65625 -2.859375 L 0.171875 -2.859375 L 0.171875 -3.171875 L 0.65625 -3.171875 L 0.65625 -4.15625 L 1.21875 -4.15625 L 1.21875 -3.171875 L 2.25 -3.171875 L 2.25 -2.859375 L 1.21875 -2.859375 L 1.21875 -0.84375 C 1.21875 -0.570312 1.238281 -0.394531 1.28125 -0.3125 C 1.332031 -0.238281 1.429688 -0.203125 1.578125 -0.203125 C 1.722656 -0.203125 1.828125 -0.242188 1.890625 -0.328125 C 1.953125 -0.421875 1.988281 -0.5625 2 -0.75 L 2.40625 -0.75 C 2.394531 -0.457031 2.316406 -0.242188 2.171875 -0.109375 C 2.023438 0.0234375 1.8125 0.09375 1.53125 0.09375 C 1.207031 0.09375 0.976562 0.0234375 0.84375 -0.109375 C 0.71875 -0.253906 0.65625 -0.5 0.65625 -0.84375 Z "/>
</symbol>
<symbol overflow="visible" id="glyph0-5">
<path style="stroke:none;" d="M 2.4375 -1 L 2.4375 -1.671875 L 1.71875 -1.671875 C 1.445312 -1.671875 1.242188 -1.609375 1.109375 -1.484375 C 0.984375 -1.367188 0.921875 -1.191406 0.921875 -0.953125 C 0.921875 -0.734375 0.988281 -0.554688 1.125 -0.421875 C 1.257812 -0.296875 1.441406 -0.234375 1.671875 -0.234375 C 1.898438 -0.234375 2.082031 -0.300781 2.21875 -0.4375 C 2.363281 -0.582031 2.4375 -0.769531 2.4375 -1 Z M 2.984375 -1.984375 L 2.984375 -0.3125 L 3.46875 -0.3125 L 3.46875 0 L 2.4375 0 L 2.4375 -0.34375 C 2.3125 -0.195312 2.164062 -0.0859375 2 -0.015625 C 1.84375 0.0546875 1.660156 0.09375 1.453125 0.09375 C 1.097656 0.09375 0.816406 0 0.609375 -0.1875 C 0.398438 -0.375 0.296875 -0.628906 0.296875 -0.953125 C 0.296875 -1.273438 0.414062 -1.523438 0.65625 -1.703125 C 0.894531 -1.890625 1.226562 -1.984375 1.65625 -1.984375 L 2.4375 -1.984375 L 2.4375 -2.203125 C 2.4375 -2.441406 2.363281 -2.628906 2.21875 -2.765625 C 2.070312 -2.898438 1.863281 -2.96875 1.59375 -2.96875 C 1.375 -2.96875 1.195312 -2.914062 1.0625 -2.8125 C 0.9375 -2.707031 0.859375 -2.5625 0.828125 -2.375 L 0.546875 -2.375 L 0.546875 -3.015625 C 0.734375 -3.097656 0.914062 -3.15625 1.09375 -3.1875 C 1.28125 -3.226562 1.457031 -3.25 1.625 -3.25 C 2.070312 -3.25 2.410156 -3.140625 2.640625 -2.921875 C 2.867188 -2.710938 2.984375 -2.398438 2.984375 -1.984375 Z "/>
</symbol>
</g>
</defs>
<g id="surface33">
<g style="fill:rgb(100%,100%,100%);fill-opacity:1;">
  <use xlink:href="#glyph0-1" x="30" y="25.671875"/>
  <use xlink:href="#glyph0-2" x="35" y="25.671875"/>
  <use xlink:href="#glyph0-3" x="39" y="25.671875"/>
  <use xlink:href="#glyph0-4" x="41" y="25.671875"/>
  <use xlink:href="#glyph0-5" x="43" y="25.671875"/>
</g>
</g>
</svg>
