<?xml version="1.0" encoding="UTF-8"?>
<svg xmlns="http://www.w3.org/2000/svg" xmlns:xlink="http://www.w3.org/1999/xlink" width="1280pt" height="720pt" viewBox="0 0 1280 720" version="1.1">
<defs>
<g>
<symbol overflow="visible" id="glyph0-0">
<path style="stroke:none;" d="M 0.15625 0 L 0.15625 -3.25 L 1.46875 -3.25 L 1.46875 0 Z M 0.328125 -0.15625 L 1.296875 -0.15625 L 1.296875 -3.09375 L 0.328125 -3.09375 Z "/>
</symbol>
<symbol overflow="visible" id="glyph0-1">
<path style="stroke:none;" d="M 1.546875 -0.75 C 1.722656 -1.039062 1.859375 -1.367188 1.953125 -1.734375 C 2.078125 -1.679688 2.203125 -1.648438 2.328125 -1.640625 C 2.148438 -1.109375 1.882812 -0.628906 1.53125 -0.203125 C 1.1875 0.210938 0.765625 0.523438 0.265625 0.734375 C 0.222656 0.609375 0.15625 0.503906 0.0625 0.421875 C 0.539062 0.222656 0.941406 -0.0390625 1.265625 -0.375 L 1.234375 -0.375 L 1.234375 -2.109375 L 0.546875 -2.109375 C 0.398438 -2.109375 0.253906 -2.109375 0.109375 -2.109375 C 0.117188 -2.179688 0.117188 -2.257812 0.109375 -2.34375 L 0.5625 -2.328125 L 0.5625 -2.90625 C 0.5625 -3.125 0.554688 -3.335938 0.546875 -3.546875 C 0.660156 -3.535156 0.78125 -3.535156 0.90625 -3.546875 C 0.894531 -3.335938 0.890625 -3.125 0.890625 -2.90625 L 0.890625 -2.328125 L 1.234375 -2.328125 L 1.234375 -3.328125 C 1.234375 -3.546875 1.226562 -3.757812 1.21875 -3.96875 C 1.34375 -3.957031 1.460938 -3.957031 1.578125 -3.96875 L 1.5625 -3.25 L 1.9375 -3.25 C 2.082031 -3.25 2.226562 -3.253906 2.375 -3.265625 C 2.363281 -3.191406 2.363281 -3.113281 2.375 -3.03125 C 2.226562 -3.039062 2.082031 -3.046875 1.9375 -3.046875 L 1.5625 -3.046875 L 1.5625 -2.328125 L 2.015625 -2.328125 C 2.160156 -2.328125 2.304688 -2.332031 2.453125 -2.34375 C 2.441406 -2.257812 2.441406 -2.179688 2.453125 -2.109375 C 2.304688 -2.109375 2.160156 -2.109375 2.015625 -2.109375 L 1.546875 -2.109375 Z M 0.6875 -1.640625 C 0.789062 -1.597656 0.90625 -1.570312 1.03125 -1.5625 C 0.925781 -1.125 0.6875 -0.707031 0.3125 -0.3125 C 0.238281 -0.40625 0.148438 -0.46875 0.046875 -0.5 C 0.191406 -0.644531 0.3125 -0.800781 0.40625 -0.96875 C 0.507812 -1.144531 0.601562 -1.367188 0.6875 -1.640625 Z M 4.484375 0.671875 C 4.148438 0.335938 3.796875 0.0195312 3.421875 -0.28125 L 3.6875 -0.546875 C 4.0625 -0.234375 4.421875 0.09375 4.765625 0.4375 Z M 2.078125 0.6875 C 2.035156 0.550781 1.953125 0.453125 1.828125 0.390625 C 2.179688 0.347656 2.492188 0.210938 2.765625 -0.015625 C 3.035156 -0.242188 3.171875 -0.507812 3.171875 -0.8125 L 3.171875 -1.6875 C 3.171875 -1.894531 3.164062 -2.109375 3.15625 -2.328125 C 3.28125 -2.316406 3.40625 -2.316406 3.53125 -2.328125 C 3.519531 -2.109375 3.515625 -1.894531 3.515625 -1.6875 L 3.515625 -0.8125 C 3.515625 -0.613281 3.46875 -0.425781 3.375 -0.25 C 3.101562 0.226562 2.671875 0.539062 2.078125 0.6875 Z M 2.828125 -0.375 C 2.691406 -0.382812 2.5625 -0.382812 2.4375 -0.375 C 2.445312 -0.59375 2.453125 -0.804688 2.453125 -1.015625 L 2.453125 -2.8125 C 2.597656 -2.8125 2.738281 -2.8125 2.875 -2.8125 C 2.988281 -2.976562 3.085938 -3.191406 3.171875 -3.453125 L 2.671875 -3.453125 C 2.515625 -3.453125 2.351562 -3.453125 2.1875 -3.453125 C 2.195312 -3.523438 2.195312 -3.601562 2.1875 -3.6875 C 2.351562 -3.675781 2.515625 -3.671875 2.671875 -3.671875 L 4.125 -3.671875 C 4.289062 -3.671875 4.457031 -3.675781 4.625 -3.6875 C 4.613281 -3.601562 4.613281 -3.523438 4.625 -3.453125 C 4.457031 -3.453125 4.289062 -3.453125 4.125 -3.453125 L 3.546875 -3.453125 C 3.503906 -3.234375 3.414062 -3.019531 3.28125 -2.8125 L 4.359375 -2.8125 L 4.359375 -0.390625 L 4.015625 -0.390625 L 4.015625 -2.59375 L 3.140625 -2.59375 L 3.125 -2.5625 C 3.113281 -2.570312 3.109375 -2.582031 3.109375 -2.59375 C 3.003906 -2.59375 2.898438 -2.59375 2.796875 -2.59375 L 2.8125 -1.015625 C 2.8125 -0.804688 2.816406 -0.59375 2.828125 -0.375 Z "/>
</symbol>
<symbol overflow="visible" id="glyph0-2">
<path style="stroke:none;" d="M 0.203125 -1.140625 C 0.203125 -1.222656 0.203125 -1.304688 0.203125 -1.390625 C 0.347656 -1.378906 0.492188 -1.375 0.640625 -1.375 L 0.890625 -1.375 C 0.941406 -1.53125 0.988281 -1.679688 1.03125 -1.828125 C 1.15625 -1.785156 1.28125 -1.753906 1.40625 -1.734375 L 1.25 -1.375 L 2.109375 -1.375 C 2.097656 -0.925781 1.945312 -0.53125 1.65625 -0.1875 C 1.820312 -0.0390625 1.984375 0.109375 2.140625 0.265625 C 2.035156 0.335938 1.929688 0.414062 1.828125 0.5 C 1.710938 0.34375 1.582031 0.191406 1.4375 0.046875 C 1.125 0.316406 0.769531 0.484375 0.375 0.546875 C 0.320312 0.429688 0.253906 0.320312 0.171875 0.21875 C 0.546875 0.207031 0.882812 0.0820312 1.1875 -0.15625 C 0.988281 -0.3125 0.78125 -0.441406 0.5625 -0.546875 C 0.65625 -0.742188 0.738281 -0.945312 0.8125 -1.15625 Z M 1.578125 -1.8125 C 1.460938 -1.820312 1.347656 -1.820312 1.234375 -1.8125 C 1.234375 -2.03125 1.234375 -2.25 1.234375 -2.46875 L 1.234375 -2.703125 C 1.160156 -2.535156 1.054688 -2.363281 0.921875 -2.1875 C 0.785156 -2.007812 0.578125 -1.800781 0.296875 -1.5625 C 0.234375 -1.65625 0.148438 -1.722656 0.046875 -1.765625 C 0.335938 -2.003906 0.601562 -2.316406 0.84375 -2.703125 L 0.578125 -2.703125 C 0.429688 -2.703125 0.28125 -2.695312 0.125 -2.6875 C 0.132812 -2.769531 0.132812 -2.851562 0.125 -2.9375 L 0.78125 -2.921875 L 0.25 -3.578125 L 0.53125 -3.796875 L 1.09375 -3.109375 L 0.875 -2.921875 L 1.234375 -2.921875 L 1.234375 -3.25 C 1.234375 -3.457031 1.234375 -3.671875 1.234375 -3.890625 C 1.347656 -3.878906 1.460938 -3.878906 1.578125 -3.890625 C 1.566406 -3.671875 1.5625 -3.457031 1.5625 -3.25 L 1.5625 -3.09375 C 1.726562 -3.300781 1.890625 -3.554688 2.046875 -3.859375 C 2.148438 -3.796875 2.253906 -3.742188 2.359375 -3.703125 C 2.234375 -3.453125 2.054688 -3.191406 1.828125 -2.921875 L 2.40625 -2.9375 C 2.394531 -2.851562 2.394531 -2.769531 2.40625 -2.6875 L 1.78125 -2.703125 L 2.28125 -2.09375 L 2 -1.875 L 1.5625 -2.40625 C 1.5625 -2.207031 1.566406 -2.007812 1.578125 -1.8125 Z M 1.40625 -0.390625 C 1.59375 -0.609375 1.710938 -0.863281 1.765625 -1.15625 L 1.15625 -1.15625 L 0.96875 -0.6875 C 1.125 -0.59375 1.269531 -0.492188 1.40625 -0.390625 Z M 1.5625 -2.703125 L 1.5625 -2.59375 L 1.6875 -2.703125 Z M 1.5625 -2.921875 L 1.6875 -2.921875 C 1.65625 -2.953125 1.613281 -2.976562 1.5625 -3 Z M 2.921875 -3.84375 C 3.023438 -3.8125 3.144531 -3.789062 3.28125 -3.78125 C 3.21875 -3.5 3.148438 -3.222656 3.078125 -2.953125 L 3.0625 -2.890625 L 4.109375 -2.890625 C 4.265625 -2.890625 4.421875 -2.894531 4.578125 -2.90625 C 4.578125 -2.800781 4.578125 -2.703125 4.578125 -2.609375 L 4.09375 -2.609375 C 4.0625 -1.847656 3.914062 -1.203125 3.65625 -0.671875 C 3.925781 -0.273438 4.289062 0.0234375 4.75 0.234375 C 4.644531 0.296875 4.570312 0.394531 4.53125 0.53125 C 4.101562 0.320312 3.757812 0.015625 3.5 -0.390625 C 3.207031 0.109375 2.804688 0.46875 2.296875 0.6875 C 2.265625 0.539062 2.207031 0.421875 2.125 0.328125 C 2.644531 0.128906 3.039062 -0.210938 3.3125 -0.703125 C 3.070312 -1.148438 2.921875 -1.671875 2.859375 -2.265625 C 2.765625 -1.960938 2.628906 -1.664062 2.453125 -1.375 C 2.367188 -1.46875 2.257812 -1.523438 2.125 -1.546875 C 2.25 -1.742188 2.378906 -1.976562 2.515625 -2.25 C 2.648438 -2.519531 2.742188 -2.785156 2.796875 -3.046875 C 2.859375 -3.316406 2.898438 -3.582031 2.921875 -3.84375 Z M 3.109375 -2.609375 C 3.117188 -2.296875 3.15625 -2 3.21875 -1.71875 C 3.289062 -1.4375 3.375 -1.195312 3.46875 -1 C 3.65625 -1.445312 3.753906 -1.984375 3.765625 -2.609375 Z "/>
</symbol>
</g>
</defs>
<g id="surface9">
<g style="fill:rgb(73.333333%,73.333333%,73.333333%);fill-opacity:1;">
  <use xlink:href="#glyph0-1" x="30" y="24.708008"/>
  <use xlink:href="#glyph0-2" x="35" y="24.708008"/>
</g>
</g>
</svg>
