<?xml version="1.0" encoding="UTF-8"?>
<svg xmlns="http://www.w3.org/2000/svg" xmlns:xlink="http://www.w3.org/1999/xlink" width="854pt" height="480pt" viewBox="0 0 854 480" version="1.1">
<defs>
<g>
<symbol overflow="visible" id="glyph0-0">
<path style="stroke:none;" d="M 0.21875 0 L 0.21875 -4.4375 L 2 -4.4375 L 2 0 Z M 0.4375 -0.21875 L 1.765625 -0.21875 L 1.765625 -4.21875 L 0.4375 -4.21875 Z "/>
</symbol>
<symbol overflow="visible" id="glyph0-1">
<path style="stroke:none;" d="M 1.421875 0.734375 C 1.097656 0.703125 0.882812 0.550781 0.78125 0.28125 C 0.738281 0.164062 0.71875 0.03125 0.71875 -0.125 L 0.71875 -2.75 C 0.71875 -3.070312 0.707031 -3.398438 0.6875 -3.734375 C 0.863281 -3.710938 1.039062 -3.710938 1.21875 -3.734375 C 1.207031 -3.453125 1.203125 -3.171875 1.203125 -2.890625 L 4.875 -2.890625 L 4.875 -4.75 L 1.453125 -4.75 C 1.171875 -4.75 0.894531 -4.738281 0.625 -4.71875 C 0.632812 -4.875 0.632812 -5.023438 0.625 -5.171875 C 0.894531 -5.160156 1.171875 -5.15625 1.453125 -5.15625 L 5.359375 -5.15625 L 5.359375 -2.125 L 4.875 -2.125 L 4.875 -2.484375 L 1.203125 -2.484375 L 1.203125 -0.125 C 1.203125 -0.0078125 1.21875 0.0820312 1.25 0.15625 C 1.289062 0.238281 1.351562 0.28125 1.4375 0.28125 L 5.203125 0.28125 C 5.316406 0.28125 5.421875 0.238281 5.515625 0.15625 C 5.609375 0.0820312 5.660156 -0.015625 5.671875 -0.140625 L 5.8125 -1.109375 C 5.957031 -1.015625 6.113281 -0.96875 6.28125 -0.96875 L 6.09375 0.25 C 6.070312 0.382812 6.007812 0.5 5.90625 0.59375 C 5.8125 0.6875 5.695312 0.734375 5.5625 0.734375 Z "/>
</symbol>
<symbol overflow="visible" id="glyph0-2">
<path style="stroke:none;" d="M 3.90625 -4.359375 L 6.046875 -4.359375 L 6.046875 0.78125 L 5.578125 0.78125 L 5.578125 -0.15625 L 4.375 -0.15625 L 4.390625 0.796875 C 4.222656 0.785156 4.054688 0.785156 3.890625 0.796875 C 3.910156 0.492188 3.921875 0.1875 3.921875 -0.125 Z M 1.046875 -2.15625 C 0.804688 -2.15625 0.570312 -2.144531 0.34375 -2.125 C 0.351562 -2.25 0.351562 -2.378906 0.34375 -2.515625 C 0.570312 -2.503906 0.804688 -2.5 1.046875 -2.5 L 1.921875 -2.5 L 1.921875 -3.0625 C 1.921875 -3.351562 1.910156 -3.640625 1.890625 -3.921875 L 1.375 -3.921875 C 1.15625 -3.484375 0.910156 -3.066406 0.640625 -2.671875 C 0.523438 -2.785156 0.382812 -2.851562 0.21875 -2.875 C 0.53125 -3.300781 0.769531 -3.722656 0.9375 -4.140625 C 1.113281 -4.566406 1.265625 -4.96875 1.390625 -5.34375 C 1.546875 -5.289062 1.707031 -5.25 1.875 -5.21875 C 1.78125 -4.875 1.671875 -4.554688 1.546875 -4.265625 L 2.78125 -4.265625 C 3.007812 -4.265625 3.242188 -4.269531 3.484375 -4.28125 C 3.460938 -4.15625 3.460938 -4.03125 3.484375 -3.90625 C 3.242188 -3.914062 3.007812 -3.921875 2.78125 -3.921875 L 2.390625 -3.921875 C 2.378906 -3.640625 2.375 -3.351562 2.375 -3.0625 L 2.375 -2.5 L 2.984375 -2.5 C 3.222656 -2.5 3.457031 -2.503906 3.6875 -2.515625 C 3.664062 -2.378906 3.664062 -2.25 3.6875 -2.125 C 3.457031 -2.144531 3.222656 -2.15625 2.984375 -2.15625 L 2.375 -2.15625 C 2.363281 -1.988281 2.347656 -1.828125 2.328125 -1.671875 L 2.90625 -0.953125 C 3.125 -0.671875 3.335938 -0.378906 3.546875 -0.078125 L 3.140625 0.203125 C 2.929688 -0.0859375 2.722656 -0.375 2.515625 -0.65625 L 2.1875 -1.0625 C 1.882812 -0.21875 1.367188 0.398438 0.640625 0.796875 C 0.554688 0.617188 0.414062 0.507812 0.21875 0.46875 C 0.675781 0.28125 1.054688 -0.015625 1.359375 -0.421875 C 1.703125 -0.898438 1.890625 -1.476562 1.921875 -2.15625 Z M 5.578125 -0.5 L 5.578125 -4 L 4.359375 -4 L 4.375 -0.5 Z "/>
</symbol>
<symbol overflow="visible" id="glyph0-3">
<path style="stroke:none;" d="M 4.828125 -1.171875 C 4.941406 -1.023438 5.070312 -0.894531 5.21875 -0.78125 C 4.707031 -0.332031 4.125 0.0546875 3.46875 0.390625 C 3.101562 0.578125 2.703125 0.726562 2.265625 0.84375 C 1.835938 0.957031 1.398438 1.023438 0.953125 1.046875 C 0.972656 0.847656 0.9375 0.671875 0.84375 0.515625 C 2.0625 0.484375 3.03125 0.21875 3.75 -0.28125 C 4.125 -0.550781 4.484375 -0.847656 4.828125 -1.171875 Z M 3.921875 -1.734375 C 4.046875 -1.578125 4.175781 -1.441406 4.3125 -1.328125 C 3.3125 -0.472656 2.332031 0.0234375 1.375 0.171875 C 1.363281 -0.015625 1.300781 -0.1875 1.1875 -0.34375 C 2.070312 -0.457031 2.757812 -0.707031 3.25 -1.09375 C 3.488281 -1.28125 3.710938 -1.492188 3.921875 -1.734375 Z M 3.171875 -2.3125 C 3.273438 -2.1875 3.394531 -2.070312 3.53125 -1.96875 C 3.039062 -1.4375 2.378906 -1.035156 1.546875 -0.765625 C 1.523438 -0.921875 1.457031 -1.054688 1.34375 -1.171875 C 1.707031 -1.273438 2.023438 -1.421875 2.296875 -1.609375 C 2.578125 -1.796875 2.867188 -2.03125 3.171875 -2.3125 Z M 1.234375 -2.984375 C 0.992188 -2.984375 0.757812 -2.972656 0.53125 -2.953125 C 0.539062 -3.078125 0.539062 -3.207031 0.53125 -3.34375 C 0.757812 -3.332031 0.992188 -3.328125 1.234375 -3.328125 L 2.640625 -3.328125 C 2.765625 -3.492188 2.875 -3.65625 2.96875 -3.8125 L 1.25 -3.796875 L 1.25 -4.140625 C 1.34375 -4.140625 1.453125 -4.175781 1.578125 -4.25 C 1.703125 -4.320312 1.941406 -4.503906 2.296875 -4.796875 C 2.660156 -5.097656 2.90625 -5.335938 3.03125 -5.515625 C 3.144531 -5.367188 3.273438 -5.242188 3.421875 -5.140625 C 3.328125 -5.035156 3.113281 -4.859375 2.78125 -4.609375 C 2.445312 -4.367188 2.226562 -4.210938 2.125 -4.140625 L 4.203125 -4.125 L 4.328125 -4.140625 L 4 -4.46875 L 4.34375 -4.84375 C 4.726562 -4.46875 5.085938 -4.070312 5.421875 -3.65625 L 5.03125 -3.34375 C 4.90625 -3.5 4.773438 -3.65625 4.640625 -3.8125 L 4.203125 -3.828125 L 3.5625 -3.8125 C 3.46875 -3.644531 3.363281 -3.484375 3.25 -3.328125 L 5.375 -3.328125 C 5.613281 -3.328125 5.847656 -3.332031 6.078125 -3.34375 C 6.066406 -3.207031 6.066406 -3.078125 6.078125 -2.953125 C 5.847656 -2.972656 5.613281 -2.984375 5.375 -2.984375 L 3.734375 -2.984375 C 4.023438 -2.617188 4.378906 -2.335938 4.796875 -2.140625 C 5.210938 -1.941406 5.722656 -1.820312 6.328125 -1.78125 C 6.203125 -1.644531 6.132812 -1.488281 6.125 -1.3125 C 5.570312 -1.351562 5.023438 -1.523438 4.484375 -1.828125 C 3.953125 -2.128906 3.523438 -2.515625 3.203125 -2.984375 L 3 -2.984375 C 2.28125 -2.085938 1.410156 -1.492188 0.390625 -1.203125 C 0.367188 -1.390625 0.289062 -1.550781 0.15625 -1.6875 C 0.6875 -1.820312 1.179688 -2.035156 1.640625 -2.328125 C 1.941406 -2.523438 2.191406 -2.742188 2.390625 -2.984375 Z "/>
</symbol>
<symbol overflow="visible" id="glyph0-4">
<path style="stroke:none;" d="M 0.28125 -1.5625 C 0.28125 -1.675781 0.28125 -1.785156 0.28125 -1.890625 C 0.476562 -1.890625 0.675781 -1.890625 0.875 -1.890625 L 1.21875 -1.890625 C 1.289062 -2.085938 1.351562 -2.289062 1.40625 -2.5 C 1.570312 -2.4375 1.742188 -2.394531 1.921875 -2.375 L 1.703125 -1.890625 L 2.875 -1.890625 C 2.851562 -1.273438 2.648438 -0.726562 2.265625 -0.25 C 2.492188 -0.0507812 2.710938 0.148438 2.921875 0.359375 C 2.773438 0.453125 2.632812 0.5625 2.5 0.6875 C 2.332031 0.46875 2.148438 0.265625 1.953125 0.078125 C 1.535156 0.441406 1.054688 0.664062 0.515625 0.75 C 0.441406 0.582031 0.347656 0.429688 0.234375 0.296875 C 0.753906 0.285156 1.210938 0.113281 1.609375 -0.21875 C 1.347656 -0.425781 1.070312 -0.601562 0.78125 -0.75 C 0.894531 -1.019531 1.003906 -1.296875 1.109375 -1.578125 Z M 2.15625 -2.46875 C 2 -2.488281 1.835938 -2.488281 1.671875 -2.46875 C 1.679688 -2.769531 1.6875 -3.066406 1.6875 -3.359375 L 1.6875 -3.6875 C 1.582031 -3.457031 1.4375 -3.222656 1.25 -2.984375 C 1.070312 -2.742188 0.789062 -2.457031 0.40625 -2.125 C 0.320312 -2.25 0.210938 -2.34375 0.078125 -2.40625 C 0.472656 -2.738281 0.832031 -3.164062 1.15625 -3.6875 L 0.78125 -3.6875 C 0.582031 -3.6875 0.378906 -3.679688 0.171875 -3.671875 C 0.191406 -3.785156 0.191406 -3.894531 0.171875 -4 L 1.078125 -3.984375 L 0.34375 -4.875 L 0.71875 -5.1875 L 1.484375 -4.234375 L 1.1875 -3.984375 L 1.6875 -3.984375 L 1.6875 -4.421875 C 1.6875 -4.710938 1.679688 -5.007812 1.671875 -5.3125 C 1.835938 -5.300781 2 -5.300781 2.15625 -5.3125 C 2.132812 -5.007812 2.125 -4.710938 2.125 -4.421875 L 2.125 -4.21875 C 2.351562 -4.507812 2.578125 -4.859375 2.796875 -5.265625 C 2.929688 -5.179688 3.070312 -5.109375 3.21875 -5.046875 C 3.050781 -4.710938 2.8125 -4.359375 2.5 -3.984375 L 3.296875 -4 C 3.273438 -3.894531 3.273438 -3.785156 3.296875 -3.671875 L 2.421875 -3.6875 L 3.109375 -2.859375 L 2.734375 -2.546875 L 2.125 -3.296875 C 2.125 -3.015625 2.132812 -2.738281 2.15625 -2.46875 Z M 1.921875 -0.53125 C 2.179688 -0.832031 2.34375 -1.179688 2.40625 -1.578125 L 1.578125 -1.578125 L 1.328125 -0.9375 C 1.535156 -0.8125 1.734375 -0.675781 1.921875 -0.53125 Z M 2.125 -3.6875 L 2.125 -3.546875 L 2.3125 -3.6875 Z M 2.125 -3.984375 L 2.3125 -3.984375 C 2.257812 -4.023438 2.195312 -4.054688 2.125 -4.078125 Z M 3.984375 -5.25 C 4.128906 -5.195312 4.289062 -5.164062 4.46875 -5.15625 C 4.394531 -4.78125 4.304688 -4.40625 4.203125 -4.03125 L 4.171875 -3.9375 L 5.609375 -3.9375 C 5.816406 -3.9375 6.03125 -3.945312 6.25 -3.96875 C 6.238281 -3.820312 6.238281 -3.679688 6.25 -3.546875 L 5.59375 -3.5625 C 5.550781 -2.519531 5.347656 -1.640625 4.984375 -0.921875 C 5.359375 -0.378906 5.851562 0.03125 6.46875 0.3125 C 6.332031 0.40625 6.238281 0.539062 6.1875 0.71875 C 5.601562 0.4375 5.128906 0.015625 4.765625 -0.546875 C 4.367188 0.140625 3.828125 0.632812 3.140625 0.9375 C 3.097656 0.738281 3.019531 0.578125 2.90625 0.453125 C 3.601562 0.179688 4.144531 -0.285156 4.53125 -0.953125 C 4.195312 -1.578125 3.988281 -2.289062 3.90625 -3.09375 C 3.769531 -2.6875 3.582031 -2.285156 3.34375 -1.890625 C 3.226562 -2.003906 3.082031 -2.078125 2.90625 -2.109375 C 3.070312 -2.378906 3.242188 -2.695312 3.421875 -3.0625 C 3.609375 -3.425781 3.738281 -3.789062 3.8125 -4.15625 C 3.894531 -4.519531 3.953125 -4.882812 3.984375 -5.25 Z M 4.234375 -3.5625 C 4.242188 -3.125 4.296875 -2.710938 4.390625 -2.328125 C 4.484375 -1.953125 4.597656 -1.628906 4.734375 -1.359375 C 4.992188 -1.972656 5.128906 -2.707031 5.140625 -3.5625 Z "/>
</symbol>
<symbol overflow="visible" id="glyph0-5">
<path style="stroke:none;" d="M 3.703125 -2.625 L 2.96875 -2.625 L 2.96875 -3.390625 L 3.703125 -3.390625 Z M 3.703125 0 L 2.96875 0 L 2.96875 -0.75 L 3.703125 -0.75 Z "/>
</symbol>
</g>
</defs>
<g id="surface32">
<g style="fill:rgb(96.862745%,85.098039%,43.529412%);fill-opacity:1;">
  <use xlink:href="#glyph0-1" x="30" y="26.419922"/>
  <use xlink:href="#glyph0-2" x="37" y="26.419922"/>
  <use xlink:href="#glyph0-3" x="44" y="26.419922"/>
  <use xlink:href="#glyph0-4" x="51" y="26.419922"/>
  <use xlink:href="#glyph0-5" x="58" y="26.419922"/>
</g>
</g>
</svg>
