<?xml version="1.0" encoding="UTF-8"?>
<svg xmlns="http://www.w3.org/2000/svg" xmlns:xlink="http://www.w3.org/1999/xlink" width="3840pt" height="2160pt" viewBox="0 0 3840 2160" version="1.1">
<defs>
<g>
<symbol overflow="visible" id="glyph0-0">
<path style="stroke:none;" d="M 0.25 0 L 0.25 -5 L 2.234375 -5 L 2.234375 0 Z M 0.5 -0.25 L 2 -0.25 L 2 -4.75 L 0.5 -4.75 Z "/>
</symbol>
<symbol overflow="visible" id="glyph0-1">
<path style="stroke:none;" d="M 6.15625 0.90625 C 5.96875 0.882812 5.78125 0.882812 5.59375 0.90625 C 5.601562 0.550781 5.609375 0.203125 5.609375 -0.140625 L 5.609375 -3.390625 L 4.46875 -3.390625 L 4.46875 -2.390625 C 4.46875 -1.660156 4.269531 -0.988281 3.875 -0.375 C 3.476562 0.226562 2.945312 0.664062 2.28125 0.9375 C 2.195312 0.71875 2.050781 0.570312 1.84375 0.5 C 2.445312 0.332031 2.953125 -0.0078125 3.359375 -0.53125 C 3.765625 -1.050781 3.96875 -1.671875 3.96875 -2.390625 L 3.96875 -4.484375 C 3.96875 -4.835938 3.957031 -5.1875 3.9375 -5.53125 C 4.125 -5.519531 4.3125 -5.519531 4.5 -5.53125 C 4.5 -5.488281 4.5 -5.445312 4.5 -5.40625 C 4.726562 -5.394531 5.039062 -5.425781 5.4375 -5.5 C 5.832031 -5.582031 6.101562 -5.664062 6.25 -5.75 C 6.394531 -5.832031 6.492188 -5.941406 6.546875 -6.078125 C 6.671875 -5.929688 6.8125 -5.800781 6.96875 -5.6875 C 6.851562 -5.53125 6.679688 -5.410156 6.453125 -5.328125 C 6.285156 -5.265625 6.035156 -5.203125 5.703125 -5.140625 C 5.378906 -5.078125 4.972656 -5.019531 4.484375 -4.96875 L 4.46875 -3.765625 L 6.40625 -3.765625 C 6.664062 -3.765625 6.925781 -3.769531 7.1875 -3.78125 C 7.175781 -3.644531 7.175781 -3.503906 7.1875 -3.359375 C 6.925781 -3.378906 6.664062 -3.390625 6.40625 -3.390625 L 6.125 -3.390625 L 6.125 -0.140625 C 6.125 0.203125 6.132812 0.550781 6.15625 0.90625 Z M 1.109375 -2.078125 L 1.109375 -5.34375 L 1.28125 -5.34375 C 1.632812 -5.40625 1.960938 -5.503906 2.265625 -5.640625 C 2.566406 -5.773438 2.898438 -5.953125 3.265625 -6.171875 C 3.359375 -6.003906 3.460938 -5.847656 3.578125 -5.703125 C 3.066406 -5.335938 2.414062 -5.066406 1.625 -4.890625 C 1.625 -4.703125 1.625 -4.507812 1.625 -4.3125 L 3.3125 -4.3125 L 3.3125 -1.859375 L 2.796875 -1.859375 L 2.796875 -2.265625 L 1.625 -2.265625 C 1.632812 -1.523438 1.5625 -0.910156 1.40625 -0.421875 C 1.25 0.0664062 1.019531 0.488281 0.71875 0.84375 C 0.582031 0.6875 0.40625 0.601562 0.1875 0.59375 C 0.53125 0.28125 0.769531 -0.0859375 0.90625 -0.515625 C 1.039062 -0.941406 1.109375 -1.460938 1.109375 -2.078125 Z M 2.796875 -2.65625 L 2.796875 -3.921875 L 1.625 -3.921875 L 1.625 -2.65625 Z "/>
</symbol>
<symbol overflow="visible" id="glyph0-2">
<path style="stroke:none;" d="M 5.40625 -0.046875 L 5.40625 -0.96875 L 2.65625 -0.96875 L 2.671875 -0.203125 C 2.679688 0.160156 2.695312 0.519531 2.71875 0.875 C 2.519531 0.851562 2.320312 0.859375 2.125 0.890625 C 2.144531 0.523438 2.148438 0.164062 2.140625 -0.1875 L 2.109375 -2.796875 C 1.640625 -2.222656 1.113281 -1.738281 0.53125 -1.34375 C 0.4375 -1.539062 0.289062 -1.691406 0.09375 -1.796875 C 0.925781 -2.335938 1.59375 -2.953125 2.09375 -3.640625 L 2.09375 -3.8125 L 2.203125 -3.8125 C 2.398438 -4.101562 2.550781 -4.382812 2.65625 -4.65625 L 1.265625 -4.65625 C 0.972656 -4.65625 0.6875 -4.648438 0.40625 -4.640625 C 0.425781 -4.796875 0.425781 -4.945312 0.40625 -5.09375 C 0.6875 -5.082031 0.972656 -5.078125 1.265625 -5.078125 L 2.8125 -5.078125 C 2.957031 -5.453125 3.0625 -5.765625 3.125 -6.015625 C 3.320312 -5.941406 3.53125 -5.890625 3.75 -5.859375 C 3.664062 -5.597656 3.566406 -5.335938 3.453125 -5.078125 L 6.328125 -5.078125 C 6.617188 -5.078125 6.90625 -5.082031 7.1875 -5.09375 C 7.164062 -4.945312 7.164062 -4.796875 7.1875 -4.640625 C 6.90625 -4.648438 6.617188 -4.65625 6.328125 -4.65625 L 3.28125 -4.65625 C 3.132812 -4.363281 2.976562 -4.082031 2.8125 -3.8125 L 5.953125 -3.8125 L 5.953125 0.140625 C 5.953125 0.359375 5.878906 0.539062 5.734375 0.6875 C 5.523438 0.863281 5.148438 0.953125 4.609375 0.953125 C 4.660156 0.710938 4.609375 0.5 4.453125 0.3125 C 4.597656 0.332031 4.769531 0.34375 4.96875 0.34375 C 5.175781 0.34375 5.300781 0.320312 5.34375 0.28125 C 5.382812 0.25 5.40625 0.140625 5.40625 -0.046875 Z M 5.40625 -2.5625 L 5.40625 -3.390625 L 2.625 -3.390625 L 2.640625 -2.5625 Z M 5.40625 -1.390625 L 5.40625 -2.140625 L 2.640625 -2.140625 L 2.65625 -1.390625 Z "/>
</symbol>
<symbol overflow="visible" id="glyph0-3">
<path style="stroke:none;" d="M 6.140625 -0.234375 L 6.140625 -5 L 4.875 -5 C 4.875 -4.738281 4.875 -4.53125 4.875 -4.375 C 4.875 -4.21875 4.867188 -4.015625 4.859375 -3.765625 C 4.847656 -3.515625 4.832031 -3.304688 4.8125 -3.140625 C 4.800781 -2.972656 4.773438 -2.773438 4.734375 -2.546875 C 4.703125 -2.316406 4.660156 -2.113281 4.609375 -1.9375 C 4.554688 -1.769531 4.488281 -1.582031 4.40625 -1.375 C 4.332031 -1.164062 4.242188 -0.976562 4.140625 -0.8125 C 3.921875 -0.4375 3.648438 -0.0976562 3.328125 0.203125 C 2.847656 0.648438 2.289062 0.972656 1.65625 1.171875 C 1.613281 0.953125 1.515625 0.757812 1.359375 0.59375 C 1.921875 0.445312 2.429688 0.175781 2.890625 -0.21875 C 3.453125 -0.6875 3.847656 -1.300781 4.078125 -2.0625 C 4.234375 -2.65625 4.304688 -3.300781 4.296875 -4 L 4.28125 -5 L 4.046875 -5 C 3.734375 -5 3.421875 -4.992188 3.109375 -4.984375 C 3.128906 -5.148438 3.128906 -5.316406 3.109375 -5.484375 C 3.421875 -5.472656 3.734375 -5.46875 4.046875 -5.46875 L 6.6875 -5.46875 L 6.6875 -0.046875 C 6.6875 0.296875 6.578125 0.53125 6.359375 0.65625 C 6.128906 0.789062 5.769531 0.851562 5.28125 0.84375 C 5.34375 0.59375 5.28125 0.375 5.09375 0.1875 C 5.257812 0.207031 5.445312 0.21875 5.65625 0.21875 C 5.875 0.226562 6.007812 0.207031 6.0625 0.15625 C 6.113281 0.113281 6.140625 -0.015625 6.140625 -0.234375 Z M 1.375 -1.375 L 1.375 -3.359375 C 1.019531 -3.210938 0.660156 -3.050781 0.296875 -2.875 C 0.273438 -3.113281 0.191406 -3.328125 0.046875 -3.515625 C 0.484375 -3.585938 0.925781 -3.691406 1.375 -3.828125 L 1.375 -5.046875 C 1.375 -5.421875 1.367188 -5.789062 1.359375 -6.15625 C 1.546875 -6.132812 1.742188 -6.132812 1.953125 -6.15625 C 1.929688 -5.789062 1.921875 -5.421875 1.921875 -5.046875 L 1.921875 -4 C 2.265625 -4.125 2.765625 -4.316406 3.421875 -4.578125 L 3.46875 -4.171875 L 1.921875 -3.578125 L 1.921875 -1.328125 L 3.375 -2.265625 L 3.5625 -1.828125 C 3.4375 -1.765625 3.203125 -1.613281 2.859375 -1.375 L 2.046875 -0.796875 L 1.546875 -0.421875 L 1.28125 -0.90625 C 1.34375 -1.050781 1.375 -1.207031 1.375 -1.375 Z "/>
</symbol>
<symbol overflow="visible" id="glyph0-4">
<path style="stroke:none;" d="M 6.28125 -5.203125 L 5.875 -4.796875 L 5.078125 -5.578125 L 5.484375 -5.984375 Z M 4.15625 -4.34375 L 4.125 -6.15625 C 4.3125 -6.132812 4.5 -6.132812 4.6875 -6.15625 L 4.671875 -4.421875 L 5.671875 -4.5625 C 5.929688 -4.59375 6.191406 -4.632812 6.453125 -4.6875 C 6.453125 -4.539062 6.46875 -4.398438 6.5 -4.265625 C 6.238281 -4.242188 5.976562 -4.210938 5.71875 -4.171875 L 4.671875 -4.03125 C 4.679688 -3.6875 4.695312 -3.382812 4.71875 -3.125 L 5.96875 -3.28125 C 6.226562 -3.320312 6.484375 -3.367188 6.734375 -3.421875 C 6.742188 -3.273438 6.765625 -3.132812 6.796875 -3 C 6.535156 -2.96875 6.273438 -2.9375 6.015625 -2.90625 L 4.765625 -2.734375 C 4.835938 -2.265625 4.960938 -1.84375 5.140625 -1.46875 C 5.410156 -1.8125 5.617188 -2.097656 5.765625 -2.328125 C 5.929688 -2.203125 6.113281 -2.09375 6.3125 -2 C 6.050781 -1.625 5.757812 -1.269531 5.4375 -0.9375 C 5.738281 -0.476562 6.117188 -0.101562 6.578125 0.1875 C 6.597656 -0.226562 6.609375 -0.648438 6.609375 -1.078125 C 6.773438 -0.953125 6.960938 -0.882812 7.171875 -0.875 C 7.191406 -0.375 7.15625 0.128906 7.0625 0.640625 C 7.0625 0.710938 7.03125 0.773438 6.96875 0.828125 C 6.882812 0.898438 6.789062 0.914062 6.6875 0.875 C 6.019531 0.519531 5.476562 0.03125 5.0625 -0.59375 C 4.195312 0.15625 3.253906 0.628906 2.234375 0.828125 C 2.234375 0.609375 2.160156 0.414062 2.015625 0.25 C 2.671875 0.15625 3.28125 -0.0390625 3.84375 -0.34375 C 4.21875 -0.539062 4.53125 -0.773438 4.78125 -1.046875 C 4.519531 -1.535156 4.34375 -2.078125 4.25 -2.671875 L 3.59375 -2.578125 C 3.332031 -2.535156 3.070312 -2.492188 2.8125 -2.453125 C 2.8125 -2.597656 2.789062 -2.738281 2.75 -2.875 C 3.019531 -2.894531 3.28125 -2.921875 3.53125 -2.953125 L 4.203125 -3.046875 C 4.179688 -3.304688 4.164062 -3.609375 4.15625 -3.953125 L 3.90625 -3.921875 C 3.644531 -3.890625 3.382812 -3.847656 3.125 -3.796875 C 3.125 -3.929688 3.101562 -4.070312 3.0625 -4.21875 C 3.320312 -4.238281 3.585938 -4.269531 3.859375 -4.3125 Z M 0.34375 0.296875 C 0.320312 0.046875 0.25 -0.160156 0.125 -0.328125 C 0.445312 -0.347656 0.800781 -0.382812 1.1875 -0.4375 C 1.582031 -0.5 2.234375 -0.660156 3.140625 -0.921875 L 3.15625 -0.5625 C 2.289062 -0.332031 1.675781 -0.15625 1.3125 -0.03125 C 0.945312 0.0820312 0.625 0.191406 0.34375 0.296875 Z M 1.6875 -6.015625 C 1.875 -5.910156 2.082031 -5.820312 2.3125 -5.75 C 2.15625 -5.46875 1.910156 -5.09375 1.578125 -4.625 L 0.921875 -3.71875 L 1.734375 -3.78125 L 1.984375 -3.84375 C 2.148438 -4.082031 2.285156 -4.332031 2.390625 -4.59375 C 2.585938 -4.476562 2.796875 -4.382812 3.015625 -4.3125 C 2.941406 -4.175781 2.847656 -4.03125 2.734375 -3.875 C 2.628906 -3.726562 2.367188 -3.394531 1.953125 -2.875 C 1.546875 -2.363281 1.269531 -2.023438 1.125 -1.859375 L 2.515625 -2 L 3.015625 -2.109375 L 2.984375 -1.671875 L 2.578125 -1.640625 L 0.265625 -1.34375 L 0.21875 -1.75 C 0.320312 -1.75 0.410156 -1.789062 0.484375 -1.875 C 0.847656 -2.257812 1.25 -2.769531 1.6875 -3.40625 L 0.125 -3.203125 L 0.078125 -3.609375 C 0.179688 -3.617188 0.265625 -3.660156 0.328125 -3.734375 C 0.773438 -4.347656 1.1875 -5.007812 1.5625 -5.71875 C 1.613281 -5.8125 1.65625 -5.910156 1.6875 -6.015625 Z "/>
</symbol>
<symbol overflow="visible" id="glyph0-5">
<path style="stroke:none;" d="M 2.015625 0.90625 C 1.828125 0.882812 1.644531 0.882812 1.46875 0.90625 C 1.476562 0.5625 1.484375 0.21875 1.484375 -0.125 L 1.484375 -2.03125 C 1.140625 -1.789062 0.796875 -1.578125 0.453125 -1.390625 C 0.378906 -1.585938 0.253906 -1.742188 0.078125 -1.859375 C 0.941406 -2.285156 1.71875 -2.800781 2.40625 -3.40625 L 1.15625 -3.40625 C 0.90625 -3.40625 0.660156 -3.398438 0.421875 -3.390625 C 0.429688 -3.523438 0.429688 -3.65625 0.421875 -3.78125 C 0.660156 -3.769531 0.90625 -3.765625 1.15625 -3.765625 L 2.0625 -3.765625 L 2.0625 -4.796875 L 1.59375 -4.796875 C 1.34375 -4.796875 1.097656 -4.789062 0.859375 -4.78125 C 0.867188 -4.914062 0.867188 -5.046875 0.859375 -5.171875 C 1.097656 -5.160156 1.34375 -5.15625 1.59375 -5.15625 L 2.0625 -5.15625 C 2.0625 -5.488281 2.050781 -5.820312 2.03125 -6.15625 C 2.21875 -6.132812 2.398438 -6.132812 2.578125 -6.15625 C 2.566406 -5.820312 2.5625 -5.488281 2.5625 -5.15625 L 2.984375 -5.15625 C 3.234375 -5.15625 3.476562 -5.160156 3.71875 -5.171875 C 3.707031 -5.054688 3.707031 -4.941406 3.71875 -4.828125 C 3.851562 -5.015625 3.976562 -5.203125 4.09375 -5.390625 C 4.25 -5.253906 4.414062 -5.140625 4.59375 -5.046875 C 4.25 -4.585938 3.882812 -4.160156 3.5 -3.765625 L 4.515625 -3.78125 C 4.492188 -3.65625 4.492188 -3.523438 4.515625 -3.390625 C 4.265625 -3.398438 4.019531 -3.40625 3.78125 -3.40625 L 3.140625 -3.40625 C 2.867188 -3.144531 2.59375 -2.894531 2.3125 -2.65625 L 4.09375 -2.65625 L 4.09375 0.890625 L 3.59375 0.890625 L 3.59375 0.1875 L 2 0.1875 C 2 0.425781 2.003906 0.664062 2.015625 0.90625 Z M 3.59375 -1.40625 L 3.59375 -2.296875 L 2 -2.296875 L 2 -1.40625 Z M 3.59375 -1.046875 L 2 -1.046875 L 2 -0.171875 L 3.59375 -0.171875 Z M 2.984375 -4.796875 L 2.5625 -4.796875 L 2.5625 -3.765625 L 2.796875 -3.765625 C 3.117188 -4.085938 3.410156 -4.425781 3.671875 -4.78125 C 3.441406 -4.789062 3.210938 -4.796875 2.984375 -4.796875 Z M 5.578125 1 C 5.398438 0.976562 5.21875 0.976562 5.03125 1 C 5.050781 0.664062 5.0625 0.328125 5.0625 -0.015625 L 5.0625 -5.40625 L 7.171875 -5.421875 L 7.171875 -5.0625 C 7.085938 -4.957031 7.019531 -4.84375 6.96875 -4.71875 L 6.296875 -3.25 C 6.585938 -3.09375 6.816406 -2.875 6.984375 -2.59375 C 7.171875 -2.289062 7.253906 -1.941406 7.234375 -1.546875 L 7.21875 -0.9375 C 7.195312 -0.476562 7.03125 -0.175781 6.71875 -0.03125 C 6.644531 0 6.53125 0.03125 6.375 0.0625 C 6.21875 0.09375 6.066406 0.125 5.921875 0.15625 C 5.859375 -0.03125 5.757812 -0.195312 5.625 -0.34375 C 5.894531 -0.363281 6.15625 -0.398438 6.40625 -0.453125 C 6.539062 -0.484375 6.632812 -0.554688 6.6875 -0.671875 C 6.78125 -0.878906 6.816406 -1.140625 6.796875 -1.453125 C 6.816406 -1.910156 6.722656 -2.285156 6.515625 -2.578125 C 6.304688 -2.878906 6.046875 -3.085938 5.734375 -3.203125 L 6.5625 -5.046875 L 5.5625 -5.046875 L 5.5625 -0.015625 C 5.5625 0.328125 5.566406 0.664062 5.578125 1 Z "/>
</symbol>
<symbol overflow="visible" id="glyph0-6">
<path style="stroke:none;" d="M 7.1875 -0.0625 C 7.164062 0.09375 7.164062 0.242188 7.1875 0.390625 C 6.90625 0.378906 6.617188 0.375 6.328125 0.375 L 3.46875 0.375 C 3.1875 0.375 2.90625 0.378906 2.625 0.390625 C 2.632812 0.242188 2.632812 0.09375 2.625 -0.0625 C 2.90625 -0.0507812 3.1875 -0.046875 3.46875 -0.046875 L 4.484375 -0.046875 L 4.484375 -2.015625 L 3.78125 -2.015625 C 3.5 -2.015625 3.21875 -2.007812 2.9375 -2 C 2.945312 -2.15625 2.945312 -2.304688 2.9375 -2.453125 C 3.21875 -2.441406 3.5 -2.4375 3.78125 -2.4375 L 4.484375 -2.4375 L 4.484375 -2.859375 C 4.484375 -3.222656 4.476562 -3.582031 4.46875 -3.9375 C 4.65625 -3.914062 4.847656 -3.914062 5.046875 -3.9375 C 5.023438 -3.582031 5.015625 -3.222656 5.015625 -2.859375 L 5.015625 -2.4375 L 5.921875 -2.4375 C 6.203125 -2.4375 6.484375 -2.441406 6.765625 -2.453125 C 6.753906 -2.304688 6.753906 -2.15625 6.765625 -2 C 6.484375 -2.007812 6.203125 -2.015625 5.921875 -2.015625 L 5.015625 -2.015625 L 5.015625 -0.046875 L 6.328125 -0.046875 C 6.617188 -0.046875 6.90625 -0.0507812 7.1875 -0.0625 Z M 2.359375 0.90625 C 2.171875 0.882812 1.976562 0.882812 1.78125 0.90625 C 1.800781 0.539062 1.8125 0.179688 1.8125 -0.171875 L 1.8125 -2.15625 C 1.414062 -1.71875 0.992188 -1.328125 0.546875 -0.984375 C 0.429688 -1.179688 0.28125 -1.328125 0.09375 -1.421875 C 0.769531 -1.898438 1.335938 -2.425781 1.796875 -3 C 1.785156 -3.09375 1.78125 -3.1875 1.78125 -3.28125 C 1.851562 -3.28125 1.929688 -3.28125 2.015625 -3.28125 C 2.265625 -3.625 2.453125 -3.972656 2.578125 -4.328125 L 1.453125 -4.328125 C 1.171875 -4.328125 0.882812 -4.316406 0.59375 -4.296875 C 0.613281 -4.453125 0.613281 -4.609375 0.59375 -4.765625 C 0.882812 -4.742188 1.171875 -4.734375 1.453125 -4.734375 L 2.75 -4.734375 C 2.945312 -5.253906 3.085938 -5.679688 3.171875 -6.015625 C 3.378906 -5.941406 3.585938 -5.890625 3.796875 -5.859375 C 3.691406 -5.484375 3.5625 -5.109375 3.40625 -4.734375 L 6.21875 -4.734375 C 6.5 -4.734375 6.78125 -4.742188 7.0625 -4.765625 C 7.050781 -4.609375 7.050781 -4.453125 7.0625 -4.296875 C 6.78125 -4.316406 6.5 -4.328125 6.21875 -4.328125 L 3.203125 -4.328125 C 2.953125 -3.796875 2.664062 -3.300781 2.34375 -2.84375 L 2.34375 -0.171875 C 2.34375 0.179688 2.347656 0.539062 2.359375 0.90625 Z "/>
</symbol>
<symbol overflow="visible" id="glyph0-7">
<path style="stroke:none;" d="M 1.09375 0.796875 C 0.90625 0.773438 0.710938 0.773438 0.515625 0.796875 C 0.535156 0.429688 0.546875 0.0703125 0.546875 -0.28125 L 0.546875 -4.546875 L 2.390625 -4.546875 L 2.390625 -5.09375 C 2.390625 -5.445312 2.378906 -5.804688 2.359375 -6.171875 C 2.554688 -6.148438 2.75 -6.148438 2.9375 -6.171875 C 2.925781 -5.804688 2.921875 -5.445312 2.921875 -5.09375 L 2.921875 -4.546875 L 4.109375 -4.546875 L 4.109375 -5.09375 C 4.109375 -5.445312 4.101562 -5.804688 4.09375 -6.171875 C 4.289062 -6.148438 4.484375 -6.148438 4.671875 -6.171875 C 4.660156 -5.804688 4.65625 -5.445312 4.65625 -5.09375 L 4.65625 -4.546875 L 6.46875 -4.546875 L 6.46875 0.78125 L 5.9375 0.78125 L 5.9375 0.3125 L 1.078125 0.3125 C 1.078125 0.46875 1.082031 0.628906 1.09375 0.796875 Z M 4.65625 -0.125 L 5.9375 -0.125 L 5.9375 -2.046875 L 4.65625 -2.046875 Z M 4.109375 -0.125 L 4.109375 -2.046875 L 2.921875 -2.046875 L 2.921875 -0.125 Z M 2.390625 -0.125 L 2.390625 -2.046875 L 1.078125 -2.046875 L 1.078125 -0.125 Z M 4.65625 -2.46875 L 5.9375 -2.46875 L 5.9375 -4.125 L 4.65625 -4.125 Z M 4.109375 -2.46875 L 4.109375 -4.125 L 2.921875 -4.125 L 2.921875 -2.46875 Z M 2.390625 -2.46875 L 2.390625 -4.125 L 1.078125 -4.125 L 1.078125 -2.46875 Z "/>
</symbol>
<symbol overflow="visible" id="glyph0-8">
<path style="stroke:none;" d="M 3.75 -0.21875 C 3.75 0.15625 3.757812 0.53125 3.78125 0.90625 C 3.582031 0.882812 3.378906 0.882812 3.171875 0.90625 C 3.191406 0.539062 3.203125 0.164062 3.203125 -0.21875 L 3.203125 -5.140625 L 1.125 -5.140625 C 0.789062 -5.140625 0.457031 -5.132812 0.125 -5.125 C 0.144531 -5.300781 0.144531 -5.476562 0.125 -5.65625 C 0.457031 -5.632812 0.789062 -5.625 1.125 -5.625 L 6.203125 -5.625 C 6.535156 -5.625 6.863281 -5.632812 7.1875 -5.65625 C 7.164062 -5.476562 7.164062 -5.300781 7.1875 -5.125 C 6.863281 -5.132812 6.535156 -5.140625 6.203125 -5.140625 L 3.75 -5.140625 L 3.75 -3.703125 L 3.890625 -3.921875 L 5.109375 -3.125 L 6.296875 -2.265625 L 5.921875 -1.78125 L 4.75 -2.609375 L 3.75 -3.28125 Z "/>
</symbol>
<symbol overflow="visible" id="glyph0-9">
<path style="stroke:none;" d="M 5.1875 -0.09375 L 5.1875 -2.515625 L 3.109375 -2.515625 C 2.984375 -1.753906 2.710938 -1.078125 2.296875 -0.484375 C 1.878906 0.0976562 1.375 0.554688 0.78125 0.890625 C 0.664062 0.671875 0.488281 0.539062 0.25 0.5 C 0.957031 0.1875 1.53125 -0.3125 1.96875 -1 C 2.414062 -1.6875 2.640625 -2.5 2.640625 -3.4375 L 2.640625 -4.15625 L 1.171875 -4.15625 C 0.859375 -4.15625 0.546875 -4.144531 0.234375 -4.125 C 0.253906 -4.300781 0.253906 -4.472656 0.234375 -4.640625 C 0.546875 -4.628906 0.859375 -4.625 1.171875 -4.625 L 6.25 -4.625 C 6.5625 -4.625 6.875 -4.628906 7.1875 -4.640625 C 7.164062 -4.472656 7.164062 -4.300781 7.1875 -4.125 C 6.875 -4.144531 6.5625 -4.15625 6.25 -4.15625 L 3.1875 -4.15625 L 3.1875 -3.4375 C 3.1875 -3.28125 3.179688 -3.128906 3.171875 -2.984375 L 5.734375 -2.984375 L 5.734375 0.046875 C 5.734375 0.242188 5.65625 0.410156 5.5 0.546875 C 5.28125 0.734375 4.890625 0.828125 4.328125 0.828125 C 4.378906 0.578125 4.316406 0.351562 4.140625 0.15625 C 4.304688 0.175781 4.5 0.1875 4.71875 0.1875 C 4.945312 0.195312 5.082031 0.1875 5.125 0.15625 C 5.164062 0.125 5.1875 0.0390625 5.1875 -0.09375 Z M 3.8125 -4.75 C 3.457031 -5.175781 3.070312 -5.566406 2.65625 -5.921875 L 3.046875 -6.375 C 3.484375 -5.988281 3.890625 -5.578125 4.265625 -5.140625 Z "/>
</symbol>
<symbol overflow="visible" id="glyph0-10">
<path style="stroke:none;" d=""/>
</symbol>
<symbol overflow="visible" id="glyph0-11">
<path style="stroke:none;" d="M 7.078125 -0.46875 C 7.066406 -0.289062 7.066406 -0.113281 7.078125 0.0625 C 6.753906 0.0390625 6.425781 0.03125 6.09375 0.03125 L 1.171875 0.03125 C 0.835938 0.03125 0.507812 0.0390625 0.1875 0.0625 C 0.207031 -0.113281 0.207031 -0.289062 0.1875 -0.46875 C 0.507812 -0.457031 0.835938 -0.453125 1.171875 -0.453125 L 6.09375 -0.453125 C 6.425781 -0.453125 6.753906 -0.457031 7.078125 -0.46875 Z M 6.34375 -5.15625 C 6.332031 -4.96875 6.332031 -4.785156 6.34375 -4.609375 C 6.019531 -4.628906 5.691406 -4.640625 5.359375 -4.640625 L 2.09375 -4.640625 C 1.757812 -4.640625 1.425781 -4.628906 1.09375 -4.609375 C 1.113281 -4.785156 1.113281 -4.96875 1.09375 -5.15625 C 1.425781 -5.132812 1.757812 -5.125 2.09375 -5.125 L 5.359375 -5.125 C 5.691406 -5.125 6.019531 -5.132812 6.34375 -5.15625 Z "/>
</symbol>
<symbol overflow="visible" id="glyph0-12">
<path style="stroke:none;" d="M 5.875 0.90625 C 5.6875 0.882812 5.492188 0.882812 5.296875 0.90625 C 5.316406 0.539062 5.328125 0.179688 5.328125 -0.171875 L 5.328125 -2.125 C 5.328125 -2.488281 5.316406 -2.847656 5.296875 -3.203125 C 5.492188 -3.179688 5.6875 -3.179688 5.875 -3.203125 C 5.863281 -2.847656 5.859375 -2.488281 5.859375 -2.125 L 5.859375 -0.171875 C 5.859375 0.179688 5.863281 0.539062 5.875 0.90625 Z M 3.609375 -3.1875 C 3.816406 -3.164062 4.023438 -3.164062 4.234375 -3.1875 C 4.273438 -2.769531 4.269531 -2.394531 4.21875 -2.0625 C 4.175781 -1.738281 4.125 -1.460938 4.0625 -1.234375 C 4.007812 -1.003906 3.925781 -0.773438 3.8125 -0.546875 C 3.707031 -0.328125 3.585938 -0.125 3.453125 0.0625 C 3.160156 0.445312 2.757812 0.722656 2.25 0.890625 C 2.101562 0.671875 1.898438 0.507812 1.640625 0.40625 C 2.085938 0.375 2.488281 0.203125 2.84375 -0.109375 C 3.195312 -0.429688 3.441406 -0.878906 3.578125 -1.453125 C 3.722656 -2.035156 3.734375 -2.613281 3.609375 -3.1875 Z M 7.21875 -3.59375 C 7.03125 -3.488281 6.90625 -3.335938 6.84375 -3.140625 C 6.40625 -3.304688 5.984375 -3.566406 5.578125 -3.921875 C 5.171875 -4.285156 4.847656 -4.703125 4.609375 -5.171875 C 4.242188 -4.304688 3.628906 -3.523438 2.765625 -2.828125 C 2.671875 -2.992188 2.539062 -3.117188 2.375 -3.203125 C 2.820312 -3.535156 3.191406 -3.914062 3.484375 -4.34375 C 3.785156 -4.769531 4.066406 -5.320312 4.328125 -6 L 4.578125 -5.921875 L 4.796875 -5.984375 C 4.992188 -5.335938 5.3125 -4.816406 5.75 -4.421875 C 6.15625 -4.066406 6.644531 -3.789062 7.21875 -3.59375 Z M 1.015625 1 C 0.816406 0.976562 0.625 0.976562 0.4375 1 C 0.445312 0.65625 0.453125 0.316406 0.453125 -0.015625 L 0.453125 -5.78125 L 2.8125 -5.78125 L 2.8125 -5.421875 C 2.71875 -5.328125 2.640625 -5.226562 2.578125 -5.125 L 1.84375 -3.796875 C 2.414062 -3.078125 2.703125 -2.265625 2.703125 -1.359375 C 2.671875 -0.765625 2.414062 -0.375 1.9375 -0.1875 L 1.75 -0.109375 C 1.644531 -0.273438 1.53125 -0.425781 1.40625 -0.5625 C 1.539062 -0.601562 1.671875 -0.648438 1.796875 -0.703125 C 2.054688 -0.816406 2.203125 -1.035156 2.234375 -1.359375 C 2.234375 -1.816406 2.148438 -2.257812 1.984375 -2.6875 C 1.828125 -3.125 1.597656 -3.519531 1.296875 -3.875 L 2.140625 -5.421875 L 0.96875 -5.421875 L 0.984375 -0.015625 C 0.984375 0.316406 0.992188 0.65625 1.015625 1 Z "/>
</symbol>
<symbol overflow="visible" id="glyph0-13">
<path style="stroke:none;" d="M 1.9375 -2.90625 C 1.707031 -2.90625 1.519531 -2.976562 1.375 -3.125 C 1.226562 -3.269531 1.15625 -3.457031 1.15625 -3.6875 L 1.15625 -5.953125 L 5.578125 -5.96875 L 5.578125 -4.234375 L 1.6875 -4.234375 L 1.6875 -3.6875 C 1.6875 -3.601562 1.710938 -3.53125 1.765625 -3.46875 C 1.816406 -3.40625 1.878906 -3.375 1.953125 -3.375 L 5.625 -3.375 C 5.738281 -3.375 5.84375 -3.40625 5.9375 -3.46875 C 6.03125 -3.53125 6.082031 -3.609375 6.09375 -3.703125 L 6.234375 -4.5 C 6.390625 -4.394531 6.5625 -4.34375 6.75 -4.34375 L 6.53125 -3.3125 C 6.507812 -3.1875 6.445312 -3.085938 6.34375 -3.015625 C 6.25 -2.941406 6.132812 -2.90625 6 -2.90625 Z M 1.6875 -4.65625 L 5.046875 -4.65625 L 5.046875 -5.546875 L 1.6875 -5.53125 Z M 2.6875 0.140625 C 2.320312 -0.265625 1.9375 -0.640625 1.53125 -0.984375 L 1.8125 -1.21875 L 1.1875 -1.21875 C 0.90625 -1.21875 0.625 -1.210938 0.34375 -1.203125 C 0.351562 -1.335938 0.351562 -1.46875 0.34375 -1.59375 C 0.625 -1.582031 0.90625 -1.578125 1.1875 -1.578125 L 4.6875 -1.578125 L 4.6875 -2.5 L 5.21875 -2.5 L 5.21875 -1.578125 L 6.15625 -1.578125 C 6.4375 -1.578125 6.722656 -1.582031 7.015625 -1.59375 C 6.992188 -1.46875 6.992188 -1.335938 7.015625 -1.203125 C 6.722656 -1.210938 6.4375 -1.21875 6.15625 -1.21875 L 5.21875 -1.21875 L 5.21875 0.4375 C 5.21875 0.613281 5.15625 0.75 5.03125 0.84375 C 4.90625 0.945312 4.773438 1.015625 4.640625 1.046875 C 4.378906 1.085938 4.117188 1.109375 3.859375 1.109375 C 3.890625 0.867188 3.828125 0.6875 3.671875 0.5625 C 3.828125 0.570312 4.015625 0.578125 4.234375 0.578125 C 4.453125 0.585938 4.582031 0.578125 4.625 0.546875 C 4.664062 0.503906 4.6875 0.414062 4.6875 0.28125 L 4.6875 -1.21875 L 2.078125 -1.21875 C 2.441406 -0.894531 2.796875 -0.539062 3.140625 -0.15625 Z "/>
</symbol>
<symbol overflow="visible" id="glyph0-14">
<path style="stroke:none;" d="M 0.3125 -1.765625 C 0.320312 -1.890625 0.320312 -2.007812 0.3125 -2.125 C 0.53125 -2.113281 0.753906 -2.109375 0.984375 -2.109375 L 1.375 -2.109375 C 1.445312 -2.347656 1.519531 -2.582031 1.59375 -2.8125 C 1.78125 -2.738281 1.96875 -2.691406 2.15625 -2.671875 L 1.921875 -2.109375 L 3.234375 -2.109375 C 3.210938 -1.421875 2.984375 -0.8125 2.546875 -0.28125 C 2.804688 -0.0625 3.050781 0.164062 3.28125 0.40625 C 3.113281 0.507812 2.957031 0.628906 2.8125 0.765625 C 2.625 0.523438 2.421875 0.296875 2.203125 0.078125 C 1.734375 0.492188 1.191406 0.75 0.578125 0.84375 C 0.503906 0.65625 0.398438 0.488281 0.265625 0.34375 C 0.847656 0.320312 1.363281 0.128906 1.8125 -0.234375 C 1.519531 -0.472656 1.207031 -0.675781 0.875 -0.84375 C 1.007812 -1.144531 1.132812 -1.457031 1.25 -1.78125 Z M 2.421875 -2.78125 C 2.242188 -2.800781 2.0625 -2.800781 1.875 -2.78125 C 1.894531 -3.113281 1.90625 -3.445312 1.90625 -3.78125 L 1.90625 -4.140625 C 1.789062 -3.890625 1.625 -3.628906 1.40625 -3.359375 C 1.195312 -3.085938 0.878906 -2.765625 0.453125 -2.390625 C 0.367188 -2.535156 0.242188 -2.640625 0.078125 -2.703125 C 0.523438 -3.078125 0.929688 -3.554688 1.296875 -4.140625 L 0.890625 -4.140625 C 0.660156 -4.140625 0.429688 -4.132812 0.203125 -4.125 C 0.210938 -4.25 0.210938 -4.375 0.203125 -4.5 L 1.203125 -4.484375 L 0.390625 -5.484375 L 0.8125 -5.828125 L 1.671875 -4.765625 L 1.34375 -4.484375 L 1.90625 -4.484375 L 1.90625 -4.96875 C 1.90625 -5.300781 1.894531 -5.632812 1.875 -5.96875 C 2.0625 -5.957031 2.242188 -5.957031 2.421875 -5.96875 C 2.398438 -5.632812 2.390625 -5.300781 2.390625 -4.96875 L 2.390625 -4.734375 C 2.648438 -5.066406 2.898438 -5.460938 3.140625 -5.921875 C 3.296875 -5.816406 3.457031 -5.734375 3.625 -5.671875 C 3.425781 -5.296875 3.15625 -4.898438 2.8125 -4.484375 L 3.703125 -4.5 C 3.679688 -4.375 3.679688 -4.25 3.703125 -4.125 L 2.71875 -4.140625 L 3.5 -3.203125 L 3.078125 -2.859375 L 2.390625 -3.703125 C 2.390625 -3.390625 2.398438 -3.082031 2.421875 -2.78125 Z M 2.15625 -0.59375 C 2.445312 -0.9375 2.628906 -1.332031 2.703125 -1.78125 L 1.78125 -1.78125 L 1.5 -1.0625 C 1.726562 -0.914062 1.945312 -0.757812 2.15625 -0.59375 Z M 2.390625 -4.140625 L 2.390625 -3.984375 L 2.59375 -4.140625 Z M 2.390625 -4.484375 L 2.59375 -4.484375 C 2.53125 -4.535156 2.460938 -4.570312 2.390625 -4.59375 Z M 4.484375 -5.890625 C 4.648438 -5.835938 4.832031 -5.804688 5.03125 -5.796875 C 4.9375 -5.367188 4.832031 -4.945312 4.71875 -4.53125 L 4.6875 -4.4375 L 6.3125 -4.4375 C 6.550781 -4.4375 6.789062 -4.441406 7.03125 -4.453125 C 7.019531 -4.296875 7.019531 -4.140625 7.03125 -3.984375 L 6.28125 -4 C 6.238281 -2.832031 6.007812 -1.847656 5.59375 -1.046875 C 6.019531 -0.429688 6.582031 0.0351562 7.28125 0.359375 C 7.125 0.460938 7.015625 0.613281 6.953125 0.8125 C 6.304688 0.5 5.773438 0.0234375 5.359375 -0.609375 C 4.910156 0.160156 4.296875 0.71875 3.515625 1.0625 C 3.472656 0.832031 3.390625 0.648438 3.265625 0.515625 C 4.054688 0.203125 4.664062 -0.320312 5.09375 -1.0625 C 4.71875 -1.757812 4.484375 -2.5625 4.390625 -3.46875 C 4.234375 -3.019531 4.019531 -2.566406 3.75 -2.109375 C 3.625 -2.253906 3.460938 -2.34375 3.265625 -2.375 C 3.453125 -2.664062 3.644531 -3.019531 3.84375 -3.4375 C 4.050781 -3.851562 4.195312 -4.265625 4.28125 -4.671875 C 4.375 -5.078125 4.441406 -5.484375 4.484375 -5.890625 Z M 4.765625 -4 C 4.773438 -3.519531 4.832031 -3.0625 4.9375 -2.625 C 5.039062 -2.195312 5.164062 -1.832031 5.3125 -1.53125 C 5.601562 -2.21875 5.757812 -3.039062 5.78125 -4 Z "/>
</symbol>
<symbol overflow="visible" id="glyph0-15">
<path style="stroke:none;" d="M 5.046875 -0.125 L 4.515625 -0.125 L 4.515625 -5.078125 C 4.515625 -5.441406 4.503906 -5.804688 4.484375 -6.171875 C 4.679688 -6.148438 4.878906 -6.148438 5.078125 -6.171875 C 5.054688 -5.804688 5.046875 -5.441406 5.046875 -5.078125 L 5.046875 -4.234375 L 5.234375 -4.4375 C 5.796875 -3.925781 6.332031 -3.382812 6.84375 -2.8125 L 6.40625 -2.421875 C 5.96875 -2.898438 5.515625 -3.359375 5.046875 -3.796875 Z M 7.015625 0.203125 C 6.867188 0.367188 6.796875 0.5625 6.796875 0.78125 C 6.390625 0.738281 5.894531 0.71875 5.3125 0.71875 C 4.738281 0.71875 4.335938 0.691406 4.109375 0.640625 C 3.359375 0.503906 2.734375 0.132812 2.234375 -0.46875 C 1.785156 0.0820312 1.238281 0.503906 0.59375 0.796875 C 0.445312 0.628906 0.28125 0.492188 0.09375 0.390625 C 0.8125 0.109375 1.414062 -0.332031 1.90625 -0.9375 C 1.632812 -1.375 1.425781 -1.867188 1.28125 -2.421875 C 1.082031 -2.035156 0.863281 -1.660156 0.625 -1.296875 C 0.457031 -1.453125 0.265625 -1.539062 0.046875 -1.5625 C 0.742188 -2.539062 1.195312 -3.4375 1.40625 -4.25 C 1.550781 -4.789062 1.65625 -5.335938 1.71875 -5.890625 C 1.925781 -5.835938 2.140625 -5.804688 2.359375 -5.796875 C 2.273438 -5.359375 2.175781 -4.941406 2.0625 -4.546875 L 3.5 -4.546875 C 3.4375 -3.796875 3.347656 -3.15625 3.234375 -2.625 C 3.097656 -2 2.875 -1.429688 2.5625 -0.921875 C 2.9375 -0.410156 3.46875 -0.078125 4.15625 0.078125 C 4.59375 0.160156 5.039062 0.1875 5.5 0.15625 Z M 2.234375 -1.421875 C 2.640625 -2.109375 2.890625 -3.003906 2.984375 -4.109375 L 1.921875 -4.109375 C 1.828125 -3.796875 1.726562 -3.503906 1.625 -3.234375 L 1.65625 -3.234375 C 1.75 -2.578125 1.941406 -1.972656 2.234375 -1.421875 Z "/>
</symbol>
<symbol overflow="visible" id="glyph0-16">
<path style="stroke:none;" d="M 2.359375 -4.203125 C 2.023438 -4.671875 1.660156 -5.113281 1.265625 -5.53125 L 1.703125 -5.953125 C 2.117188 -5.503906 2.5 -5.035156 2.84375 -4.546875 Z M 6.25 -3.546875 L 4.0625 -3.546875 C 4 -3.171875 3.90625 -2.8125 3.78125 -2.46875 L 4.21875 -2.8125 C 4.601562 -2.332031 4.953125 -1.832031 5.265625 -1.3125 L 4.75 -1 C 4.445312 -1.5 4.117188 -1.972656 3.765625 -2.421875 C 3.210938 -0.910156 2.234375 0.1875 0.828125 0.875 C 0.703125 0.644531 0.507812 0.519531 0.25 0.5 C 1.082031 0.1875 1.789062 -0.320312 2.375 -1.03125 C 2.96875 -1.738281 3.34375 -2.578125 3.5 -3.546875 L 1.5625 -3.546875 C 1.25 -3.546875 0.9375 -3.535156 0.625 -3.515625 C 0.632812 -3.679688 0.632812 -3.851562 0.625 -4.03125 C 0.9375 -4.007812 1.25 -4 1.5625 -4 L 3.5625 -4 C 3.582031 -4.1875 3.59375 -4.367188 3.59375 -4.546875 L 3.59375 -5.046875 C 3.59375 -5.421875 3.582031 -5.789062 3.5625 -6.15625 C 3.757812 -6.132812 3.957031 -6.132812 4.15625 -6.15625 C 4.132812 -5.789062 4.125 -5.421875 4.125 -5.046875 L 4.125 -4.546875 C 4.125 -4.367188 4.117188 -4.1875 4.109375 -4 L 6.796875 -4 L 6.796875 0.140625 C 6.796875 0.367188 6.71875 0.554688 6.5625 0.703125 C 6.332031 0.910156 5.941406 1 5.390625 0.96875 C 5.441406 0.71875 5.378906 0.5 5.203125 0.3125 C 5.367188 0.332031 5.5625 0.34375 5.78125 0.34375 C 6 0.34375 6.132812 0.328125 6.1875 0.296875 C 6.226562 0.253906 6.25 0.132812 6.25 -0.0625 Z "/>
</symbol>
<symbol overflow="visible" id="glyph0-17">
<path style="stroke:none;" d="M 7.1875 -0.03125 C 7.164062 0.125 7.164062 0.285156 7.1875 0.453125 C 6.894531 0.429688 6.597656 0.421875 6.296875 0.421875 L 1.03125 0.421875 C 0.726562 0.421875 0.425781 0.429688 0.125 0.453125 C 0.144531 0.285156 0.144531 0.125 0.125 -0.03125 C 0.425781 -0.0195312 0.726562 -0.015625 1.03125 -0.015625 L 1.328125 -0.015625 L 1.328125 -2.546875 C 1.328125 -2.898438 1.316406 -3.265625 1.296875 -3.640625 C 1.503906 -3.617188 1.703125 -3.617188 1.890625 -3.640625 C 1.878906 -3.265625 1.875 -2.898438 1.875 -2.546875 L 1.875 -0.015625 L 3.53125 -0.015625 L 3.53125 -5.28125 L 1.34375 -5.28125 C 1.039062 -5.28125 0.742188 -5.273438 0.453125 -5.265625 C 0.460938 -5.429688 0.460938 -5.59375 0.453125 -5.75 C 0.742188 -5.738281 1.039062 -5.734375 1.34375 -5.734375 L 6.015625 -5.734375 C 6.316406 -5.734375 6.617188 -5.738281 6.921875 -5.75 C 6.898438 -5.59375 6.898438 -5.429688 6.921875 -5.265625 C 6.617188 -5.273438 6.316406 -5.28125 6.015625 -5.28125 L 4.078125 -5.28125 L 4.078125 -3.046875 L 5.5625 -3.046875 C 5.851562 -3.046875 6.148438 -3.046875 6.453125 -3.046875 C 6.441406 -2.890625 6.441406 -2.734375 6.453125 -2.578125 C 6.148438 -2.585938 5.851562 -2.59375 5.5625 -2.59375 L 4.078125 -2.59375 L 4.078125 -0.015625 L 6.296875 -0.015625 C 6.597656 -0.015625 6.894531 -0.0195312 7.1875 -0.03125 Z "/>
</symbol>
<symbol overflow="visible" id="glyph0-18">
<path style="stroke:none;" d="M 1.078125 0.84375 C 0.878906 0.820312 0.679688 0.820312 0.484375 0.84375 C 0.503906 0.476562 0.515625 0.117188 0.515625 -0.234375 L 0.515625 -3.21875 L 2.265625 -3.21875 L 2.265625 -5.984375 L 5.09375 -5.984375 L 5.09375 -3.234375 L 6.796875 -3.234375 L 6.796875 -0.1875 C 6.796875 0.175781 6.804688 0.539062 6.828125 0.90625 C 6.628906 0.882812 6.429688 0.882812 6.234375 0.90625 C 6.242188 0.695312 6.253906 0.484375 6.265625 0.265625 L 1.0625 0.265625 C 1.0625 0.460938 1.066406 0.65625 1.078125 0.84375 Z M 2.25 -2.78125 L 1.0625 -2.78125 L 1.0625 -0.171875 L 6.265625 -0.171875 L 6.265625 -2.796875 L 4.5625 -2.796875 L 4.5625 -5.53125 L 2.796875 -5.53125 L 2.8125 -3.765625 C 2.8125 -3.410156 2.816406 -3.050781 2.828125 -2.6875 C 2.640625 -2.695312 2.445312 -2.695312 2.25 -2.6875 C 2.25 -2.71875 2.25 -2.75 2.25 -2.78125 Z "/>
</symbol>
<symbol overflow="visible" id="glyph0-19">
<path style="stroke:none;" d="M 6.8125 0.90625 C 6.625 0.882812 6.4375 0.882812 6.25 0.90625 C 6.257812 0.71875 6.269531 0.53125 6.28125 0.34375 L 0.5 0.34375 L 0.5 -2.96875 C 0.5 -3.320312 0.488281 -3.671875 0.46875 -4.015625 C 0.65625 -3.992188 0.84375 -3.992188 1.03125 -4.015625 C 1.019531 -3.671875 1.015625 -3.320312 1.015625 -2.96875 L 1.015625 -0.046875 L 6.28125 -0.046875 L 6.28125 -3.015625 C 6.28125 -3.359375 6.269531 -3.703125 6.25 -4.046875 C 6.4375 -4.023438 6.625 -4.023438 6.8125 -4.046875 C 6.800781 -3.703125 6.796875 -3.359375 6.796875 -3.015625 L 6.796875 -0.140625 C 6.796875 0.203125 6.800781 0.550781 6.8125 0.90625 Z M 3.984375 -0.90625 C 3.984375 -0.695312 3.910156 -0.523438 3.765625 -0.390625 C 3.546875 -0.191406 3.175781 -0.101562 2.65625 -0.125 C 2.707031 -0.363281 2.648438 -0.570312 2.484375 -0.75 C 2.628906 -0.726562 2.804688 -0.71875 3.015625 -0.71875 C 3.222656 -0.71875 3.347656 -0.734375 3.390625 -0.765625 C 3.441406 -0.804688 3.46875 -0.914062 3.46875 -1.09375 L 3.46875 -2.40625 C 2.9375 -2.082031 2.503906 -1.8125 2.171875 -1.59375 L 1.453125 -1.09375 C 1.398438 -1.3125 1.289062 -1.5 1.125 -1.65625 C 1.53125 -1.78125 1.898438 -1.925781 2.234375 -2.09375 C 2.578125 -2.269531 2.988281 -2.503906 3.46875 -2.796875 L 3.46875 -4.6875 L 5.046875 -5.515625 L 1.6875 -5.515625 C 1.425781 -5.515625 1.160156 -5.507812 0.890625 -5.5 C 0.910156 -5.632812 0.910156 -5.773438 0.890625 -5.921875 C 1.160156 -5.910156 1.425781 -5.90625 1.6875 -5.90625 L 6.171875 -5.90625 L 6.234375 -5.453125 C 6.023438 -5.410156 5.828125 -5.34375 5.640625 -5.25 L 3.984375 -4.375 L 3.984375 -2.671875 L 4.0625 -2.78125 L 5.046875 -2.0625 L 6 -1.28125 L 5.625 -0.84375 L 4.6875 -1.609375 L 3.984375 -2.140625 Z M 5.5625 -4.234375 C 5.675781 -4.078125 5.804688 -3.941406 5.953125 -3.828125 C 5.515625 -3.410156 4.960938 -3.050781 4.296875 -2.75 C 4.242188 -2.914062 4.144531 -3.054688 4 -3.171875 C 4.34375 -3.328125 4.6875 -3.535156 5.03125 -3.796875 Z M 2.625 -2.703125 C 2.25 -3.097656 1.847656 -3.46875 1.421875 -3.8125 L 1.78125 -4.25 C 2.226562 -3.894531 2.648438 -3.507812 3.046875 -3.09375 Z "/>
</symbol>
<symbol overflow="visible" id="glyph1-0">
<path style="stroke:none;" d="M 0.375 1.328125 L 0.375 -5.28125 L 4.125 -5.28125 L 4.125 1.328125 Z M 0.796875 0.90625 L 3.703125 0.90625 L 3.703125 -4.859375 L 0.796875 -4.859375 Z "/>
</symbol>
<symbol overflow="visible" id="glyph1-1">
<path style="stroke:none;" d="M 4.4375 -3.953125 L 4.484375 -3.953125 L 6 -2.4375 L 6 -2.40625 L 4.484375 -0.890625 L 4.4375 -0.890625 L 4.765625 -1.484375 L 0.421875 -1.484375 L 0.421875 -2.078125 L 5.09375 -2.078125 L 5.28125 -2.421875 L 5.09375 -2.765625 L 0.421875 -2.765625 L 0.421875 -3.359375 L 4.765625 -3.359375 Z "/>
</symbol>
<symbol overflow="visible" id="glyph1-2">
<path style="stroke:none;" d=""/>
</symbol>
</g>
</defs>
<g id="surface27">
<g style="fill:rgb(100%,100%,100%);fill-opacity:1;">
  <use xlink:href="#glyph0-1" x="30" y="27.22168"/>
  <use xlink:href="#glyph0-2" x="38" y="27.22168"/>
  <use xlink:href="#glyph0-3" x="46" y="27.22168"/>
  <use xlink:href="#glyph0-4" x="54" y="27.22168"/>
  <use xlink:href="#glyph0-5" x="62" y="27.22168"/>
  <use xlink:href="#glyph0-6" x="70" y="27.22168"/>
  <use xlink:href="#glyph0-7" x="78" y="27.22168"/>
  <use xlink:href="#glyph0-4" x="86" y="27.22168"/>
  <use xlink:href="#glyph0-8" x="94" y="27.22168"/>
  <use xlink:href="#glyph0-9" x="102" y="27.22168"/>
  <use xlink:href="#glyph0-10" x="110" y="27.22168"/>
</g>
<g style="fill:rgb(100%,100%,100%);fill-opacity:1;">
  <use xlink:href="#glyph1-1" x="30" y="34.53418"/>
  <use xlink:href="#glyph1-2" x="36" y="34.53418"/>
</g>
<g style="fill:rgb(100%,100%,100%);fill-opacity:1;">
  <use xlink:href="#glyph0-11" x="38" y="34.53418"/>
  <use xlink:href="#glyph0-12" x="46" y="34.53418"/>
  <use xlink:href="#glyph0-13" x="54" y="34.53418"/>
  <use xlink:href="#glyph0-14" x="62" y="34.53418"/>
  <use xlink:href="#glyph0-15" x="70" y="34.53418"/>
  <use xlink:href="#glyph0-15" x="78" y="34.53418"/>
  <use xlink:href="#glyph0-16" x="86" y="34.53418"/>
  <use xlink:href="#glyph0-17" x="94" y="34.53418"/>
  <use xlink:href="#glyph0-10" x="102" y="34.53418"/>
</g>
<g style="fill:rgb(100%,100%,100%);fill-opacity:1;">
  <use xlink:href="#glyph1-1" x="30" y="41.84668"/>
  <use xlink:href="#glyph1-2" x="36" y="41.84668"/>
</g>
<g style="fill:rgb(100%,100%,100%);fill-opacity:1;">
  <use xlink:href="#glyph0-18" x="38" y="41.84668"/>
  <use xlink:href="#glyph0-19" x="46" y="41.84668"/>
  <use xlink:href="#glyph0-14" x="54" y="41.84668"/>
</g>
</g>
</svg>
