<?xml version="1.0" encoding="UTF-8"?>
<svg xmlns="http://www.w3.org/2000/svg" xmlns:xlink="http://www.w3.org/1999/xlink" width="1280pt" height="720pt" viewBox="0 0 1280 720" version="1.1">
<defs>
<g>
<symbol overflow="visible" id="glyph0-0">
<path style="stroke:none;" d="M 0.40625 0 L 0.40625 -8.140625 L 3.65625 -8.140625 L 3.65625 0 Z M 0.8125 -0.40625 L 3.25 -0.40625 L 3.25 -7.734375 L 0.8125 -7.734375 Z "/>
</symbol>
<symbol overflow="visible" id="glyph0-1">
<path style="stroke:none;" d="M 3.859375 -6.84375 C 3.304688 -7.613281 2.707031 -8.335938 2.0625 -9.015625 L 2.78125 -9.6875 C 3.445312 -8.96875 4.066406 -8.207031 4.640625 -7.40625 Z M 10.171875 -5.78125 L 6.609375 -5.78125 C 6.515625 -5.175781 6.367188 -4.585938 6.171875 -4.015625 L 6.875 -4.578125 C 7.488281 -3.796875 8.050781 -2.984375 8.5625 -2.140625 L 7.734375 -1.640625 C 7.242188 -2.441406 6.710938 -3.207031 6.140625 -3.9375 C 5.222656 -1.488281 3.628906 0.300781 1.359375 1.4375 C 1.148438 1.0625 0.832031 0.851562 0.40625 0.8125 C 1.757812 0.300781 2.914062 -0.523438 3.875 -1.671875 C 4.832031 -2.828125 5.441406 -4.195312 5.703125 -5.78125 L 2.546875 -5.78125 C 2.035156 -5.78125 1.523438 -5.765625 1.015625 -5.734375 C 1.035156 -6.003906 1.035156 -6.28125 1.015625 -6.5625 C 1.523438 -6.539062 2.035156 -6.53125 2.546875 -6.53125 L 5.796875 -6.53125 C 5.828125 -6.820312 5.84375 -7.113281 5.84375 -7.40625 L 5.84375 -8.234375 C 5.84375 -8.835938 5.828125 -9.4375 5.796875 -10.03125 C 6.117188 -10 6.445312 -10 6.78125 -10.03125 C 6.75 -9.4375 6.734375 -8.835938 6.734375 -8.234375 L 6.734375 -7.40625 C 6.734375 -7.113281 6.71875 -6.820312 6.6875 -6.53125 L 11.078125 -6.53125 L 11.078125 0.234375 C 11.078125 0.597656 10.953125 0.898438 10.703125 1.140625 C 10.316406 1.472656 9.671875 1.625 8.765625 1.59375 C 8.859375 1.175781 8.765625 0.816406 8.484375 0.515625 C 8.742188 0.546875 9.050781 0.5625 9.40625 0.5625 C 9.769531 0.5625 9.992188 0.535156 10.078125 0.484375 C 10.140625 0.410156 10.171875 0.210938 10.171875 -0.109375 Z "/>
</symbol>
<symbol overflow="visible" id="glyph0-2">
<path style="stroke:none;" d="M 8.5625 1.46875 C 8.226562 1.4375 7.898438 1.4375 7.578125 1.46875 C 7.609375 0.875 7.625 0.273438 7.625 -0.328125 L 7.625 -4.78125 L 6.078125 -4.78125 C 5.578125 -4.78125 5.070312 -4.769531 4.5625 -4.75 C 4.582031 -5.03125 4.582031 -5.304688 4.5625 -5.578125 C 5.0625 -5.546875 5.566406 -5.53125 6.078125 -5.53125 L 7.625 -5.53125 L 7.625 -7.84375 C 7.625 -8.445312 7.609375 -9.046875 7.578125 -9.640625 C 7.898438 -9.609375 8.226562 -9.609375 8.5625 -9.640625 C 8.53125 -9.046875 8.515625 -8.445312 8.515625 -7.84375 L 8.515625 -5.53125 L 10.296875 -5.53125 C 10.796875 -5.53125 11.300781 -5.546875 11.8125 -5.578125 C 11.789062 -5.304688 11.789062 -5.03125 11.8125 -4.75 C 11.300781 -4.769531 10.796875 -4.78125 10.296875 -4.78125 L 8.515625 -4.78125 L 8.515625 -0.328125 C 8.515625 0.273438 8.53125 0.875 8.5625 1.46875 Z M 4.6875 -9.40625 C 4.3125 -8.320312 3.832031 -7.3125 3.25 -6.375 L 3.25 -0.0625 C 3.25 0.5 3.257812 1.0625 3.28125 1.625 C 2.945312 1.59375 2.613281 1.59375 2.28125 1.625 C 2.3125 1.0625 2.328125 0.5 2.328125 -0.0625 L 2.328125 -5.125 C 1.878906 -4.59375 1.382812 -4.113281 0.84375 -3.6875 C 0.632812 -3.96875 0.347656 -4.175781 -0.015625 -4.3125 C 0.484375 -4.675781 0.945312 -5.066406 1.375 -5.484375 C 2.082031 -6.179688 2.585938 -6.867188 2.890625 -7.546875 C 3.179688 -8.203125 3.421875 -8.898438 3.609375 -9.640625 C 3.941406 -9.523438 4.300781 -9.445312 4.6875 -9.40625 Z "/>
</symbol>
<symbol overflow="visible" id="glyph0-3">
<path style="stroke:none;" d="M 12.125 1.1875 L 11.28125 1.703125 L 10.328125 0.234375 L 9.171875 0.328125 L 2.25 1.1875 L 2.15625 0.375 C 2.40625 0.320312 2.628906 0.21875 2.828125 0.0625 C 3.503906 -0.46875 4.425781 -1.40625 5.59375 -2.75 C 6.769531 -4.101562 7.625 -5.179688 8.15625 -5.984375 C 8.351562 -6.285156 8.53125 -6.601562 8.6875 -6.9375 C 8.976562 -6.726562 9.289062 -6.546875 9.625 -6.390625 C 9.445312 -6.046875 9.195312 -5.671875 8.875 -5.265625 C 8.5625 -4.867188 7.765625 -3.96875 6.484375 -2.5625 C 5.203125 -1.164062 4.328125 -0.25 3.859375 0.1875 L 9.109375 -0.375 L 9.828125 -0.5 L 8.578125 -2.25 L 9.375 -2.859375 L 10.78125 -0.859375 Z M 6.796875 -9.96875 C 7.085938 -9.738281 7.394531 -9.546875 7.71875 -9.390625 C 5.613281 -6.285156 3.335938 -3.9375 0.890625 -2.34375 C 0.722656 -2.6875 0.472656 -2.945312 0.140625 -3.125 C 2.179688 -4.394531 3.726562 -5.703125 4.78125 -7.046875 C 5.5 -7.972656 6.171875 -8.945312 6.796875 -9.96875 Z "/>
</symbol>
<symbol overflow="visible" id="glyph0-4">
<path style="stroke:none;" d="M 10.453125 -0.171875 L 10.453125 -2.796875 L 8.34375 -2.796875 C 8.21875 -0.929688 7.535156 0.476562 6.296875 1.4375 C 6.117188 1.144531 5.863281 0.96875 5.53125 0.90625 C 6.882812 0.113281 7.554688 -1.320312 7.546875 -3.40625 L 7.546875 -9.1875 L 11.25 -9.1875 L 11.25 0.140625 C 11.25 0.671875 11.09375 1.035156 10.78125 1.234375 C 10.457031 1.441406 9.925781 1.546875 9.1875 1.546875 C 9.269531 1.171875 9.179688 0.84375 8.921875 0.5625 C 9.160156 0.582031 9.429688 0.59375 9.734375 0.59375 C 10.046875 0.601562 10.242188 0.570312 10.328125 0.5 C 10.410156 0.4375 10.453125 0.210938 10.453125 -0.171875 Z M 5.625 0.484375 C 5.207031 -0.191406 4.75 -0.847656 4.25 -1.484375 L 4.921875 -2.03125 C 5.460938 -1.375 5.945312 -0.6875 6.375 0.03125 Z M 6.984375 -2.671875 C 6.953125 -2.472656 6.953125 -2.273438 6.984375 -2.078125 C 6.609375 -2.085938 6.234375 -2.09375 5.859375 -2.09375 L 2.453125 -2.09375 C 2.722656 -1.96875 3 -1.867188 3.28125 -1.796875 C 2.914062 -0.679688 2.191406 0.347656 1.109375 1.296875 C 0.960938 1.054688 0.753906 0.882812 0.484375 0.78125 C 0.960938 0.394531 1.347656 -0.0195312 1.640625 -0.46875 C 1.929688 -0.914062 2.203125 -1.457031 2.453125 -2.09375 L 1.34375 -2.09375 C 0.96875 -2.09375 0.59375 -2.085938 0.21875 -2.078125 C 0.238281 -2.273438 0.238281 -2.472656 0.21875 -2.671875 C 0.59375 -2.660156 0.96875 -2.65625 1.34375 -2.65625 L 1.875 -2.65625 L 1.875 -7.828125 L 0.5 -7.796875 C 0.519531 -8.003906 0.519531 -8.207031 0.5 -8.40625 L 1.875 -8.375 C 1.875 -8.90625 1.863281 -9.4375 1.84375 -9.96875 C 2.132812 -9.9375 2.425781 -9.9375 2.71875 -9.96875 C 2.695312 -9.4375 2.679688 -8.90625 2.671875 -8.375 L 4.953125 -8.375 C 4.953125 -8.90625 4.941406 -9.4375 4.921875 -9.96875 C 5.210938 -9.9375 5.5 -9.9375 5.78125 -9.96875 C 5.757812 -9.4375 5.75 -8.90625 5.75 -8.375 L 6.890625 -8.40625 C 6.867188 -8.207031 6.867188 -8.003906 6.890625 -7.796875 L 5.75 -7.828125 L 5.75 -2.65625 Z M 10.453125 -6.234375 L 10.453125 -8.640625 L 8.359375 -8.640625 L 8.359375 -6.234375 Z M 10.453125 -3.296875 L 10.453125 -5.734375 L 8.359375 -5.734375 L 8.359375 -3.296875 Z M 4.953125 -6.59375 L 4.953125 -7.828125 L 2.671875 -7.828125 L 2.671875 -6.609375 Z M 4.953125 -4.671875 L 4.953125 -6.03125 L 2.671875 -6.03125 L 2.671875 -4.671875 Z M 4.953125 -2.65625 L 4.953125 -4.109375 L 2.671875 -4.09375 L 2.671875 -2.65625 Z "/>
</symbol>
<symbol overflow="visible" id="glyph0-5">
<path style="stroke:none;" d="M 10.890625 -8.96875 C 10.722656 -6.257812 10.070312 -3.988281 8.9375 -2.15625 C 9.738281 -1.0625 10.710938 -0.144531 11.859375 0.59375 C 11.535156 0.695312 11.28125 0.894531 11.09375 1.1875 C 10.050781 0.5 9.164062 -0.375 8.4375 -1.4375 C 7.519531 -0.25 6.363281 0.664062 4.96875 1.3125 C 4.75 1.050781 4.484375 0.835938 4.171875 0.671875 C 5.703125 0.0351562 6.957031 -0.925781 7.9375 -2.21875 C 6.9375 -3.957031 6.335938 -5.972656 6.140625 -8.265625 C 5.929688 -8.265625 5.726562 -8.257812 5.53125 -8.25 C 5.550781 -8.5 5.550781 -8.75 5.53125 -9 C 5.988281 -8.976562 6.445312 -8.96875 6.90625 -8.96875 Z M 6.90625 -8.28125 C 7.101562 -6.175781 7.613281 -4.398438 8.4375 -2.953125 C 9.332031 -4.421875 9.875 -6.195312 10.0625 -8.28125 Z M 0.90625 -0.5 C 0.65625 -0.71875 0.332031 -0.847656 -0.0625 -0.890625 C 0.257812 -1.347656 0.617188 -1.898438 1.015625 -2.546875 C 1.410156 -3.203125 1.742188 -3.882812 2.015625 -4.59375 C 2.296875 -5.300781 2.539062 -6.007812 2.75 -6.71875 L 1.8125 -6.71875 C 1.34375 -6.71875 0.875 -6.707031 0.40625 -6.6875 C 0.4375 -6.9375 0.4375 -7.191406 0.40625 -7.453125 C 0.875 -7.421875 1.34375 -7.40625 1.8125 -7.40625 L 2.984375 -7.40625 L 2.984375 -8.140625 C 2.984375 -8.722656 2.96875 -9.300781 2.9375 -9.875 C 3.257812 -9.84375 3.578125 -9.84375 3.890625 -9.875 C 3.867188 -9.300781 3.859375 -8.722656 3.859375 -8.140625 L 3.859375 -7.40625 L 5.53125 -7.453125 C 5.507812 -7.191406 5.507812 -6.9375 5.53125 -6.6875 L 3.859375 -6.71875 L 3.859375 -5.21875 L 4.234375 -5.5 C 4.773438 -4.757812 5.273438 -3.976562 5.734375 -3.15625 L 4.890625 -2.703125 C 4.679688 -3.097656 4.457031 -3.484375 4.21875 -3.859375 L 3.859375 -4.390625 L 3.859375 -0.125 C 3.859375 0.445312 3.867188 1.03125 3.890625 1.625 C 3.578125 1.59375 3.257812 1.59375 2.9375 1.625 C 2.96875 1.03125 2.984375 0.445312 2.984375 -0.125 L 2.984375 -4.65625 C 2.335938 -3.007812 1.644531 -1.625 0.90625 -0.5 Z "/>
</symbol>
<symbol overflow="visible" id="glyph0-6">
<path style="stroke:none;" d="M 5.640625 -3.578125 L 1.921875 -3.578125 C 1.515625 -3.578125 1.101562 -3.570312 0.6875 -3.5625 C 0.71875 -3.78125 0.71875 -4 0.6875 -4.21875 C 1.101562 -4.195312 1.515625 -4.1875 1.921875 -4.1875 L 9.921875 -4.1875 C 10.335938 -4.1875 10.753906 -4.195312 11.171875 -4.21875 C 11.148438 -4 11.148438 -3.78125 11.171875 -3.5625 C 10.753906 -3.570312 10.335938 -3.578125 9.921875 -3.578125 L 6.46875 -3.578125 L 6.46875 -1.890625 L 8.8125 -1.890625 C 9.21875 -1.890625 9.625 -1.898438 10.03125 -1.921875 C 10.007812 -1.703125 10.007812 -1.476562 10.03125 -1.25 C 9.625 -1.269531 9.21875 -1.28125 8.8125 -1.28125 L 6.46875 -1.28125 L 6.46875 0.40625 C 6.664062 0.4375 6.882812 0.460938 7.125 0.484375 C 7.375 0.503906 7.582031 0.519531 7.75 0.53125 L 9.15625 0.578125 C 10.300781 0.640625 11.054688 0.671875 11.421875 0.671875 C 11.203125 0.921875 11.09375 1.210938 11.09375 1.546875 L 8.296875 1.421875 C 7.503906 1.390625 6.753906 1.316406 6.046875 1.203125 C 5.398438 1.085938 4.8125 0.894531 4.28125 0.625 C 3.800781 0.351562 3.394531 0.0078125 3.0625 -0.40625 C 2.550781 0.695312 1.785156 1.472656 0.765625 1.921875 C 0.679688 1.628906 0.53125 1.394531 0.3125 1.21875 C 1.34375 0.800781 2.03125 0.046875 2.375 -1.046875 C 2.59375 -1.679688 2.734375 -2.382812 2.796875 -3.15625 C 3.097656 -3.070312 3.398438 -3.015625 3.703125 -2.984375 C 3.660156 -2.421875 3.566406 -1.882812 3.421875 -1.375 C 3.835938 -0.5625 4.578125 -0.0195312 5.640625 0.25 Z M 3.515625 -4.78125 L 2.703125 -4.78125 L 2.703125 -9.671875 L 9.5625 -9.671875 L 9.5625 -4.78125 L 8.734375 -4.78125 L 8.734375 -5.390625 L 3.515625 -5.390625 Z M 8.734375 -7.828125 L 8.734375 -9.0625 L 3.515625 -9.0625 C 3.515625 -8.65625 3.515625 -8.242188 3.515625 -7.828125 Z M 8.734375 -7.21875 L 3.515625 -7.21875 L 3.515625 -6 L 8.734375 -6 Z "/>
</symbol>
<symbol overflow="visible" id="glyph0-7">
<path style="stroke:none;" d="M 8.8125 -0.078125 L 8.8125 -1.59375 L 4.328125 -1.59375 L 4.359375 -0.328125 C 4.367188 0.253906 4.390625 0.84375 4.421875 1.4375 C 4.109375 1.40625 3.789062 1.40625 3.46875 1.4375 C 3.5 0.851562 3.503906 0.269531 3.484375 -0.3125 L 3.421875 -4.546875 C 2.660156 -3.617188 1.8125 -2.835938 0.875 -2.203125 C 0.707031 -2.523438 0.46875 -2.769531 0.15625 -2.9375 C 1.507812 -3.820312 2.59375 -4.816406 3.40625 -5.921875 L 3.40625 -6.203125 L 3.59375 -6.203125 C 3.914062 -6.679688 4.160156 -7.144531 4.328125 -7.59375 L 2.046875 -7.59375 C 1.585938 -7.59375 1.128906 -7.578125 0.671875 -7.546875 C 0.691406 -7.804688 0.691406 -8.0625 0.671875 -8.3125 C 1.128906 -8.28125 1.585938 -8.265625 2.046875 -8.265625 L 4.59375 -8.265625 C 4.820312 -8.890625 4.988281 -9.40625 5.09375 -9.8125 C 5.414062 -9.6875 5.753906 -9.59375 6.109375 -9.53125 C 5.960938 -9.113281 5.800781 -8.691406 5.625 -8.265625 L 10.328125 -8.265625 C 10.785156 -8.265625 11.25 -8.28125 11.71875 -8.3125 C 11.6875 -8.0625 11.6875 -7.804688 11.71875 -7.546875 C 11.25 -7.578125 10.785156 -7.59375 10.328125 -7.59375 L 5.328125 -7.59375 C 5.097656 -7.101562 4.847656 -6.640625 4.578125 -6.203125 L 9.6875 -6.203125 L 9.6875 0.234375 C 9.6875 0.597656 9.566406 0.890625 9.328125 1.109375 C 9.003906 1.410156 8.398438 1.554688 7.515625 1.546875 C 7.609375 1.148438 7.519531 0.800781 7.25 0.5 C 7.488281 0.53125 7.773438 0.546875 8.109375 0.546875 C 8.441406 0.554688 8.640625 0.53125 8.703125 0.46875 C 8.773438 0.40625 8.8125 0.222656 8.8125 -0.078125 Z M 8.8125 -4.171875 L 8.8125 -5.515625 L 4.265625 -5.515625 L 4.296875 -4.171875 Z M 8.8125 -2.265625 L 8.8125 -3.5 L 4.3125 -3.5 L 4.3125 -2.265625 Z "/>
</symbol>
<symbol overflow="visible" id="glyph0-8">
<path style="stroke:none;" d="M 1.75 1.390625 C 1.4375 1.347656 1.117188 1.347656 0.796875 1.390625 C 0.816406 0.785156 0.828125 0.191406 0.828125 -0.390625 L 0.828125 -5.25 L 3.6875 -5.25 L 3.6875 -9.75 L 8.3125 -9.75 L 8.3125 -5.28125 L 11.078125 -5.28125 L 11.078125 -0.3125 C 11.078125 0.28125 11.097656 0.875 11.140625 1.46875 C 10.804688 1.4375 10.484375 1.4375 10.171875 1.46875 C 10.179688 1.125 10.191406 0.78125 10.203125 0.4375 L 1.71875 0.4375 C 1.726562 0.75 1.738281 1.066406 1.75 1.390625 Z M 3.65625 -4.53125 L 1.71875 -4.53125 L 1.71875 -0.28125 L 10.21875 -0.28125 L 10.21875 -4.5625 L 7.421875 -4.5625 L 7.421875 -9.015625 L 4.5625 -9.015625 L 4.5625 -6.140625 C 4.570312 -5.554688 4.59375 -4.96875 4.625 -4.375 C 4.300781 -4.40625 3.976562 -4.40625 3.65625 -4.375 C 3.65625 -4.425781 3.65625 -4.476562 3.65625 -4.53125 Z "/>
</symbol>
<symbol overflow="visible" id="glyph0-9">
<path style="stroke:none;" d="M 11.796875 0.265625 C 11.765625 0.492188 11.765625 0.722656 11.796875 0.953125 C 11.367188 0.929688 10.9375 0.921875 10.5 0.921875 L 5.53125 0.921875 C 5.101562 0.921875 4.675781 0.929688 4.25 0.953125 C 4.269531 0.722656 4.269531 0.492188 4.25 0.265625 C 4.675781 0.273438 5.101562 0.28125 5.53125 0.28125 L 7.46875 0.28125 L 7.46875 -2.796875 L 6.359375 -2.796875 C 5.941406 -2.796875 5.519531 -2.785156 5.09375 -2.765625 C 5.113281 -2.992188 5.113281 -3.222656 5.09375 -3.453125 C 5.519531 -3.441406 5.941406 -3.4375 6.359375 -3.4375 L 7.46875 -3.4375 L 7.46875 -6.28125 L 5.578125 -6.28125 C 5.140625 -5.039062 4.707031 -4.023438 4.28125 -3.234375 C 4 -3.429688 3.679688 -3.53125 3.328125 -3.53125 C 3.972656 -4.707031 4.441406 -5.664062 4.734375 -6.40625 C 5.023438 -7.15625 5.28125 -8.019531 5.5 -9 C 5.800781 -8.875 6.125 -8.78125 6.46875 -8.71875 L 5.796875 -6.90625 L 7.46875 -6.90625 L 7.46875 -8.203125 C 7.46875 -8.765625 7.453125 -9.332031 7.421875 -9.90625 C 7.722656 -9.875 8.03125 -9.875 8.34375 -9.90625 C 8.320312 -9.332031 8.3125 -8.765625 8.3125 -8.203125 L 8.3125 -6.90625 L 10.09375 -6.90625 C 10.519531 -6.90625 10.945312 -6.914062 11.375 -6.9375 C 11.351562 -6.707031 11.351562 -6.472656 11.375 -6.234375 C 10.945312 -6.265625 10.519531 -6.28125 10.09375 -6.28125 L 8.3125 -6.28125 L 8.3125 -3.4375 L 9.734375 -3.4375 C 10.160156 -3.4375 10.585938 -3.441406 11.015625 -3.453125 C 10.992188 -3.222656 10.992188 -2.992188 11.015625 -2.765625 C 10.585938 -2.785156 10.160156 -2.796875 9.734375 -2.796875 L 8.3125 -2.796875 L 8.3125 0.28125 L 10.5 0.28125 C 10.9375 0.28125 11.367188 0.273438 11.796875 0.265625 Z M 2.421875 -0.03125 C 2.421875 0.519531 2.4375 1.070312 2.46875 1.625 C 2.1875 1.59375 1.898438 1.59375 1.609375 1.625 C 1.640625 1.070312 1.65625 0.519531 1.65625 -0.03125 L 1.65625 -8.25 C 1.65625 -8.789062 1.640625 -9.332031 1.609375 -9.875 C 1.898438 -9.84375 2.1875 -9.84375 2.46875 -9.875 C 2.4375 -9.332031 2.421875 -8.789062 2.421875 -8.25 L 2.421875 -7.25 L 2.75 -7.5 L 4.046875 -5.703125 L 3.375 -5.171875 L 2.421875 -6.4375 Z M -0.3125 -4.546875 C 0.0195312 -5.335938 0.304688 -6.175781 0.546875 -7.0625 L 1.359375 -6.828125 C 1.117188 -5.910156 0.832031 -5.035156 0.5 -4.203125 Z "/>
</symbol>
<symbol overflow="visible" id="glyph0-10">
<path style="stroke:none;" d="M 8.25 -2.078125 C 7.71875 -2.929688 7.144531 -3.75 6.53125 -4.53125 L 7.25 -5.109375 C 7.894531 -4.285156 8.488281 -3.429688 9.03125 -2.546875 Z M 10.328125 -6.921875 L 7.640625 -6.921875 C 7.128906 -5.628906 6.507812 -4.546875 5.78125 -3.671875 C 5.613281 -3.847656 5.425781 -3.976562 5.21875 -4.0625 L 5.21875 1.4375 L 4.375 1.4375 L 4.375 0.59375 L 1.6875 0.59375 C 1.695312 0.882812 1.710938 1.175781 1.734375 1.46875 C 1.421875 1.4375 1.113281 1.4375 0.8125 1.46875 C 0.832031 0.90625 0.84375 0.335938 0.84375 -0.234375 L 0.84375 -7.28125 C 1.28125 -7.28125 1.71875 -7.28125 2.15625 -7.28125 C 2.46875 -7.832031 2.769531 -8.648438 3.0625 -9.734375 C 3.34375 -9.640625 3.640625 -9.578125 3.953125 -9.546875 C 3.828125 -8.847656 3.546875 -8.09375 3.109375 -7.28125 L 5.21875 -7.28125 L 5.21875 -4.515625 C 6.039062 -5.515625 6.597656 -6.453125 6.890625 -7.328125 C 7.128906 -8.097656 7.316406 -8.90625 7.453125 -9.75 C 7.785156 -9.664062 8.117188 -9.613281 8.453125 -9.59375 C 8.285156 -8.882812 8.085938 -8.203125 7.859375 -7.546875 L 11.171875 -7.546875 L 11.171875 0.203125 C 11.171875 0.597656 11.039062 0.925781 10.78125 1.1875 C 10.488281 1.445312 9.894531 1.570312 9 1.5625 C 9.082031 1.175781 8.984375 0.832031 8.703125 0.53125 C 8.960938 0.5625 9.253906 0.578125 9.578125 0.578125 C 9.910156 0.585938 10.117188 0.5625 10.203125 0.5 C 10.285156 0.382812 10.328125 0.160156 10.328125 -0.171875 Z M 4.375 -3.65625 L 4.375 -6.640625 L 1.6875 -6.640625 L 1.6875 -3.65625 Z M 4.375 -3.015625 L 1.6875 -3.015625 L 1.6875 -0.03125 L 4.375 -0.03125 Z "/>
</symbol>
<symbol overflow="visible" id="glyph0-11">
<path style="stroke:none;" d="M 8.921875 -6.140625 C 8.921875 -5.234375 8.394531 -4.503906 7.34375 -3.953125 C 6.90625 -3.722656 6.640625 -3.550781 6.546875 -3.4375 C 6.390625 -3.25 6.320312 -2.878906 6.34375 -2.328125 L 6.34375 -2.078125 L 5.484375 -2.078125 L 5.484375 -2.59375 C 5.484375 -3.195312 5.550781 -3.617188 5.6875 -3.859375 C 5.8125 -4.035156 6 -4.207031 6.25 -4.375 C 6.8125 -4.6875 7.148438 -4.890625 7.265625 -4.984375 C 7.628906 -5.296875 7.8125 -5.679688 7.8125 -6.140625 C 7.8125 -6.773438 7.523438 -7.21875 6.953125 -7.46875 C 6.703125 -7.582031 6.421875 -7.640625 6.109375 -7.640625 C 5.296875 -7.640625 4.734375 -7.265625 4.421875 -6.515625 L 4.265625 -6.046875 C 4.242188 -5.984375 4.226562 -5.910156 4.21875 -5.828125 L 3.296875 -6.03125 C 3.472656 -7.175781 4.03125 -7.929688 4.96875 -8.296875 C 5.332031 -8.429688 5.738281 -8.5 6.1875 -8.5 C 7.070312 -8.5 7.78125 -8.234375 8.3125 -7.703125 L 8.5625 -7.390625 C 8.789062 -7.035156 8.910156 -6.617188 8.921875 -6.140625 Z M 6.578125 0 L 5.328125 0 L 5.328125 -1.1875 L 6.578125 -1.1875 Z "/>
</symbol>
</g>
</defs>
<g id="surface1">
<g style="fill:rgb(100%,100%,100%);fill-opacity:1;">
  <use xlink:href="#glyph0-1" x="30" y="31.769531"/>
  <use xlink:href="#glyph0-2" x="42" y="31.769531"/>
  <use xlink:href="#glyph0-3" x="54" y="31.769531"/>
  <use xlink:href="#glyph0-4" x="66" y="31.769531"/>
  <use xlink:href="#glyph0-5" x="78" y="31.769531"/>
  <use xlink:href="#glyph0-6" x="90" y="31.769531"/>
  <use xlink:href="#glyph0-7" x="102" y="31.769531"/>
  <use xlink:href="#glyph0-8" x="114" y="31.769531"/>
  <use xlink:href="#glyph0-9" x="126" y="31.769531"/>
  <use xlink:href="#glyph0-10" x="138" y="31.769531"/>
  <use xlink:href="#glyph0-11" x="150" y="31.769531"/>
</g>
</g>
</svg>
