<?xml version="1.0" encoding="UTF-8"?>
<svg xmlns="http://www.w3.org/2000/svg" xmlns:xlink="http://www.w3.org/1999/xlink" width="1280pt" height="720pt" viewBox="0 0 1280 720" version="1.1">
<defs>
<g>
<symbol overflow="visible" id="glyph0-0">
<path style="stroke:none;" d="M 0.296875 0 L 0.296875 -6.109375 L 2.734375 -6.109375 L 2.734375 0 Z M 0.609375 -0.296875 L 2.4375 -0.296875 L 2.4375 -5.796875 L 0.609375 -5.796875 Z "/>
</symbol>
<symbol overflow="visible" id="glyph0-1">
<path style="stroke:none;" d="M 5.546875 -5.78125 L 5.546875 -6.265625 C 5.546875 -6.679688 5.539062 -7.101562 5.53125 -7.53125 C 5.757812 -7.507812 5.988281 -7.507812 6.21875 -7.53125 C 6.195312 -7.101562 6.1875 -6.679688 6.1875 -6.265625 L 6.1875 -5.78125 L 8.484375 -5.78125 L 8.578125 -5.21875 C 8.503906 -5.238281 8.445312 -5.226562 8.40625 -5.1875 L 7.875 -4.296875 L 7.34375 -4.609375 L 7.75 -5.296875 L 6.1875 -5.296875 L 6.1875 -3.5625 L 7.75 -3.5625 C 7.625 -2.414062 7.175781 -1.414062 6.40625 -0.5625 C 6.644531 -0.34375 6.960938 -0.128906 7.359375 0.078125 C 7.753906 0.285156 8.21875 0.410156 8.75 0.453125 C 8.570312 0.628906 8.472656 0.84375 8.453125 1.09375 C 7.492188 0.96875 6.675781 0.554688 6 -0.140625 C 5.28125 0.515625 4.425781 0.941406 3.4375 1.140625 C 3.320312 0.898438 3.175781 0.691406 3 0.515625 C 3.5625 0.460938 4.0625 0.320312 4.5 0.09375 C 4.9375 -0.125 5.300781 -0.363281 5.59375 -0.625 C 5.0625 -1.332031 4.695312 -2.148438 4.5 -3.078125 L 3.921875 -3.078125 C 3.890625 -2.046875 3.722656 -1.15625 3.421875 -0.40625 C 3.210938 0.09375 2.941406 0.550781 2.609375 0.96875 C 2.410156 0.789062 2.179688 0.71875 1.921875 0.75 C 2.316406 0.34375 2.625 -0.125 2.84375 -0.65625 C 3.15625 -1.40625 3.3125 -2.367188 3.3125 -3.546875 L 3.3125 -5.78125 Z M 5.078125 -3.078125 C 5.265625 -2.296875 5.566406 -1.613281 5.984375 -1.03125 C 6.503906 -1.625 6.847656 -2.304688 7.015625 -3.078125 Z M 5.546875 -3.5625 L 5.546875 -5.296875 L 3.9375 -5.296875 L 3.9375 -3.5625 Z M 1.234375 1.0625 C 1.003906 0.914062 0.722656 0.835938 0.390625 0.828125 C 0.628906 0.335938 0.875 -0.210938 1.125 -0.828125 C 1.382812 -1.453125 1.757812 -2.53125 2.25 -4.0625 L 2.59375 -3.875 L 1.640625 -0.484375 Z M 1.890625 -4.09375 L 1.359375 -3.65625 L 0.140625 -4.875 L 0.65625 -5.328125 Z M 2.046875 -5.609375 C 1.660156 -6.054688 1.242188 -6.476562 0.796875 -6.875 L 1.296875 -7.34375 C 1.765625 -6.925781 2.203125 -6.476562 2.609375 -6 Z "/>
</symbol>
<symbol overflow="visible" id="glyph0-2">
<path style="stroke:none;" d="M 4.65625 -4.484375 C 4.632812 -4.296875 4.632812 -4.109375 4.65625 -3.921875 C 4.300781 -3.941406 3.953125 -3.953125 3.609375 -3.953125 L 2.171875 -3.953125 C 2.367188 -3.828125 2.578125 -3.726562 2.796875 -3.65625 C 2.703125 -3.488281 2.25 -2.726562 1.4375 -1.375 L 3.21875 -1.5625 L 3.546875 -1.625 C 3.347656 -2.019531 3.140625 -2.398438 2.921875 -2.765625 L 3.53125 -3.140625 C 3.925781 -2.484375 4.28125 -1.804688 4.59375 -1.109375 L 3.9375 -0.8125 L 3.765625 -1.1875 L 3.765625 -1.125 L 3.265625 -1.109375 L 0.578125 -0.75 L 0.515625 -1.265625 C 0.640625 -1.273438 0.734375 -1.332031 0.796875 -1.4375 C 0.941406 -1.644531 1.164062 -2.035156 1.46875 -2.609375 C 1.78125 -3.179688 1.988281 -3.628906 2.09375 -3.953125 L 1.125 -3.953125 C 0.769531 -3.953125 0.421875 -3.941406 0.078125 -3.921875 C 0.0976562 -4.109375 0.0976562 -4.296875 0.078125 -4.484375 C 0.421875 -4.460938 0.769531 -4.453125 1.125 -4.453125 L 3.609375 -4.453125 C 3.953125 -4.453125 4.300781 -4.460938 4.65625 -4.484375 Z M 4.328125 -6.5 C 4.304688 -6.300781 4.304688 -6.109375 4.328125 -5.921875 C 3.984375 -5.941406 3.632812 -5.953125 3.28125 -5.953125 L 1.859375 -5.953125 C 1.515625 -5.953125 1.164062 -5.941406 0.8125 -5.921875 C 0.832031 -6.109375 0.832031 -6.300781 0.8125 -6.5 C 1.164062 -6.476562 1.515625 -6.46875 1.859375 -6.46875 L 3.28125 -6.46875 C 3.632812 -6.46875 3.984375 -6.476562 4.328125 -6.5 Z M 6.6875 1 C 6.738281 0.664062 6.664062 0.40625 6.46875 0.21875 C 6.664062 0.238281 6.894531 0.25 7.15625 0.25 C 7.425781 0.257812 7.59375 0.242188 7.65625 0.203125 C 7.71875 0.128906 7.75 -0.0195312 7.75 -0.25 L 7.75 -4.59375 C 7.25 -4.59375 6.820312 -4.59375 6.46875 -4.59375 L 6.46875 -3.34375 C 6.46875 -2.125 6.097656 -1.0625 5.359375 -0.15625 C 4.859375 0.457031 4.238281 0.921875 3.5 1.234375 C 3.382812 0.992188 3.179688 0.828125 2.890625 0.734375 C 3.671875 0.492188 4.320312 0.0625 4.84375 -0.5625 C 5.476562 -1.332031 5.796875 -2.257812 5.796875 -3.34375 L 5.796875 -4.59375 C 5.191406 -4.582031 4.765625 -4.570312 4.515625 -4.5625 C 4.535156 -4.75 4.535156 -4.929688 4.515625 -5.109375 L 5.796875 -5.078125 L 5.796875 -6.015625 C 5.796875 -6.441406 5.785156 -6.875 5.765625 -7.3125 C 6.003906 -7.28125 6.25 -7.28125 6.5 -7.3125 C 6.476562 -6.875 6.46875 -6.441406 6.46875 -6.015625 L 6.46875 -5.078125 L 8.421875 -5.078125 L 8.421875 0.015625 C 8.398438 0.441406 8.191406 0.726562 7.796875 0.875 C 7.441406 0.976562 7.070312 1.019531 6.6875 1 Z "/>
</symbol>
<symbol overflow="visible" id="glyph0-3">
<path style="stroke:none;" d="M 4.8125 1.09375 C 4.59375 1.070312 4.367188 1.070312 4.140625 1.09375 C 4.160156 0.675781 4.171875 0.265625 4.171875 -0.140625 L 4.171875 -0.984375 L 1.03125 -0.984375 C 0.738281 -0.984375 0.453125 -0.976562 0.171875 -0.96875 C 0.179688 -1.125 0.179688 -1.28125 0.171875 -1.4375 C 0.453125 -1.425781 0.738281 -1.421875 1.03125 -1.421875 L 4.171875 -1.421875 C 4.171875 -1.710938 4.160156 -2.003906 4.140625 -2.296875 C 4.367188 -2.265625 4.59375 -2.265625 4.8125 -2.296875 C 4.800781 -2.003906 4.789062 -1.710938 4.78125 -1.421875 L 7.921875 -1.421875 C 8.210938 -1.421875 8.5 -1.425781 8.78125 -1.4375 C 8.769531 -1.28125 8.769531 -1.125 8.78125 -0.96875 C 8.5 -0.976562 8.210938 -0.984375 7.921875 -0.984375 L 4.78125 -0.984375 L 4.78125 -0.140625 C 4.78125 0.265625 4.789062 0.675781 4.8125 1.09375 Z M 7.921875 -2.15625 C 7.410156 -2.65625 6.875 -3.128906 6.3125 -3.578125 L 6.703125 -4.109375 C 7.296875 -3.648438 7.859375 -3.160156 8.390625 -2.640625 Z M 7.515625 -5.890625 C 7.671875 -5.722656 7.84375 -5.578125 8.03125 -5.453125 C 7.625 -4.960938 7.097656 -4.503906 6.453125 -4.078125 C 6.367188 -4.273438 6.226562 -4.421875 6.03125 -4.515625 C 6.382812 -4.734375 6.734375 -5.03125 7.078125 -5.40625 Z M 0.390625 -2.71875 C 0.992188 -2.9375 1.523438 -3.195312 1.984375 -3.5 L 2.609375 -3.921875 L 2.734375 -3.5625 C 1.898438 -2.96875 1.265625 -2.476562 0.828125 -2.09375 C 0.742188 -2.34375 0.597656 -2.550781 0.390625 -2.71875 Z M 2.0625 -4.171875 C 1.644531 -4.578125 1.203125 -4.953125 0.734375 -5.296875 L 1.125 -5.828125 C 1.625 -5.472656 2.09375 -5.082031 2.53125 -4.65625 Z M 1.5 -6.203125 C 1.207031 -6.203125 0.914062 -6.195312 0.625 -6.1875 C 0.644531 -6.332031 0.644531 -6.484375 0.625 -6.640625 C 0.914062 -6.628906 1.207031 -6.625 1.5 -6.625 L 4.3125 -6.625 L 3.5625 -7.265625 L 3.984375 -7.78125 L 5.03125 -6.890625 L 4.796875 -6.625 L 7.46875 -6.625 C 7.75 -6.625 8.035156 -6.628906 8.328125 -6.640625 C 8.304688 -6.484375 8.304688 -6.332031 8.328125 -6.1875 C 8.035156 -6.195312 7.75 -6.203125 7.46875 -6.203125 L 4.546875 -6.203125 C 4.660156 -6.128906 4.773438 -6.066406 4.890625 -6.015625 C 4.828125 -5.898438 4.679688 -5.722656 4.453125 -5.484375 C 4.222656 -5.242188 4.019531 -5.039062 3.84375 -4.875 C 3.664062 -4.71875 3.5625 -4.628906 3.53125 -4.609375 L 4.484375 -4.59375 C 4.878906 -5.03125 5.160156 -5.375 5.328125 -5.625 C 5.503906 -5.445312 5.691406 -5.289062 5.890625 -5.15625 C 5.734375 -4.96875 5.382812 -4.601562 4.84375 -4.0625 L 3.65625 -2.9375 L 5.4375 -3.25 C 5.332031 -3.425781 5.226562 -3.601562 5.125 -3.78125 L 5.6875 -4.125 C 6.03125 -3.570312 6.335938 -2.992188 6.609375 -2.390625 L 6 -2.125 C 5.882812 -2.375 5.765625 -2.625 5.640625 -2.875 L 5.40625 -2.84375 L 2.609375 -2.296875 L 2.53125 -2.71875 C 2.644531 -2.75 2.742188 -2.800781 2.828125 -2.875 C 3.128906 -3.15625 3.5625 -3.59375 4.125 -4.1875 L 2.515625 -4.171875 L 2.515625 -4.609375 C 2.609375 -4.609375 2.71875 -4.644531 2.84375 -4.71875 C 2.96875 -4.800781 3.1875 -5.003906 3.5 -5.328125 C 3.8125 -5.660156 4.035156 -5.953125 4.171875 -6.203125 Z "/>
</symbol>
<symbol overflow="visible" id="glyph0-4">
<path style="stroke:none;" d="M 3.140625 -2.796875 L 4.125 -3.09375 C 4.125 -3.46875 4.113281 -3.835938 4.09375 -4.203125 C 4.320312 -4.179688 4.550781 -4.179688 4.78125 -4.203125 C 4.769531 -3.910156 4.757812 -3.613281 4.75 -3.3125 L 5.796875 -3.65625 L 5.796875 -3.8125 C 5.796875 -4.238281 5.785156 -4.664062 5.765625 -5.09375 C 5.992188 -5.0625 6.226562 -5.0625 6.46875 -5.09375 C 6.4375 -4.6875 6.421875 -4.28125 6.421875 -3.875 L 8.171875 -4.46875 L 8.171875 -1.71875 C 8.171875 -1.53125 8.101562 -1.375 7.96875 -1.25 C 7.71875 -1 7.359375 -0.875 6.890625 -0.875 C 6.941406 -1.175781 6.878906 -1.445312 6.703125 -1.6875 C 6.984375 -1.601562 7.242188 -1.582031 7.484375 -1.625 C 7.523438 -1.644531 7.546875 -1.71875 7.546875 -1.84375 L 7.546875 -3.75 L 6.421875 -3.375 L 6.421875 -1.84375 C 6.421875 -1.414062 6.4375 -0.988281 6.46875 -0.5625 C 6.226562 -0.582031 5.992188 -0.582031 5.765625 -0.5625 C 5.785156 -0.988281 5.796875 -1.414062 5.796875 -1.84375 L 5.796875 -3.15625 L 4.75 -2.8125 L 4.75 0.015625 C 4.75 0.117188 4.773438 0.210938 4.828125 0.296875 C 4.890625 0.378906 4.96875 0.421875 5.0625 0.421875 L 7.875 0.40625 C 7.976562 0.40625 8.0625 0.363281 8.125 0.28125 C 8.195312 0.195312 8.242188 0.0859375 8.265625 -0.046875 L 8.4375 -1.125 C 8.625 -1 8.828125 -0.9375 9.046875 -0.9375 L 8.796875 0.421875 C 8.765625 0.578125 8.710938 0.707031 8.640625 0.8125 C 8.566406 0.914062 8.46875 0.96875 8.34375 0.96875 L 5.046875 0.96875 C 4.765625 0.96875 4.539062 0.878906 4.375 0.703125 C 4.207031 0.535156 4.125 0.304688 4.125 0.015625 L 4.125 -2.59375 C 3.84375 -2.507812 3.566406 -2.410156 3.296875 -2.296875 C 3.265625 -2.460938 3.210938 -2.628906 3.140625 -2.796875 Z M 8.59375 -5.9375 C 8.570312 -5.757812 8.570312 -5.585938 8.59375 -5.421875 C 8.269531 -5.441406 7.945312 -5.453125 7.625 -5.453125 L 4.625 -5.453125 C 4.519531 -5.253906 4.398438 -5.035156 4.265625 -4.796875 L 3.828125 -4.109375 C 3.660156 -4.253906 3.46875 -4.335938 3.25 -4.359375 C 3.53125 -4.785156 3.773438 -5.21875 3.984375 -5.65625 C 4.203125 -6.101562 4.441406 -6.675781 4.703125 -7.375 C 4.910156 -7.28125 5.128906 -7.207031 5.359375 -7.15625 C 5.222656 -6.726562 5.0625 -6.316406 4.875 -5.921875 L 7.625 -5.921875 C 7.945312 -5.921875 8.269531 -5.925781 8.59375 -5.9375 Z M -0.015625 -2.984375 C 0.535156 -3.097656 1.066406 -3.253906 1.578125 -3.453125 L 1.578125 -5.109375 L 1.03125 -5.109375 C 0.707031 -5.109375 0.390625 -5.101562 0.078125 -5.09375 C 0.0976562 -5.289062 0.0976562 -5.484375 0.078125 -5.671875 C 0.390625 -5.660156 0.707031 -5.65625 1.03125 -5.65625 L 1.578125 -5.65625 L 1.578125 -6.078125 C 1.578125 -6.523438 1.566406 -6.972656 1.546875 -7.421875 C 1.753906 -7.390625 1.960938 -7.390625 2.171875 -7.421875 C 2.148438 -6.972656 2.140625 -6.523438 2.140625 -6.078125 L 2.140625 -5.65625 L 2.5 -5.65625 C 2.820312 -5.65625 3.140625 -5.660156 3.453125 -5.671875 C 3.429688 -5.484375 3.429688 -5.289062 3.453125 -5.09375 C 3.140625 -5.101562 2.820312 -5.109375 2.5 -5.109375 L 2.140625 -5.109375 L 2.140625 -3.6875 C 2.515625 -3.84375 2.941406 -4.035156 3.421875 -4.265625 L 3.46875 -3.78125 L 2.140625 -3.1875 L 2.140625 0.140625 C 2.140625 0.710938 1.941406 1.0625 1.546875 1.1875 C 1.273438 1.257812 1.003906 1.289062 0.734375 1.28125 C 0.773438 0.945312 0.710938 0.679688 0.546875 0.484375 C 0.703125 0.503906 0.878906 0.515625 1.078125 0.515625 C 1.285156 0.523438 1.421875 0.5 1.484375 0.4375 C 1.546875 0.382812 1.578125 0.203125 1.578125 -0.109375 L 1.578125 -2.90625 L 1.25 -2.765625 C 0.914062 -2.585938 0.582031 -2.40625 0.25 -2.21875 C 0.21875 -2.53125 0.128906 -2.785156 -0.015625 -2.984375 Z "/>
</symbol>
<symbol overflow="visible" id="glyph0-5">
<path style="stroke:none;" d="M 8.546875 0.96875 C 7.972656 0.394531 7.375 -0.144531 6.75 -0.65625 L 7.171875 -1.171875 C 7.816406 -0.648438 8.429688 -0.09375 9.015625 0.5 Z M 2.78125 -1.0625 C 2.925781 -0.882812 3.085938 -0.726562 3.265625 -0.59375 C 2.585938 0.144531 1.675781 0.679688 0.53125 1.015625 C 0.507812 0.796875 0.425781 0.609375 0.28125 0.453125 C 0.78125 0.328125 1.21875 0.144531 1.59375 -0.09375 C 1.976562 -0.332031 2.375 -0.65625 2.78125 -1.0625 Z M 4.65625 0.234375 L 4.65625 -1.515625 L 1.25 -1.265625 L 1.21875 -1.6875 C 1.769531 -1.832031 2.78125 -2.21875 4.25 -2.84375 L 1.609375 -2.765625 L 1.59375 -3.203125 C 1.820312 -3.234375 2.179688 -3.359375 2.671875 -3.578125 C 3.160156 -3.804688 3.609375 -4.039062 4.015625 -4.28125 L 1.5625 -4.28125 C 1.632812 -5.25 1.632812 -6.21875 1.5625 -7.1875 L 7.890625 -7.1875 C 7.816406 -6.21875 7.8125 -5.25 7.875 -4.28125 L 4.921875 -4.28125 C 4.960938 -4.226562 5.003906 -4.175781 5.046875 -4.125 C 4.410156 -3.757812 3.816406 -3.460938 3.265625 -3.234375 L 4.859375 -3.25 L 5.234375 -3.28125 C 5.890625 -3.582031 6.363281 -3.828125 6.65625 -4.015625 C 6.75 -3.785156 6.863281 -3.566406 7 -3.359375 C 6.769531 -3.242188 6.335938 -3.054688 5.703125 -2.796875 L 3.25 -1.84375 L 6.375 -2.046875 L 6.890625 -2.109375 L 6.703125 -2.28125 L 7.140625 -2.78125 C 7.617188 -2.363281 8.039062 -1.894531 8.40625 -1.375 L 7.859375 -1 C 7.679688 -1.238281 7.488281 -1.472656 7.28125 -1.703125 L 6.390625 -1.671875 L 5.25 -1.578125 L 5.25 0.359375 C 5.25 0.546875 5.164062 0.707031 5 0.84375 C 4.75 1.0625 4.3125 1.171875 3.6875 1.171875 C 3.75 0.878906 3.679688 0.628906 3.484375 0.421875 C 3.660156 0.441406 3.882812 0.453125 4.15625 0.453125 C 4.425781 0.460938 4.578125 0.453125 4.609375 0.421875 C 4.640625 0.390625 4.65625 0.328125 4.65625 0.234375 Z M 5.03125 -5.921875 L 7.28125 -5.921875 L 7.28125 -6.765625 L 5.03125 -6.765625 Z M 4.421875 -5.921875 L 4.421875 -6.765625 L 2.171875 -6.765625 L 2.171875 -5.921875 Z M 5.03125 -5.53125 L 5.03125 -4.71875 L 7.28125 -4.71875 L 7.28125 -5.53125 Z M 4.421875 -5.53125 L 2.171875 -5.53125 L 2.171875 -4.71875 L 4.421875 -4.71875 Z "/>
</symbol>
<symbol overflow="visible" id="glyph1-0">
<path style="stroke:none;" d="M 0.453125 1.625 L 0.453125 -6.46875 L 5.046875 -6.46875 L 5.046875 1.625 Z M 0.96875 1.109375 L 4.53125 1.109375 L 4.53125 -5.953125 L 0.96875 -5.953125 Z "/>
</symbol>
<symbol overflow="visible" id="glyph1-1">
<path style="stroke:none;" d=""/>
</symbol>
<symbol overflow="visible" id="glyph1-2">
<path style="stroke:none;" d="M 0.96875 -4.140625 L 6.71875 -4.140625 L 6.71875 -3.4375 L 0.96875 -3.4375 Z M 0.96875 -2.3125 L 6.71875 -2.3125 L 6.71875 -1.609375 L 0.96875 -1.609375 Z "/>
</symbol>
<symbol overflow="visible" id="glyph1-3">
<path style="stroke:none;" d="M 2.765625 -0.3125 C 3.203125 -0.3125 3.53125 -0.484375 3.75 -0.828125 C 3.976562 -1.179688 4.09375 -1.695312 4.09375 -2.375 C 4.09375 -3 3.984375 -3.5 3.765625 -3.875 C 3.566406 -4.195312 3.234375 -4.359375 2.765625 -4.359375 C 2.304688 -4.359375 1.96875 -4.195312 1.75 -3.875 C 1.53125 -3.53125 1.421875 -3.03125 1.421875 -2.375 C 1.421875 -1.695312 1.53125 -1.179688 1.75 -0.828125 C 1.976562 -0.484375 2.316406 -0.3125 2.765625 -0.3125 Z M 2.765625 -4.765625 C 3.984375 -4.765625 5.054688 -4.765625 5.984375 -4.765625 L 5.984375 -4.28125 L 4.359375 -4.28125 C 4.828125 -3.820312 5.0625 -3.1875 5.0625 -2.375 C 5.0625 -1.625 4.847656 -1.019531 4.421875 -0.5625 C 4.003906 -0.101562 3.453125 0.125 2.765625 0.125 C 2.066406 0.125 1.503906 -0.101562 1.078125 -0.5625 C 0.660156 -1.019531 0.453125 -1.625 0.453125 -2.375 C 0.453125 -3.132812 0.660156 -3.742188 1.078125 -4.203125 C 1.421875 -4.578125 1.984375 -4.765625 2.765625 -4.765625 Z "/>
</symbol>
<symbol overflow="visible" id="glyph1-4">
<path style="stroke:none;" d="M 0.765625 -5.796875 L 0.453125 -5.796875 L 0.453125 -6.515625 C 0.648438 -6.609375 0.851562 -6.679688 1.0625 -6.734375 C 1.269531 -6.785156 1.472656 -6.8125 1.671875 -6.8125 C 2.085938 -6.8125 2.421875 -6.710938 2.671875 -6.515625 C 2.929688 -6.316406 3.0625 -6.0625 3.0625 -5.75 C 3.0625 -5.382812 2.769531 -4.941406 2.1875 -4.421875 L 2.109375 -4.34375 L 1.046875 -3.390625 L 2.765625 -3.390625 L 2.765625 -3.875 L 3.09375 -3.875 L 3.09375 -2.984375 L 0.40625 -2.984375 L 0.40625 -3.328125 L 1.671875 -4.46875 C 1.929688 -4.695312 2.113281 -4.898438 2.21875 -5.078125 C 2.332031 -5.265625 2.390625 -5.457031 2.390625 -5.65625 C 2.390625 -5.90625 2.316406 -6.101562 2.171875 -6.25 C 2.035156 -6.394531 1.835938 -6.46875 1.578125 -6.46875 C 1.347656 -6.46875 1.160156 -6.410156 1.015625 -6.296875 C 0.878906 -6.191406 0.796875 -6.023438 0.765625 -5.796875 Z "/>
</symbol>
<symbol overflow="visible" id="glyph1-5">
<path style="stroke:none;" d="M 2.375 -6.6875 L 3.09375 -6.6875 L 0.71875 0.84375 L 0 0.84375 Z "/>
</symbol>
<symbol overflow="visible" id="glyph1-6">
<path style="stroke:none;" d="M 1.171875 -5.09375 L 0.671875 -5.09375 L 0.671875 -6.28125 C 0.992188 -6.445312 1.316406 -6.578125 1.640625 -6.671875 C 1.960938 -6.765625 2.28125 -6.8125 2.59375 -6.8125 C 3.28125 -6.8125 3.828125 -6.640625 4.234375 -6.296875 C 4.640625 -5.960938 4.84375 -5.503906 4.84375 -4.921875 C 4.84375 -4.273438 4.382812 -3.492188 3.46875 -2.578125 C 3.394531 -2.515625 3.34375 -2.460938 3.3125 -2.421875 L 1.625 -0.734375 L 4.40625 -0.734375 L 4.40625 -1.5625 L 4.9375 -1.5625 L 4.9375 0 L 0.625 0 L 0.625 -0.484375 L 2.65625 -2.515625 C 3.101562 -2.960938 3.421875 -3.375 3.609375 -3.75 C 3.796875 -4.125 3.890625 -4.515625 3.890625 -4.921875 C 3.890625 -5.378906 3.769531 -5.734375 3.53125 -5.984375 C 3.300781 -6.234375 2.984375 -6.359375 2.578125 -6.359375 C 2.148438 -6.359375 1.816406 -6.253906 1.578125 -6.046875 C 1.347656 -5.835938 1.210938 -5.519531 1.171875 -5.09375 Z "/>
</symbol>
</g>
</defs>
<g id="surface1">
<g style="fill:rgb(100%,100%,100%);fill-opacity:1;">
  <use xlink:href="#glyph0-1" x="30" y="28.827148"/>
  <use xlink:href="#glyph0-2" x="39" y="28.827148"/>
  <use xlink:href="#glyph0-3" x="48" y="28.827148"/>
  <use xlink:href="#glyph0-4" x="57" y="28.827148"/>
  <use xlink:href="#glyph0-5" x="66" y="28.827148"/>
</g>
<g style="fill:rgb(100%,100%,100%);fill-opacity:1;">
  <use xlink:href="#glyph1-1" x="75" y="28.827148"/>
  <use xlink:href="#glyph1-2" x="78" y="28.827148"/>
  <use xlink:href="#glyph1-1" x="86" y="28.827148"/>
</g>
<g style="fill:rgb(100%,100%,100%);fill-opacity:1;">
  <use xlink:href="#glyph1-3" x="89" y="28.827148"/>
  <use xlink:href="#glyph1-4" x="95" y="28.827148"/>
  <use xlink:href="#glyph1-5" x="99" y="28.827148"/>
  <use xlink:href="#glyph1-6" x="102" y="28.827148"/>
</g>
</g>
</svg>
