<?xml version="1.0" encoding="UTF-8"?>
<svg xmlns="http://www.w3.org/2000/svg" xmlns:xlink="http://www.w3.org/1999/xlink" width="1280pt" height="720pt" viewBox="0 0 1280 720" version="1.1">
<defs>
<g>
<symbol overflow="visible" id="glyph0-0">
<path style="stroke:none;" d="M 0.359375 1.296875 L 0.359375 -5.171875 L 4.03125 -5.171875 L 4.03125 1.296875 Z M 0.78125 0.890625 L 3.625 0.890625 L 3.625 -4.75 L 0.78125 -4.75 Z "/>
</symbol>
<symbol overflow="visible" id="glyph0-1">
<path style="stroke:none;" d="M 0.296875 0 L 0.296875 -0.375 L 0.890625 -0.375 L 0.890625 -5.1875 L 0.265625 -5.1875 L 0.265625 -5.5625 L 1.546875 -5.5625 L 1.546875 -3.125 C 1.671875 -3.382812 1.828125 -3.578125 2.015625 -3.703125 C 2.210938 -3.835938 2.441406 -3.90625 2.703125 -3.90625 C 3.117188 -3.90625 3.425781 -3.785156 3.625 -3.546875 C 3.820312 -3.304688 3.921875 -2.929688 3.921875 -2.421875 L 3.921875 -0.375 L 4.515625 -0.375 L 4.515625 0 L 2.703125 0 L 2.703125 -0.375 L 3.265625 -0.375 L 3.265625 -2.21875 C 3.265625 -2.675781 3.207031 -2.988281 3.09375 -3.15625 C 2.976562 -3.332031 2.773438 -3.421875 2.484375 -3.421875 C 2.179688 -3.421875 1.945312 -3.304688 1.78125 -3.078125 C 1.625 -2.859375 1.546875 -2.539062 1.546875 -2.125 L 1.546875 -0.375 L 2.125 -0.375 L 2.125 0 Z "/>
</symbol>
<symbol overflow="visible" id="glyph0-2">
<path style="stroke:none;" d="M 3.546875 -4.421875 L 2.140625 -3.78125 L 3.546875 -3.109375 L 3.28125 -2.6875 L 2.03125 -3.46875 L 2.078125 -2.109375 L 1.59375 -2.109375 L 1.640625 -3.46875 L 0.390625 -2.6875 L 0.125 -3.109375 L 1.515625 -3.765625 L 0.125 -4.421875 L 0.390625 -4.859375 L 1.640625 -4.078125 L 1.59375 -5.4375 L 2.078125 -5.4375 L 2.03125 -4.078125 L 3.28125 -4.859375 Z "/>
</symbol>
<symbol overflow="visible" id="glyph0-3">
<path style="stroke:none;" d="M 0.78125 -3.3125 L 5.359375 -3.3125 L 5.359375 -2.734375 L 0.78125 -2.734375 Z M 0.78125 -1.859375 L 5.359375 -1.859375 L 5.359375 -1.28125 L 0.78125 -1.28125 Z "/>
</symbol>
<symbol overflow="visible" id="glyph0-4">
<path style="stroke:none;" d="M 1.046875 0 L 1.046875 -0.375 L 1.96875 -0.375 L 1.96875 -4.828125 L 0.890625 -4.125 L 0.890625 -4.59375 L 2.203125 -5.4375 L 2.6875 -5.4375 L 2.6875 -0.375 L 3.625 -0.375 L 3.625 0 Z "/>
</symbol>
<symbol overflow="visible" id="glyph0-5">
<path style="stroke:none;" d="M 0.6875 -0.375 C 0.6875 -0.507812 0.734375 -0.625 0.828125 -0.71875 C 0.921875 -0.8125 1.035156 -0.859375 1.171875 -0.859375 C 1.296875 -0.859375 1.40625 -0.8125 1.5 -0.71875 C 1.59375 -0.625 1.640625 -0.507812 1.640625 -0.375 C 1.640625 -0.238281 1.59375 -0.125 1.5 -0.03125 C 1.40625 0.0625 1.296875 0.109375 1.171875 0.109375 C 1.035156 0.109375 0.921875 0.0625 0.828125 -0.03125 C 0.734375 -0.125 0.6875 -0.238281 0.6875 -0.375 Z "/>
</symbol>
<symbol overflow="visible" id="glyph0-6">
<path style="stroke:none;" d="M 0.71875 -5.109375 C 0.988281 -5.222656 1.253906 -5.304688 1.515625 -5.359375 C 1.773438 -5.410156 2.015625 -5.4375 2.234375 -5.4375 C 2.753906 -5.4375 3.160156 -5.320312 3.453125 -5.09375 C 3.753906 -4.875 3.90625 -4.5625 3.90625 -4.15625 C 3.90625 -3.832031 3.800781 -3.5625 3.59375 -3.34375 C 3.394531 -3.132812 3.109375 -2.992188 2.734375 -2.921875 C 3.171875 -2.859375 3.507812 -2.695312 3.75 -2.4375 C 4 -2.175781 4.125 -1.84375 4.125 -1.4375 C 4.125 -0.9375 3.953125 -0.550781 3.609375 -0.28125 C 3.273438 -0.0195312 2.796875 0.109375 2.171875 0.109375 C 1.890625 0.109375 1.613281 0.078125 1.34375 0.015625 C 1.082031 -0.046875 0.820312 -0.132812 0.5625 -0.25 L 0.5625 -1.296875 L 0.953125 -1.296875 C 0.984375 -0.953125 1.101562 -0.691406 1.3125 -0.515625 C 1.519531 -0.335938 1.8125 -0.25 2.1875 -0.25 C 2.550781 -0.25 2.835938 -0.351562 3.046875 -0.5625 C 3.253906 -0.78125 3.359375 -1.070312 3.359375 -1.4375 C 3.359375 -1.851562 3.25 -2.171875 3.03125 -2.390625 C 2.820312 -2.609375 2.503906 -2.71875 2.078125 -2.71875 L 1.75 -2.71875 L 1.75 -3.078125 L 1.921875 -3.078125 C 2.335938 -3.078125 2.648438 -3.160156 2.859375 -3.328125 C 3.066406 -3.503906 3.171875 -3.769531 3.171875 -4.125 C 3.171875 -4.4375 3.082031 -4.671875 2.90625 -4.828125 C 2.738281 -4.992188 2.492188 -5.078125 2.171875 -5.078125 C 1.847656 -5.078125 1.597656 -5 1.421875 -4.84375 C 1.242188 -4.695312 1.140625 -4.472656 1.109375 -4.171875 L 0.71875 -4.171875 Z "/>
</symbol>
</g>
</defs>
<g id="surface67">
<g style="fill:rgb(41.176471%,61.176471%,32.156863%);fill-opacity:1;">
  <use xlink:href="#glyph0-1" x="30" y="26.806641"/>
  <use xlink:href="#glyph0-2" x="35" y="26.806641"/>
  <use xlink:href="#glyph0-3" x="39" y="26.806641"/>
  <use xlink:href="#glyph0-4" x="45" y="26.806641"/>
  <use xlink:href="#glyph0-5" x="50" y="26.806641"/>
  <use xlink:href="#glyph0-4" x="52" y="26.806641"/>
  <use xlink:href="#glyph0-6" x="57" y="26.806641"/>
</g>
</g>
</svg>
