<?xml version="1.0" encoding="UTF-8"?>
<svg xmlns="http://www.w3.org/2000/svg" xmlns:xlink="http://www.w3.org/1999/xlink" width="1280pt" height="720pt" viewBox="0 0 1280 720" version="1.1">
<defs>
<g>
<symbol overflow="visible" id="glyph0-0">
<path style="stroke:none;" d="M 0.421875 1.515625 L 0.421875 -6.03125 L 4.703125 -6.03125 L 4.703125 1.515625 Z M 0.90625 1.03125 L 4.234375 1.03125 L 4.234375 -5.5625 L 0.90625 -5.5625 Z "/>
</symbol>
<symbol overflow="visible" id="glyph0-1">
<path style="stroke:none;" d="M 0.375 -2.625 L 2.515625 -2.625 L 2.515625 -1.96875 L 0.375 -1.96875 Z "/>
</symbol>
<symbol overflow="visible" id="glyph0-2">
<path style="stroke:none;" d="M 1.21875 0 L 1.21875 -0.4375 L 2.296875 -0.4375 L 2.296875 -5.640625 L 1.046875 -4.828125 L 1.046875 -5.375 L 2.5625 -6.359375 L 3.140625 -6.359375 L 3.140625 -0.4375 L 4.234375 -0.4375 L 4.234375 0 Z "/>
</symbol>
<symbol overflow="visible" id="glyph0-3">
<path style="stroke:none;" d="M 0.828125 -5.984375 C 1.160156 -6.097656 1.472656 -6.1875 1.765625 -6.25 C 2.066406 -6.320312 2.347656 -6.359375 2.609375 -6.359375 C 3.222656 -6.359375 3.703125 -6.222656 4.046875 -5.953125 C 4.390625 -5.691406 4.5625 -5.328125 4.5625 -4.859375 C 4.5625 -4.484375 4.441406 -4.171875 4.203125 -3.921875 C 3.960938 -3.671875 3.625 -3.5 3.1875 -3.40625 C 3.707031 -3.332031 4.109375 -3.144531 4.390625 -2.84375 C 4.671875 -2.550781 4.8125 -2.164062 4.8125 -1.6875 C 4.8125 -1.101562 4.613281 -0.65625 4.21875 -0.34375 C 3.832031 -0.03125 3.269531 0.125 2.53125 0.125 C 2.207031 0.125 1.890625 0.0859375 1.578125 0.015625 C 1.265625 -0.0546875 0.957031 -0.160156 0.65625 -0.296875 L 0.65625 -1.515625 L 1.125 -1.515625 C 1.144531 -1.109375 1.273438 -0.800781 1.515625 -0.59375 C 1.765625 -0.394531 2.109375 -0.296875 2.546875 -0.296875 C 2.972656 -0.296875 3.3125 -0.414062 3.5625 -0.65625 C 3.8125 -0.90625 3.9375 -1.242188 3.9375 -1.671875 C 3.9375 -2.160156 3.804688 -2.53125 3.546875 -2.78125 C 3.296875 -3.039062 2.925781 -3.171875 2.4375 -3.171875 L 2.03125 -3.171875 L 2.03125 -3.59375 L 2.25 -3.59375 C 2.738281 -3.59375 3.101562 -3.691406 3.34375 -3.890625 C 3.582031 -4.097656 3.703125 -4.40625 3.703125 -4.8125 C 3.703125 -5.175781 3.601562 -5.453125 3.40625 -5.640625 C 3.207031 -5.835938 2.921875 -5.9375 2.546875 -5.9375 C 2.171875 -5.9375 1.878906 -5.847656 1.671875 -5.671875 C 1.460938 -5.492188 1.335938 -5.226562 1.296875 -4.875 L 0.828125 -4.875 Z "/>
</symbol>
<symbol overflow="visible" id="glyph0-4">
<path style="stroke:none;" d="M 0.8125 -0.4375 C 0.8125 -0.59375 0.863281 -0.722656 0.96875 -0.828125 C 1.070312 -0.941406 1.203125 -1 1.359375 -1 C 1.515625 -1 1.644531 -0.941406 1.75 -0.828125 C 1.863281 -0.722656 1.921875 -0.59375 1.921875 -0.4375 C 1.921875 -0.28125 1.863281 -0.144531 1.75 -0.03125 C 1.644531 0.0703125 1.515625 0.125 1.359375 0.125 C 1.203125 0.125 1.070312 0.0703125 0.96875 -0.03125 C 0.863281 -0.144531 0.8125 -0.28125 0.8125 -0.4375 Z "/>
</symbol>
<symbol overflow="visible" id="glyph0-5">
<path style="stroke:none;" d="M 2.984375 -2.109375 L 2.984375 -5.4375 L 0.859375 -2.109375 Z M 4.828125 0 L 1.984375 0 L 1.984375 -0.4375 L 2.984375 -0.4375 L 2.984375 -1.671875 L 0.265625 -1.671875 L 0.265625 -2.125 L 3 -6.359375 L 3.828125 -6.359375 L 3.828125 -2.109375 L 5.015625 -2.109375 L 5.015625 -1.671875 L 3.828125 -1.671875 L 3.828125 -0.4375 L 4.828125 -0.4375 Z "/>
</symbol>
<symbol overflow="visible" id="glyph0-6">
<path style="stroke:none;" d="M 1.921875 -5.96875 C 1.671875 -5.96875 1.476562 -5.847656 1.34375 -5.609375 C 1.207031 -5.378906 1.140625 -5.0625 1.140625 -4.65625 C 1.140625 -4.238281 1.207031 -3.910156 1.34375 -3.671875 C 1.488281 -3.441406 1.679688 -3.328125 1.921875 -3.328125 C 2.160156 -3.328125 2.347656 -3.441406 2.484375 -3.671875 C 2.617188 -3.910156 2.6875 -4.238281 2.6875 -4.65625 C 2.6875 -5.0625 2.617188 -5.378906 2.484375 -5.609375 C 2.347656 -5.847656 2.160156 -5.96875 1.921875 -5.96875 Z M 6.21875 -2.90625 C 5.976562 -2.90625 5.789062 -2.785156 5.65625 -2.546875 C 5.519531 -2.316406 5.453125 -1.992188 5.453125 -1.578125 C 5.453125 -1.171875 5.519531 -0.847656 5.65625 -0.609375 C 5.789062 -0.378906 5.976562 -0.265625 6.21875 -0.265625 C 6.457031 -0.265625 6.644531 -0.378906 6.78125 -0.609375 C 6.925781 -0.847656 7 -1.171875 7 -1.578125 C 7 -1.984375 6.925781 -2.304688 6.78125 -2.546875 C 6.644531 -2.785156 6.457031 -2.90625 6.21875 -2.90625 Z M 6.21875 -3.28125 C 6.664062 -3.28125 7.015625 -3.125 7.265625 -2.8125 C 7.523438 -2.507812 7.65625 -2.097656 7.65625 -1.578125 C 7.65625 -1.054688 7.523438 -0.640625 7.265625 -0.328125 C 7.003906 -0.0234375 6.65625 0.125 6.21875 0.125 C 5.78125 0.125 5.429688 -0.0234375 5.171875 -0.328125 C 4.910156 -0.640625 4.78125 -1.054688 4.78125 -1.578125 C 4.78125 -2.097656 4.910156 -2.507812 5.171875 -2.8125 C 5.429688 -3.125 5.78125 -3.28125 6.21875 -3.28125 Z M 5.703125 -6.359375 L 6.34375 -6.359375 L 2.4375 0.125 L 1.796875 0.125 Z M 1.90625 -6.359375 C 2.351562 -6.359375 2.707031 -6.203125 2.96875 -5.890625 C 3.226562 -5.585938 3.359375 -5.175781 3.359375 -4.65625 C 3.359375 -4.132812 3.226562 -3.71875 2.96875 -3.40625 C 2.707031 -3.101562 2.351562 -2.953125 1.90625 -2.953125 C 1.46875 -2.953125 1.117188 -3.101562 0.859375 -3.40625 C 0.597656 -3.71875 0.46875 -4.132812 0.46875 -4.65625 C 0.46875 -5.175781 0.597656 -5.585938 0.859375 -5.890625 C 1.117188 -6.203125 1.46875 -6.359375 1.90625 -6.359375 Z "/>
</symbol>
</g>
</defs>
<g id="surface12">
<g style="fill:rgb(96.862745%,85.098039%,43.529412%);fill-opacity:1;">
  <use xlink:href="#glyph0-1" x="30" y="27.941406"/>
  <use xlink:href="#glyph0-2" x="33" y="27.941406"/>
  <use xlink:href="#glyph0-3" x="38" y="27.941406"/>
  <use xlink:href="#glyph0-4" x="43" y="27.941406"/>
  <use xlink:href="#glyph0-5" x="46" y="27.941406"/>
  <use xlink:href="#glyph0-6" x="51" y="27.941406"/>
</g>
</g>
</svg>
